<svg width="40" height="135" viewBox="0 0 40 135" fill="none" xmlns="http://www.w3.org/2000/svg">
<path fill-rule="evenodd" clip-rule="evenodd" d="M21.811 111.502L29.878 120.125C33.566 124.065 27.656 129.428 24.215 125.783L15.113 116.143C14.2 115.175 12.45 117.253 11.992 119.739C11.954 120.153 11.933 120.572 11.933 120.997C11.933 122.897 12.325 124.707 13.03 126.35C14.35 128.982 16.612 131.464 19.345 133.101C21.196 134.047 23.295 134.581 25.519 134.581C33.021 134.581 39.103 128.5 39.103 120.997C39.103 117.384 37.694 114.1 35.392 111.666C34.843 111.215 34.376 110.782 33.975 110.364C31.716 108.566 30.899 108.655 30.423 106.032V100.095C30.423 99.123 29.628 98.329 28.656 98.329H22.378C21.408 98.329 20.612 99.123 20.612 100.095V108.324C20.479 109.76 21.235 110.887 21.811 111.502Z" fill="#A7BFBE"/>
<path fill-rule="evenodd" clip-rule="evenodd" d="M25.572 -5.569C26.925 -5.569 28.156 -5.016 29.045 -4.127C29.937 -3.236 30.488 -2.008 30.488 -0.654V4.431C30.488 5.785 29.936 7.014 29.045 7.905C28.156 8.795 26.926 9.347 25.572 9.347C24.22 9.347 22.99 8.794 22.101 7.905C21.21 7.014 20.659 5.785 20.659 4.431V-0.654C20.659 -2.008 21.211 -3.236 22.101 -4.127C22.99 -5.017 24.221 -5.569 25.572 -5.569ZM27.026 -2.107C26.652 -2.481 26.138 -2.713 25.572 -2.713C25.007 -2.713 24.493 -2.481 24.121 -2.107C23.746 -1.733 23.514 -1.218 23.514 -0.654V4.431C23.514 4.996 23.746 5.511 24.121 5.885C24.493 6.259 25.008 6.491 25.572 6.491C26.138 6.491 26.652 6.259 27.026 5.885C27.4 5.511 27.632 4.996 27.632 4.431V-0.654C27.633 -1.219 27.4 -1.733 27.026 -2.107Z" fill="#A7BFBE"/>
<path fill-rule="evenodd" clip-rule="evenodd" d="M25.572 10.814C26.925 10.814 28.156 11.366 29.045 12.256C29.937 13.146 30.488 14.375 30.488 15.728V20.814C30.488 22.167 29.936 23.397 29.045 24.286C28.156 25.177 26.926 25.728 25.572 25.728C24.22 25.728 22.99 25.176 22.101 24.286C21.21 23.397 20.659 22.167 20.659 20.814V15.728C20.659 14.376 21.211 13.146 22.101 12.256C22.99 11.365 24.221 10.814 25.572 10.814ZM27.026 14.275C26.652 13.901 26.138 13.668 25.572 13.668C25.007 13.668 24.493 13.901 24.121 14.275C23.746 14.648 23.514 15.163 23.514 15.727V20.813C23.514 21.377 23.746 21.892 24.121 22.266C24.493 22.64 25.008 22.872 25.572 22.872C26.138 22.872 26.652 22.64 27.026 22.266C27.4 21.892 27.632 21.377 27.632 20.813V15.727C27.633 15.163 27.4 14.648 27.026 14.275Z" fill="#A7BFBE"/>
<path fill-rule="evenodd" clip-rule="evenodd" d="M27.073 14.638C27.073 15.426 26.434 16.067 25.645 16.067C24.857 16.067 24.216 15.426 24.216 14.638V5.558C24.216 4.769 24.857 4.129 25.645 4.129C26.434 4.129 27.073 4.769 27.073 5.558V14.638Z" fill="#A7BFBE"/>
<path fill-rule="evenodd" clip-rule="evenodd" d="M25.572 27.195C26.925 27.195 28.156 27.748 29.045 28.637C29.937 29.527 30.488 30.757 30.488 32.11V37.196C30.488 38.549 29.936 39.778 29.045 40.668C28.156 41.558 26.926 42.11 25.572 42.11C24.22 42.11 22.99 41.557 22.101 40.668C21.21 39.778 20.659 38.549 20.659 37.196V32.11C20.659 30.757 21.211 29.527 22.101 28.637C22.99 27.748 24.221 27.195 25.572 27.195ZM27.026 30.656C26.652 30.282 26.138 30.051 25.572 30.051C25.007 30.051 24.493 30.282 24.121 30.656C23.746 31.03 23.514 31.545 23.514 32.11V37.196C23.514 37.759 23.746 38.275 24.121 38.648C24.493 39.022 25.008 39.255 25.572 39.255C26.138 39.255 26.652 39.023 27.026 38.648C27.4 38.275 27.632 37.759 27.632 37.196V32.11C27.633 31.545 27.4 31.03 27.026 30.656Z" fill="#A7BFBE"/>
<path fill-rule="evenodd" clip-rule="evenodd" d="M27.073 31.021C27.073 31.809 26.434 32.449 25.645 32.449C24.857 32.449 24.216 31.809 24.216 31.021V21.939C24.216 21.152 24.857 20.512 25.645 20.512C26.434 20.512 27.073 21.152 27.073 21.939V31.021Z" fill="#A7BFBE"/>
<path fill-rule="evenodd" clip-rule="evenodd" d="M25.572 43.577C26.925 43.577 28.156 44.131 29.045 45.019C29.937 45.91 30.488 47.138 30.488 48.492V53.577C30.488 54.931 29.936 56.16 29.045 57.051C28.156 57.94 26.926 58.493 25.572 58.493C24.22 58.493 22.99 57.939 22.101 57.051C21.21 56.16 20.659 54.932 20.659 53.577V48.492C20.659 47.138 21.211 45.91 22.101 45.019C22.99 44.131 24.221 43.577 25.572 43.577ZM27.026 47.039C26.652 46.665 26.138 46.432 25.572 46.432C25.007 46.432 24.493 46.664 24.121 47.039C23.746 47.413 23.514 47.928 23.514 48.492V53.577C23.514 54.143 23.746 54.657 24.121 55.031C24.493 55.404 25.008 55.637 25.572 55.637C26.138 55.637 26.652 55.404 27.026 55.031C27.4 54.657 27.632 54.142 27.632 53.577V48.492C27.633 47.928 27.4 47.413 27.026 47.039Z" fill="#A7BFBE"/>
<path fill-rule="evenodd" clip-rule="evenodd" d="M27.073 47.402C27.073 48.19 26.434 48.83 25.645 48.83C24.857 48.83 24.216 48.19 24.216 47.402V38.321C24.216 37.532 24.857 36.893 25.645 36.893C26.434 36.893 27.073 37.532 27.073 38.321V47.402Z" fill="#A7BFBE"/>
<path fill-rule="evenodd" clip-rule="evenodd" d="M25.572 59.96C26.925 59.96 28.156 60.512 29.045 61.402C29.937 62.291 30.488 63.521 30.488 64.874V69.96C30.488 71.313 29.936 72.542 29.045 73.432C28.156 74.323 26.926 74.874 25.572 74.874C24.22 74.874 22.99 74.322 22.101 73.432C21.21 72.542 20.659 71.313 20.659 69.96V64.874C20.659 63.521 21.211 62.291 22.101 61.402C22.99 60.512 24.221 59.96 25.572 59.96ZM27.026 63.421C26.652 63.048 26.138 62.816 25.572 62.816C25.007 62.816 24.493 63.049 24.121 63.421C23.746 63.795 23.514 64.31 23.514 64.874V69.96C23.514 70.524 23.746 71.039 24.121 71.413C24.493 71.787 25.008 72.018 25.572 72.018C26.138 72.018 26.652 71.787 27.026 71.413C27.4 71.039 27.632 70.524 27.632 69.96V64.874C27.633 64.31 27.4 63.795 27.026 63.421Z" fill="#A7BFBE"/>
<path fill-rule="evenodd" clip-rule="evenodd" d="M27.073 63.784C27.073 64.573 26.434 65.213 25.645 65.213C24.857 65.213 24.216 64.573 24.216 63.784V54.704C24.216 53.915 24.857 53.275 25.645 53.275C26.434 53.275 27.073 53.915 27.073 54.704V63.784Z" fill="#A7BFBE"/>
<path fill-rule="evenodd" clip-rule="evenodd" d="M25.572 76.342C26.925 76.342 28.156 76.894 29.045 77.784C29.937 78.674 30.488 79.903 30.488 81.257V86.342C30.488 87.696 29.936 88.925 29.045 89.815C28.156 90.705 26.926 91.257 25.572 91.257C24.22 91.257 22.99 90.704 22.101 89.815C21.21 88.925 20.659 87.696 20.659 86.342V81.257C20.659 79.903 21.211 78.674 22.101 77.784C22.99 76.894 24.221 76.342 25.572 76.342ZM27.026 79.803C26.652 79.429 26.138 79.198 25.572 79.198C25.007 79.198 24.493 79.429 24.121 79.803C23.746 80.178 23.514 80.692 23.514 81.257V86.342C23.514 86.907 23.746 87.421 24.121 87.795C24.493 88.169 25.008 88.401 25.572 88.401C26.138 88.401 26.652 88.169 27.026 87.795C27.4 87.421 27.632 86.906 27.632 86.342V81.257C27.633 80.691 27.4 80.178 27.026 79.803Z" fill="#A7BFBE"/>
<path fill-rule="evenodd" clip-rule="evenodd" d="M27.073 80.167C27.073 80.955 26.434 81.595 25.645 81.595C24.857 81.595 24.216 80.955 24.216 80.167V71.085C24.216 70.298 24.857 69.658 25.645 69.658C26.434 69.658 27.073 70.298 27.073 71.085V80.167Z" fill="#A7BFBE"/>
<path fill-rule="evenodd" clip-rule="evenodd" d="M31.044 93.173H19.996C18.91 93.173 18.021 94.061 18.021 95.147V102.168C18.021 103.254 18.91 104.142 19.996 104.142H31.044C32.13 104.142 33.018 103.254 33.018 102.168V95.147C33.018 94.061 32.13 93.173 31.044 93.173Z" fill="#A7BFBE"/>
<path fill-rule="evenodd" clip-rule="evenodd" d="M27.073 96.44C27.073 97.227 26.434 97.867 25.645 97.867C24.857 97.867 24.216 97.227 24.216 96.44V87.359C24.216 86.57 24.857 85.93 25.645 85.93C26.434 85.93 27.073 86.57 27.073 87.359V96.44Z" fill="#A7BFBE"/>
<path fill-rule="evenodd" clip-rule="evenodd" d="M5.62299 0.130981C6.97699 0.130981 8.20501 0.682981 9.09601 1.57298C9.98601 2.46198 10.538 3.69198 10.538 5.04498V10.131C10.538 11.483 9.98501 12.713 9.09601 13.603C8.20501 14.494 6.97699 15.045 5.62299 15.045C4.26999 15.045 3.04099 14.493 2.14999 13.603C1.25999 12.713 0.708008 11.484 0.708008 10.131V5.04498C0.708008 3.69198 1.26099 2.46198 2.14999 1.57298C3.04099 0.682981 4.26999 0.130981 5.62299 0.130981ZM7.07599 3.59198C6.70199 3.21898 6.18699 2.98598 5.62299 2.98598C5.05899 2.98598 4.54301 3.21898 4.16901 3.59198C3.79501 3.96598 3.564 4.48098 3.564 5.04498V10.131C3.564 10.695 3.79501 11.21 4.16901 11.584C4.54301 11.958 5.05899 12.19 5.62299 12.19C6.18799 12.19 6.70199 11.959 7.07599 11.584C7.44999 11.21 7.681 10.695 7.681 10.131V5.04498C7.682 4.47998 7.44999 3.96598 7.07599 3.59198Z" fill="#A7BFBE"/>
<path fill-rule="evenodd" clip-rule="evenodd" d="M7.12399 3.95498C7.12399 4.74298 6.48301 5.38298 5.69501 5.38298C4.90801 5.38298 4.267 4.74298 4.267 3.95498V-5.12502C4.267 -5.91402 4.90801 -6.55402 5.69501 -6.55402C6.48301 -6.55402 7.12399 -5.91402 7.12399 -5.12502V3.95498Z" fill="#A7BFBE"/>
<path fill-rule="evenodd" clip-rule="evenodd" d="M5.62299 16.513C6.97699 16.513 8.20501 17.066 9.09601 17.955C9.98601 18.845 10.538 20.075 10.538 21.428V26.513C10.538 27.867 9.98501 29.096 9.09601 29.986C8.20501 30.876 6.97699 31.428 5.62299 31.428C4.26999 31.428 3.04099 30.875 2.14999 29.986C1.25999 29.096 0.708008 27.867 0.708008 26.513V21.428C0.708008 20.075 1.26099 18.845 2.14999 17.955C3.04099 17.065 4.26999 16.513 5.62299 16.513ZM7.07599 19.975C6.70199 19.601 6.18699 19.369 5.62299 19.369C5.05899 19.369 4.54301 19.601 4.16901 19.975C3.79501 20.349 3.564 20.863 3.564 21.428V26.513C3.564 27.077 3.79501 27.592 4.16901 27.966C4.54301 28.34 5.05899 28.573 5.62299 28.573C6.18799 28.573 6.70199 28.34 7.07599 27.966C7.44999 27.592 7.681 27.077 7.681 26.513V21.428C7.682 20.862 7.44999 20.349 7.07599 19.975Z" fill="#A7BFBE"/>
<path fill-rule="evenodd" clip-rule="evenodd" d="M7.12399 20.338C7.12399 21.126 6.48301 21.766 5.69501 21.766C4.90801 21.766 4.267 21.126 4.267 20.338V11.256C4.267 10.468 4.90801 9.82898 5.69501 9.82898C6.48301 9.82898 7.12399 10.468 7.12399 11.256V20.338Z" fill="#A7BFBE"/>
<path fill-rule="evenodd" clip-rule="evenodd" d="M5.62299 32.895C6.97699 32.895 8.20501 33.448 9.09601 34.337C9.98601 35.228 10.538 36.456 10.538 37.81V42.895C10.538 44.249 9.98501 45.478 9.09601 46.368C8.20501 47.258 6.97699 47.811 5.62299 47.811C4.26999 47.811 3.04099 47.257 2.14999 46.368C1.25999 45.478 0.708008 44.249 0.708008 42.895V37.81C0.708008 36.456 1.26099 35.228 2.14999 34.337C3.04099 33.447 4.26999 32.895 5.62299 32.895ZM7.07599 36.356C6.70199 35.982 6.18699 35.75 5.62299 35.75C5.05899 35.75 4.54301 35.982 4.16901 36.356C3.79501 36.729 3.564 37.245 3.564 37.809V42.894C3.564 43.459 3.79501 43.974 4.16901 44.348C4.54301 44.721 5.05899 44.954 5.62299 44.954C6.18799 44.954 6.70199 44.722 7.07599 44.348C7.44999 43.974 7.681 43.459 7.681 42.894V37.81C7.682 37.245 7.44999 36.729 7.07599 36.356Z" fill="#A7BFBE"/>
<path fill-rule="evenodd" clip-rule="evenodd" d="M7.12399 36.72C7.12399 37.508 6.48301 38.148 5.69501 38.148C4.90801 38.148 4.267 37.508 4.267 36.72V27.639C4.267 26.851 4.90801 26.211 5.69501 26.211C6.48301 26.211 7.12399 26.851 7.12399 27.639V36.72Z" fill="#A7BFBE"/>
<path fill-rule="evenodd" clip-rule="evenodd" d="M5.62299 49.276C6.97699 49.276 8.20501 49.83 9.09601 50.719C9.98601 51.608 10.538 52.837 10.538 54.191V59.276C10.538 60.63 9.98501 61.859 9.09601 62.749C8.20501 63.64 6.97699 64.192 5.62299 64.192C4.26999 64.192 3.04099 63.639 2.14999 62.749C1.25999 61.859 0.708008 60.63 0.708008 59.276V54.191C0.708008 52.837 1.26099 51.608 2.14999 50.719C3.04099 49.83 4.26999 49.276 5.62299 49.276ZM7.07599 52.738C6.70199 52.365 6.18699 52.133 5.62299 52.133C5.05899 52.133 4.54301 52.365 4.16901 52.738C3.79501 53.112 3.564 53.628 3.564 54.191V59.276C3.564 59.842 3.79501 60.356 4.16901 60.73C4.54301 61.104 5.05899 61.335 5.62299 61.335C6.18799 61.335 6.70199 61.104 7.07599 60.73C7.44999 60.356 7.681 59.842 7.681 59.276V54.191C7.682 53.628 7.44999 53.112 7.07599 52.738Z" fill="#A7BFBE"/>
<path fill-rule="evenodd" clip-rule="evenodd" d="M7.12399 53.102C7.12399 53.89 6.48301 54.53 5.69501 54.53C4.90801 54.53 4.267 53.89 4.267 53.102V44.021C4.267 43.233 4.90801 42.593 5.69501 42.593C6.48301 42.593 7.12399 43.233 7.12399 44.021V53.102Z" fill="#A7BFBE"/>
<path fill-rule="evenodd" clip-rule="evenodd" d="M5.62299 65.659C6.97699 65.659 8.20501 66.211 9.09601 67.101C9.98601 67.991 10.538 69.22 10.538 70.574V75.659C10.538 77.013 9.98501 78.242 9.09601 79.132C8.20501 80.022 6.97699 80.574 5.62299 80.574C4.26999 80.574 3.04099 80.021 2.14999 79.132C1.25999 78.242 0.708008 77.013 0.708008 75.659V70.574C0.708008 69.22 1.26099 67.991 2.14999 67.101C3.04099 66.211 4.26999 65.659 5.62299 65.659ZM7.07599 69.121C6.70199 68.747 6.18699 68.515 5.62299 68.515C5.05899 68.515 4.54301 68.747 4.16901 69.121C3.79501 69.495 3.564 70.009 3.564 70.574V75.659C3.564 76.224 3.79501 76.738 4.16901 77.112C4.54301 77.486 5.05899 77.719 5.62299 77.719C6.18799 77.719 6.70199 77.486 7.07599 77.112C7.44999 76.738 7.681 76.224 7.681 75.659V70.574C7.682 70.009 7.44999 69.495 7.07599 69.121Z" fill="#A7BFBE"/>
<path fill-rule="evenodd" clip-rule="evenodd" d="M7.12399 69.483C7.12399 70.272 6.48301 70.912 5.69501 70.912C4.90801 70.912 4.267 70.272 4.267 69.483V60.402C4.267 59.614 4.90801 58.975 5.69501 58.975C6.48301 58.975 7.12399 59.614 7.12399 60.402V69.483Z" fill="#A7BFBE"/>
<path fill-rule="evenodd" clip-rule="evenodd" d="M5.62299 82.041C6.97699 82.041 8.20501 82.594 9.09601 83.483C9.98601 84.374 10.538 85.602 10.538 86.956V92.042C10.538 93.395 9.98501 94.624 9.09601 95.514C8.20501 96.404 6.97699 96.957 5.62299 96.957C4.26999 96.957 3.04099 96.403 2.14999 95.514C1.25999 94.624 0.708008 93.395 0.708008 92.042V86.956C0.708008 85.602 1.26099 84.374 2.14999 83.483C3.04099 82.594 4.26999 82.041 5.62299 82.041ZM7.07599 85.503C6.70199 85.129 6.18699 84.897 5.62299 84.897C5.05899 84.897 4.54301 85.129 4.16901 85.503C3.79501 85.876 3.564 86.392 3.564 86.956V92.042C3.564 92.606 3.79501 93.121 4.16901 93.495C4.54301 93.868 5.05899 94.1 5.62299 94.1C6.18799 94.1 6.70199 93.868 7.07599 93.495C7.44999 93.121 7.681 92.606 7.681 92.042V86.956C7.682 86.392 7.44999 85.876 7.07599 85.503Z" fill="#A7BFBE"/>
<path fill-rule="evenodd" clip-rule="evenodd" d="M7.12399 85.866C7.12399 86.654 6.48301 87.294 5.69501 87.294C4.90801 87.294 4.267 86.654 4.267 85.866V76.785C4.267 75.997 4.90801 75.357 5.69501 75.357C6.48301 75.357 7.12399 75.997 7.12399 76.785V85.866Z" fill="#A7BFBE"/>
</svg>
