<svg width="73" height="70" viewBox="0 0 73 70" fill="none" xmlns="http://www.w3.org/2000/svg">
<path fill-rule="evenodd" clip-rule="evenodd" d="M43.6067 7.7999C44.8908 8.12424 46.1513 8.53164 47.3775 9.01972C48.6053 9.50859 49.7981 10.0789 50.946 10.7237L56.3337 7.49827C57.1944 6.98277 58.277 7.10264 58.9933 7.78972L64.4855 13.0638C65.2018 13.7525 65.3258 14.7929 64.789 15.6178L61.431 20.7909C62.109 21.89 62.6956 23.0386 63.2055 24.2184C63.7129 25.3967 64.1371 26.6056 64.4716 27.8387L70.6565 29.2152C71.6428 29.4354 72.3216 30.2556 72.3216 31.2279V38.6886C72.3216 39.66 71.6428 40.4803 70.6565 40.7004L64.4749 42.0777C64.1371 43.3085 63.7129 44.5205 63.2047 45.6972C62.6956 46.8771 62.1016 48.0225 61.4302 49.124L64.7906 54.2986C65.3258 55.1236 65.2018 56.1632 64.4863 56.8518L58.9941 62.1251C58.2778 62.8122 57.1952 62.9313 56.3345 62.4174L50.9484 59.1912C49.803 59.8414 48.6061 60.4071 47.3783 60.8951C46.1529 61.3824 44.8917 61.7883 43.6075 62.111L42.1741 68.0511C41.9449 68.9983 41.0915 69.6493 40.0782 69.6493H32.3099C31.2982 69.6493 30.4441 68.9983 30.2156 68.0511L28.7822 62.1142C27.4989 61.7906 26.2384 61.384 25.013 60.8951C23.7836 60.4071 22.5916 59.8352 21.443 59.1912L16.0544 62.4174C15.1953 62.9313 14.1127 62.8122 13.3964 62.1244L7.90502 56.8518C7.18872 56.1632 7.06471 55.1236 7.5999 54.2986L10.9595 49.1248C10.2816 48.0256 9.69496 46.8771 9.18588 45.6988C8.67762 44.5213 8.25501 43.3109 7.91889 42.0777L1.73406 40.7004C0.747715 40.4803 0.0705719 39.66 0.0705719 38.6886V31.2279C0.0705719 30.2556 0.747715 29.4354 1.73406 29.2152L7.91645 27.8387C8.25502 26.6064 8.67762 25.3952 9.18588 24.2177C9.69496 23.0386 10.2889 21.894 10.9603 20.7924L7.5999 15.6178C7.06471 14.7929 7.18872 13.7525 7.90502 13.0638L13.3964 7.78972C14.1127 7.10264 15.1953 6.98277 16.0544 7.49827L21.443 10.7237C22.5868 10.0719 23.7836 9.50859 25.013 9.01972C26.2368 8.53164 27.4981 8.1258 28.7806 7.80459L30.2156 1.86378C30.4441 0.916604 31.2982 0.264771 32.3099 0.264771H40.0782C41.0915 0.264771 41.9449 0.916604 42.1741 1.86378L43.6067 7.7999ZM24.7585 23.9756C21.7155 26.8986 20.0226 30.8221 20.0226 34.957C20.0226 39.0913 21.7138 43.0147 24.7585 45.9385C27.8032 48.8631 31.8881 50.4864 36.1949 50.4864C40.5 50.4864 44.5857 48.8631 47.6304 45.9385C50.6735 43.0155 52.3671 39.092 52.3671 34.957C52.3671 30.8228 50.6743 26.9001 47.6304 23.9756C44.5865 21.0525 40.5008 19.4261 36.1949 19.4261C31.8889 19.4261 27.8024 21.0525 24.7585 23.9756Z" fill="white"/>
<path fill-rule="evenodd" clip-rule="evenodd" d="M42.9018 9.75775C42.25 9.59871 41.7123 9.10355 41.5516 8.43058L40.0774 2.33071H32.309L30.8618 8.32949C30.7435 9.00325 30.2221 9.58303 29.4871 9.76244C28.2299 10.0695 27.0094 10.4605 25.8354 10.9266C24.659 11.3959 23.5144 11.9459 22.4122 12.5703C21.8329 12.915 21.0759 12.9361 20.4583 12.5679L14.9155 9.24926L9.4241 14.5242L12.8677 19.8265C13.2316 20.3733 13.2699 21.0949 12.902 21.6934C12.2428 22.7589 11.6644 23.8675 11.1716 25.0074C10.6854 26.1355 10.2783 27.3091 9.95603 28.5156C9.78878 29.1416 9.27237 29.6579 8.57239 29.8122L2.22112 31.2279V38.6886L8.4655 40.0784C9.16957 40.1936 9.77164 40.6926 9.95847 41.4008C10.2783 42.6065 10.6846 43.7794 11.1716 44.9059C11.6603 46.0372 12.2314 47.1372 12.8849 48.1933C13.2414 48.7495 13.2659 49.4765 12.88 50.0696L9.42492 55.3923L14.9163 60.6664L20.4378 57.3603C21.0089 57.0093 21.7603 56.9733 22.3836 57.3274C23.494 57.9604 24.6484 58.5159 25.8362 58.9875C27.0102 59.456 28.2307 59.8469 29.4863 60.1564C30.1397 60.3162 30.679 60.8114 30.8381 61.4851L32.3107 67.5826H40.079L41.5288 61.5862C41.6471 60.9116 42.1676 60.3319 42.9035 60.1525C44.1607 59.8446 45.382 59.4552 46.5559 58.9875C47.7324 58.5198 48.877 57.9698 49.9775 57.3423C50.5584 56.9991 51.3139 56.9764 51.9315 57.347L57.4734 60.6656L62.9664 55.3915L59.5244 50.0892C59.1589 49.5416 59.1214 48.8192 59.4885 48.2215C60.1493 47.1552 60.727 46.0467 61.2189 44.9068C61.7068 43.7786 62.1122 42.6058 62.4361 41.4001C62.6017 40.7725 63.1182 40.2562 63.8198 40.1027L70.1711 38.6878V31.2271L63.925 29.8349C63.2218 29.7205 62.6189 29.2215 62.4321 28.5148C62.1114 27.3083 61.706 26.1363 61.2189 25.009C60.7319 23.8784 60.1583 22.7785 59.5073 21.7224C59.1491 21.1646 59.1263 20.4384 59.5106 19.8453L62.9656 14.5234L57.4726 9.2485L51.9527 12.5538C51.3816 12.9064 50.6302 12.9424 50.0069 12.5883C48.8974 11.9537 47.743 11.3998 46.5543 10.9266C45.3803 10.4597 44.159 10.0688 42.9018 9.75775ZM23.2378 22.5153C26.5525 19.3306 31.1342 17.3626 36.1932 17.3626C41.253 17.3626 45.8348 19.3306 49.1495 22.5153C52.4659 25.6992 54.5168 30.0982 54.5168 34.9571C54.5168 39.816 52.4659 44.2142 49.1495 47.3989C45.8348 50.5835 41.253 52.5523 36.1932 52.5523C31.1342 52.5523 26.5533 50.5812 23.237 47.3989C19.9222 44.2142 17.8721 39.816 17.8721 34.9571C17.8721 30.0974 19.9214 25.6984 23.2378 22.5153Z" fill="white"/>
</svg>
