<svg width="659" height="492" viewBox="0 0 659 492" fill="none" xmlns="http://www.w3.org/2000/svg">
<path fill-rule="evenodd" clip-rule="evenodd" d="M238.888 444.383C230.744 459.434 218.978 475.165 207.991 492H649.597H654.765V0H402.297L102.51 252.628C17.3303 324.41 112.814 447.442 207.774 406.551C228.27 397.727 233.349 393.328 239.263 396.952C262.342 411.093 253.307 417.735 238.888 444.383Z" fill="#E5EFEF"/>
<path d="M232.071 205.688H121.334V411.536H232.071V205.688Z" fill="#A7BFBE"/>
<path fill-rule="evenodd" clip-rule="evenodd" d="M115.012 407.642H238.394C240.198 407.642 241.675 409.067 241.675 410.807C241.675 412.547 240.198 413.971 238.394 413.971H115.012C113.207 413.971 111.731 412.547 111.731 410.807C111.731 409.067 113.207 407.642 115.012 407.642Z" fill="#A7BFBE"/>
<path fill-rule="evenodd" clip-rule="evenodd" d="M115.012 205.688H238.394C240.198 205.688 241.675 207.111 241.675 208.852C241.675 210.593 240.198 212.016 238.394 212.016H115.012C113.207 212.016 111.731 210.593 111.731 208.852C111.731 207.111 113.207 205.688 115.012 205.688Z" fill="#A7BFBE"/>
<path fill-rule="evenodd" clip-rule="evenodd" d="M135.582 145.055H218.291C220.878 145.055 222.994 147.096 222.994 149.593V193.345C222.994 195.841 220.878 197.882 218.291 197.882H135.582C132.994 197.882 130.877 195.841 130.877 193.345V149.593C130.877 147.097 132.994 145.055 135.582 145.055Z" fill="#A7BFBE"/>
<path d="M218.102 149.774H135.77V193.163H218.102V149.774Z" fill="#C8DDDB"/>
<path fill-rule="evenodd" clip-rule="evenodd" d="M125.969 197.882H227.437C227.437 202.175 223.796 205.688 219.344 205.688H134.061C129.61 205.688 125.969 202.175 125.969 197.882Z" fill="#A7BFBE"/>
<path fill-rule="evenodd" clip-rule="evenodd" d="M135.77 186.575C177.101 182.293 192.549 170.419 205.454 149.773H135.77V186.575Z" fill="#C8DDDB"/>
<path fill-rule="evenodd" clip-rule="evenodd" d="M176.936 155.998C176.71 155.998 176.483 156.006 176.258 156.014V171.288H161.084C161.084 179.731 168.181 186.576 176.936 186.576C185.691 186.576 192.788 179.732 192.788 171.288C192.787 162.843 185.691 155.998 176.936 155.998Z" fill="#A7BFBE"/>
<path fill-rule="evenodd" clip-rule="evenodd" d="M176.258 171.288H161.084C161.084 179.513 167.818 186.219 176.258 186.561V171.288Z" fill="#A7BFBE"/>
<path d="M197.992 176.019H194.7V177.929H197.992V176.019Z" fill="#A7BFBE"/>
<path d="M197.992 179.799H194.7V181.708H197.992V179.799Z" fill="#A7BFBE"/>
<path d="M197.992 183.577H194.7V185.485H197.992V183.577Z" fill="#A7BFBE"/>
<path d="M212.383 176.019H199.768V177.929H212.383V176.019Z" fill="#A7BFBE"/>
<path d="M212.383 179.799H199.768V181.708H212.383V179.799Z" fill="#A7BFBE"/>
<path d="M212.383 183.577H199.768V185.485H212.383V183.577Z" fill="#A7BFBE"/>
<path d="M144.782 155.998H141.488V157.908H144.782V155.998Z" fill="#A7BFBE"/>
<path d="M144.782 159.777H141.488V161.685H144.782V159.777Z" fill="#A7BFBE"/>
<path d="M144.782 163.556H141.488V165.464H144.782V163.556Z" fill="#A7BFBE"/>
<path d="M159.173 155.998H146.557V157.908H159.173V155.998Z" fill="#A7BFBE"/>
<path d="M159.173 159.777H146.557V161.685H159.173V159.777Z" fill="#A7BFBE"/>
<path d="M159.173 163.556H146.557V165.464H159.173V163.556Z" fill="#A7BFBE"/>
<path d="M221.589 220.189H131.818V253.486H221.589V220.189Z" fill="#C8DDDB"/>
<path d="M221.589 271.146H131.818V304.445H221.589V271.146Z" fill="#C8DDDB"/>
<path d="M221.589 322.105H131.818V392.668H221.589V322.105Z" fill="#C8DDDB"/>
<path fill-rule="evenodd" clip-rule="evenodd" d="M163.108 239.309C161.693 239.309 160.544 238.203 160.544 236.838C160.544 235.471 161.693 234.364 163.108 234.364H188.083C189.501 234.364 190.648 235.471 190.648 236.838C190.648 238.203 189.501 239.309 188.083 239.309H163.108Z" fill="#A7BFBE"/>
<path fill-rule="evenodd" clip-rule="evenodd" d="M164.214 290.267C162.799 290.267 161.651 289.16 161.651 287.796C161.651 286.43 162.799 285.323 164.214 285.323H189.191C190.606 285.323 191.756 286.43 191.756 287.796C191.756 289.16 190.606 290.267 189.191 290.267H164.214Z" fill="#A7BFBE"/>
<path fill-rule="evenodd" clip-rule="evenodd" d="M138.818 343.998C138.818 342.633 139.965 341.526 141.382 341.526C142.798 341.526 143.946 342.633 143.946 343.998V368.089C143.946 369.454 142.798 370.56 141.382 370.56C139.965 370.56 138.818 369.454 138.818 368.089V343.998Z" fill="#A7BFBE"/>
<mask id="mask0_1_5" style="mask-type:luminance" maskUnits="userSpaceOnUse" x="217" y="80" width="442" height="383">
<path d="M659 80H217.664V462.727H659V80Z" fill="white"/>
</mask>
<g mask="url(#mask0_1_5)">
<path fill-rule="evenodd" clip-rule="evenodd" d="M281.085 440.107H679.796C684.084 440.107 687.597 436.723 687.597 432.585V432.584C687.597 428.447 684.085 425.062 679.796 425.062H281.085C276.793 425.062 273.283 428.446 273.283 432.584V432.585C273.283 436.723 276.792 440.107 281.085 440.107Z" fill="#A7BFBE"/>
<path fill-rule="evenodd" clip-rule="evenodd" d="M343.614 318.093C317.411 318.093 296.168 345.31 296.168 378.885C296.168 412.457 317.411 439.676 343.614 439.676H375.642C340.328 422.852 335.905 403.053 335.905 378.885C335.905 362.689 335.905 343.152 375.642 318.093H343.614Z" fill="#2E2B37"/>
<path fill-rule="evenodd" clip-rule="evenodd" d="M375.642 318.093C346.514 318.093 322.899 345.31 322.899 378.885C322.899 412.457 346.513 439.676 375.642 439.676C404.773 439.676 428.389 412.458 428.389 378.885C428.389 345.31 404.773 318.093 375.642 318.093Z" fill="#1B1B23"/>
<path fill-rule="evenodd" clip-rule="evenodd" d="M527.169 318.093C500.965 318.093 479.72 345.31 479.72 378.885C479.72 412.457 500.965 439.676 527.169 439.676H559.197C523.881 422.852 519.46 403.053 519.46 378.885C519.46 362.689 519.46 343.152 559.197 318.093H527.169Z" fill="#1B1B23"/>
<path d="M559.197 439.676C588.328 439.676 611.943 412.459 611.943 378.885C611.943 345.31 588.328 318.093 559.197 318.093C530.066 318.093 506.451 345.31 506.451 378.885C506.451 412.459 530.066 439.676 559.197 439.676Z" fill="#2E2B37"/>
<path fill-rule="evenodd" clip-rule="evenodd" d="M559.197 333.225C538.604 333.225 521.912 353.667 521.912 378.884C521.912 404.1 538.605 424.543 559.197 424.543C579.791 424.543 596.484 404.1 596.484 378.884C596.484 353.667 579.79 333.225 559.197 333.225Z" fill="white"/>
<path fill-rule="evenodd" clip-rule="evenodd" d="M559.197 337.517C540.54 337.517 525.417 356.039 525.417 378.885C525.417 401.73 540.54 420.251 559.197 420.251C577.854 420.251 592.98 401.73 592.98 378.885C592.98 356.039 577.854 337.517 559.197 337.517Z" fill="white"/>
<path fill-rule="evenodd" clip-rule="evenodd" d="M525.968 386.362C526.117 387.36 526.293 388.343 526.5 389.316L592.545 372.247C592.413 371.247 592.253 370.257 592.061 369.281L525.968 386.362Z" fill="#C4C4C4"/>
<path fill-rule="evenodd" clip-rule="evenodd" d="M525.428 377.776C525.421 378.144 525.416 378.514 525.416 378.885C525.416 379.511 525.428 380.134 525.452 380.754H592.942C592.965 380.134 592.979 379.511 592.979 378.885C592.979 378.514 592.974 378.144 592.965 377.776H525.428Z" fill="#C4C4C4"/>
<path fill-rule="evenodd" clip-rule="evenodd" d="M526.354 369.175C526.164 370.152 526.001 371.14 525.867 372.141L591.918 389.209C592.122 388.239 592.297 387.252 592.445 386.254L526.354 369.175Z" fill="#C4C4C4"/>
<path fill-rule="evenodd" clip-rule="evenodd" d="M559.197 337.517C558.75 337.517 558.304 337.531 557.862 337.553V420.216C558.304 420.237 558.75 420.251 559.197 420.251C559.79 420.251 560.377 420.233 560.961 420.196V337.575C560.377 337.538 559.79 337.517 559.197 337.517Z" fill="#C4C4C4"/>
<path fill-rule="evenodd" clip-rule="evenodd" d="M547.173 417.55C548.112 417.988 549.074 418.379 550.054 418.715L571.786 340.488C570.852 340.027 569.898 339.619 568.923 339.26L547.173 417.55Z" fill="#C4C4C4"/>
<path fill-rule="evenodd" clip-rule="evenodd" d="M538.364 411.448C539.115 412.173 539.898 412.855 540.7 413.499L580.587 346.867C579.846 346.124 579.078 345.42 578.286 344.755L538.364 411.448Z" fill="#C4C4C4"/>
<path fill-rule="evenodd" clip-rule="evenodd" d="M532.063 403.527C532.602 404.417 533.172 405.278 533.766 406.112L586.776 354.987C586.251 354.084 585.697 353.208 585.118 352.359L532.063 403.527Z" fill="#C4C4C4"/>
<path fill-rule="evenodd" clip-rule="evenodd" d="M528.074 394.992C528.408 395.957 528.77 396.904 529.161 397.831L590.603 363.618C590.287 362.643 589.942 361.687 589.568 360.75L528.074 394.992Z" fill="#C4C4C4"/>
<path fill-rule="evenodd" clip-rule="evenodd" d="M528.907 360.558C528.531 361.491 528.179 362.444 527.859 363.415L589.317 397.635C589.702 396.708 590.059 395.761 590.389 394.794L528.907 360.558Z" fill="#C4C4C4"/>
<path fill-rule="evenodd" clip-rule="evenodd" d="M533.449 352.11C532.865 352.953 532.307 353.826 531.776 354.725L584.802 405.866C585.393 405.029 585.954 404.158 586.488 403.264L533.449 352.11Z" fill="#C4C4C4"/>
<path fill-rule="evenodd" clip-rule="evenodd" d="M540.394 344.514C539.596 345.171 538.823 345.869 538.075 346.604L577.983 413.269C578.782 412.614 579.555 411.916 580.303 411.182L540.394 344.514Z" fill="#C4C4C4"/>
<path fill-rule="evenodd" clip-rule="evenodd" d="M549.86 339.119C548.883 339.463 547.925 339.859 546.987 340.307L568.732 418.577C569.707 418.227 570.666 417.825 571.603 417.373L549.86 339.119Z" fill="#C4C4C4"/>
<path fill-rule="evenodd" clip-rule="evenodd" d="M559.197 360.811C551.046 360.811 544.438 368.903 544.438 378.885C544.438 388.866 551.046 396.957 559.197 396.957C567.349 396.957 573.958 388.866 573.958 378.885C573.958 368.903 567.349 360.811 559.197 360.811Z" fill="#C4C4C4"/>
<path fill-rule="evenodd" clip-rule="evenodd" d="M559.197 366.167C553.461 366.167 548.813 371.86 548.813 378.884C548.813 385.907 553.462 391.601 559.197 391.601C564.932 391.601 569.582 385.907 569.582 378.884C569.582 371.86 564.932 366.167 559.197 366.167Z" fill="#6E6E6D"/>
<path fill-rule="evenodd" clip-rule="evenodd" d="M459.512 244.33C514.752 207.758 545.48 187.417 562.567 176.102C588.698 158.803 608.221 161.92 638.292 161.92H853.808L988.548 244.839C1073.14 244.839 1064.75 336.972 1054.22 389.822H1039.38C1039.94 386.274 1040.24 382.619 1040.24 378.885C1040.24 345.311 1016.62 318.093 987.49 318.093C958.358 318.093 934.745 345.31 934.745 378.885C934.745 382.619 935.039 386.274 935.597 389.822H611.848C620.961 332.051 583.948 308.434 550.368 313.191C520.681 317.398 500.65 347.949 500.65 378.885C500.65 397.539 500.941 386.274 501.502 389.822H488.013L485.633 394.936C484.512 397.345 483.389 399.653 480.651 399.743L449.872 400.73C446.654 400.833 442.731 392.482 441.065 389.822H308.92C307.1 392.03 302.141 399.743 299.717 399.743H280.147C277.407 399.743 275.163 397.578 275.163 394.936V389.822V384.709V297.745C275.163 297.745 278.592 277.395 308.128 268.747C337.667 260.1 459.512 244.33 459.512 244.33Z" fill="#717EA4"/>
<path fill-rule="evenodd" clip-rule="evenodd" d="M459.512 244.33C514.752 207.758 545.48 187.417 562.567 176.102C588.698 158.803 608.22 161.92 638.292 161.92H858.038C882.121 161.92 889.312 166 909.608 180.366C938.238 200.629 970.506 232.005 988.548 244.839H1021.25C1092.61 244.839 1082.7 389.822 1082.7 389.822H1039.38C1039.94 386.274 1040.24 382.619 1040.24 378.885C1040.24 345.311 1016.62 318.093 987.49 318.093C958.358 318.093 934.745 345.31 934.745 378.885C934.745 382.619 935.039 386.274 935.597 389.822H611.609C610.272 388.923 610.38 390.851 610.448 388.409C610.493 386.873 610.514 384.007 610.514 378.885C610.514 337.023 580.834 318.216 554.942 319.758C528.746 321.318 506.335 343.677 506.335 378.885C506.335 397.539 506.629 386.274 507.19 389.822H488.394C494.162 345.667 513.378 296.611 558.692 278.298C614.073 255.915 650.213 245.232 650.213 245.232H452.658C457.013 244.655 459.512 244.33 459.512 244.33Z" fill="#5B627F"/>
<path fill-rule="evenodd" clip-rule="evenodd" d="M1082.93 359.053C1083.57 377.032 1082.7 389.821 1082.7 389.821H1039.38C1039.94 386.273 1040.24 382.618 1040.24 378.884C1040.24 345.31 1016.62 318.092 987.491 318.092C958.359 318.092 934.746 345.309 934.746 378.884C934.746 382.618 935.04 386.273 935.598 389.821H611.337C610.504 389.821 610.393 389.905 610.431 388.986C610.487 387.642 610.515 384.733 610.515 378.884C610.515 337.022 580.836 318.215 554.944 319.757C528.748 321.317 506.336 343.676 506.336 378.884C506.336 397.538 506.631 386.273 507.192 389.821H488.396C490.462 374.015 494.249 357.584 500.34 342.158C536.311 282.706 609.135 298.507 628.906 355.71C629.673 357.93 638.482 357.888 646.076 358.11C712.508 360.055 916.32 359.929 916.32 359.929C916.32 359.929 932.068 297.907 987.625 300.861C1043.18 303.815 1053.09 341.801 1055 354.022C1056.9 366.244 1070.25 361.94 1082.93 359.053Z" fill="#97A0BD"/>
<path fill-rule="evenodd" clip-rule="evenodd" d="M472.728 244.975C643.625 244.975 649.953 244.975 649.953 244.975C678.689 199.336 723.028 169.177 722.743 169.177C701.908 169.177 643.097 169.177 601.429 169.177C582.574 169.177 568.757 179.703 553.052 190.248C524.872 209.171 500.909 226.052 472.728 244.975Z" fill="#2E2B37"/>
<path fill-rule="evenodd" clip-rule="evenodd" d="M314 292.289H433.841C439.321 292.289 446.025 297.067 443.809 301.903L435.834 319.302C433.619 324.136 431.348 328.915 425.866 328.915H320.481C314.999 328.915 312.364 324.279 310.513 319.302L304.033 301.903C302.181 296.926 308.517 292.289 314 292.289Z" fill="#2E2B37"/>
<path fill-rule="evenodd" clip-rule="evenodd" d="M304.285 376.101H452.62C455.244 376.101 458.452 373.813 457.392 371.501L453.574 363.172C452.514 360.858 451.426 358.571 448.804 358.571H307.387C304.766 358.571 303.503 360.79 302.616 363.172L299.513 371.501C298.627 373.882 301.661 376.101 304.285 376.101Z" fill="#2E2B37"/>
<path fill-rule="evenodd" clip-rule="evenodd" d="M275.164 328.915H294.049C299.532 328.915 306.633 324.601 304.825 320.237L298.314 304.527C296.505 300.163 294.635 295.849 289.155 295.849H275.663C275.284 297.044 275.165 297.746 275.165 297.746V328.915H275.164Z" fill="white"/>
<path fill-rule="evenodd" clip-rule="evenodd" d="M454.382 328.915H481.907C497.677 328.431 506.84 313.425 510.762 303.55C514.144 295.031 512.577 295.247 503.388 295.409C498.611 295.493 494.937 295.849 493.08 295.849H463.94C458.462 295.849 455.434 300.034 453.164 304.527L445.222 320.236C442.952 324.729 448.901 328.915 454.382 328.915Z" fill="#D8D8D8"/>
<path fill-rule="evenodd" clip-rule="evenodd" d="M510.088 295.547C508.621 295.297 506.418 295.356 503.388 295.409C498.611 295.493 494.937 295.849 493.08 295.849H463.94C458.462 295.849 455.434 300.034 453.164 304.527L445.44 319.807C447.324 321.486 450.257 322.587 453.07 322.587H480.594C496.364 322.102 505.527 307.096 509.45 297.221C509.688 296.619 509.9 296.065 510.088 295.547Z" fill="white"/>
<path fill-rule="evenodd" clip-rule="evenodd" d="M294.715 371.501L298.533 363.172C299.593 360.858 296.385 358.571 293.761 358.571H284.518H275.163V376.103H282.605H289.944C292.567 376.103 293.655 373.813 294.715 371.501Z" fill="#2E2B37"/>
<path fill-rule="evenodd" clip-rule="evenodd" d="M458.631 363.172L461.733 371.501C462.618 373.882 463.881 376.102 466.502 376.102H479.722H482.457C487.851 376.124 486.911 373.79 489.236 361.667C489.963 357.866 489.78 358.571 485.792 358.571H481.635H463.403C460.779 358.571 457.745 360.792 458.631 363.172Z" fill="#2E2B37"/>
<path fill-rule="evenodd" clip-rule="evenodd" d="M317.098 299.593H431.247C432.47 299.593 433.466 300.556 433.466 301.732V301.734C433.466 302.911 432.47 303.875 431.247 303.875H317.098C315.878 303.875 314.88 302.911 314.88 301.734V301.732C314.879 300.555 315.878 299.593 317.098 299.593Z" fill="white"/>
<path fill-rule="evenodd" clip-rule="evenodd" d="M321.537 308.46H426.81C428.03 308.46 429.029 309.423 429.029 310.6V310.602C429.029 311.779 428.03 312.742 426.81 312.742H321.537C320.317 312.742 319.319 311.779 319.319 310.602V310.6C319.319 309.424 320.318 308.46 321.537 308.46Z" fill="white"/>
<path fill-rule="evenodd" clip-rule="evenodd" d="M325.977 317.33H422.37C423.59 317.33 424.588 318.292 424.588 319.47V319.472C424.588 320.648 423.59 321.611 422.37 321.611H325.977C324.755 321.611 323.757 320.648 323.757 319.472V319.47C323.757 318.292 324.755 317.33 325.977 317.33Z" fill="white"/>
<path fill-rule="evenodd" clip-rule="evenodd" d="M288.026 279.352C287.508 279.118 287.284 278.525 287.527 278.025C287.77 277.527 288.385 277.312 288.902 277.544C292.302 279.077 297.513 280.179 305.095 280.903C312.738 281.632 322.786 281.969 335.805 281.969H525.42L525.548 281.976C526.975 282.044 548.309 282.898 565.859 274.434C566.37 274.186 566.992 274.386 567.249 274.879C567.503 275.372 567.296 275.972 566.785 276.217C548.738 284.92 526.871 284.039 525.442 283.972H335.804C322.762 283.972 312.648 283.629 304.89 282.888C297.072 282.143 291.644 280.983 288.026 279.352Z" fill="#97A0BD"/>
<path fill-rule="evenodd" clip-rule="evenodd" d="M336.131 336.12H411.572C413.849 336.12 415.707 337.915 415.707 340.107V349.872C415.707 352.066 413.849 353.858 411.572 353.858H336.131C333.858 353.858 331.997 352.066 331.997 349.872V340.107C331.997 337.915 333.858 336.12 336.131 336.12Z" fill="#2E2B37"/>
<path fill-rule="evenodd" clip-rule="evenodd" d="M580.27 227.618C640.376 227.618 640.324 224.002 691.247 169.177C672.549 169.177 618.165 169.177 601.429 169.177C582.574 169.177 568.757 179.703 553.052 190.248C533.727 203.226 516.381 215.243 498.302 227.617C516.643 227.618 520.164 227.618 580.27 227.618Z" fill="#44424E"/>
<path fill-rule="evenodd" clip-rule="evenodd" d="M491.568 386.732C491.514 387.28 491.008 387.683 490.44 387.632C489.87 387.58 489.453 387.093 489.507 386.543C491.036 371.051 496.696 343.498 510.887 319.406C520.4 303.258 533.743 288.653 552.241 280.228C597.973 259.401 647.69 245.351 647.833 245.311C648.382 245.157 648.957 245.459 649.119 245.987C649.279 246.517 648.966 247.072 648.417 247.227C648.274 247.269 598.715 261.272 553.127 282.036C535.067 290.262 522.011 304.564 512.689 320.392C498.671 344.189 493.078 371.42 491.568 386.732Z" fill="#97A0BD"/>
<path fill-rule="evenodd" clip-rule="evenodd" d="M502.091 318.284C494.284 313.525 489.074 305.268 488.921 295.849H478.493C485.611 300.791 490.235 308.774 490.235 317.781C490.235 321.356 489.504 324.773 488.182 327.901C493.848 326.199 498.455 322.554 502.091 318.284Z" fill="#D8D8D8"/>
<path fill-rule="evenodd" clip-rule="evenodd" d="M620.914 381.158H922.365C924.835 381.158 926.858 383.109 926.858 385.492V396.396C926.858 398.78 924.835 400.73 922.365 400.73H620.914C618.441 400.73 616.42 398.78 616.42 396.396V385.492C616.42 383.109 618.441 381.158 620.914 381.158Z" fill="#5B627F"/>
<path fill-rule="evenodd" clip-rule="evenodd" d="M659.57 261.445C657.707 261.398 655.886 261.354 653.973 261.305C639.891 260.949 631.157 262.768 617.831 263.735V263.732C629.154 257.91 641.855 256.559 653.987 256.161C725.75 253.817 897.879 252.818 969.675 252.22L969.645 257.779C895.615 258.362 735.08 259.321 659.57 261.445Z" fill="#717EA4"/>
<path fill-rule="evenodd" clip-rule="evenodd" d="M442.429 381.158H489.276C491.75 381.158 493.77 383.109 493.77 385.492V396.396C493.77 398.78 491.75 400.73 489.276 400.73H442.429C439.958 400.73 437.935 398.78 437.935 396.396V385.492C437.934 383.109 439.958 381.158 442.429 381.158Z" fill="#97A0BD"/>
<path fill-rule="evenodd" clip-rule="evenodd" d="M273.847 381.158H309.481C311.951 381.158 313.975 383.109 313.975 385.492V396.396C313.975 398.78 311.951 400.73 309.481 400.73H273.847C271.374 400.73 269.353 398.78 269.353 396.396V385.492C269.352 383.109 271.374 381.158 273.847 381.158Z" fill="#97A0BD"/>
<path fill-rule="evenodd" clip-rule="evenodd" d="M308.249 371.122H450.312C451.115 371.122 451.775 370.488 451.775 369.711C451.775 368.937 451.115 368.302 450.312 368.302H308.249C307.443 368.302 306.786 368.937 306.786 369.711C306.786 370.488 307.443 371.122 308.249 371.122ZM312.21 365.279H446.35C447.154 365.279 447.813 364.646 447.813 363.868C447.813 363.094 447.154 362.458 446.35 362.458H312.21C311.405 362.458 310.748 363.094 310.748 363.868C310.748 364.644 311.405 365.279 312.21 365.279Z" fill="#44424E"/>
<path fill-rule="evenodd" clip-rule="evenodd" d="M294.049 321.743H275.164V328.914H294.049C299.532 328.914 306.633 324.6 304.825 320.236L303.744 317.629C301.649 320.01 297.522 321.743 294.049 321.743Z" fill="#D8D8D8"/>
<path fill-rule="evenodd" clip-rule="evenodd" d="M335.804 130.976C385.269 130.976 525.419 130.976 525.419 130.976C534.751 129.441 550.183 135.815 558.694 145.123L650.215 245.232H452.658L306.55 148.147L288.464 144.668C295.48 135.091 309.744 130.976 335.804 130.976Z" fill="#5B627F"/>
<path fill-rule="evenodd" clip-rule="evenodd" d="M624.209 249.346H452.95C428.893 252.537 404.846 255.909 380.859 259.556C366.734 261.705 352.602 263.945 338.543 266.47C332.838 267.496 327.134 268.568 321.467 269.766C317.435 270.619 313.32 271.528 309.367 272.685C305.639 273.777 301.979 275.177 298.533 276.95C300.95 277.347 303.364 277.607 305.413 277.802C315.409 278.756 325.764 278.857 335.804 278.857C399.008 278.857 462.214 278.857 525.419 278.857C525.502 278.857 525.572 278.859 525.655 278.864C528.743 279.03 532.116 278.886 535.191 278.673C542.199 278.188 549.325 277.017 556.015 274.927C556.357 274.783 556.701 274.643 557.045 274.505C558.551 273.896 560.06 273.289 561.569 272.685C582.042 263.907 603.044 256.402 624.209 249.346Z" fill="#44424E"/>
<path fill-rule="evenodd" clip-rule="evenodd" d="M451.854 256.188H521.377C524.425 256.188 526.917 258.592 526.917 261.53V273.856H446.314V261.53C446.315 258.593 448.807 256.188 451.854 256.188Z" fill="#1B1B23"/>
<path fill-rule="evenodd" clip-rule="evenodd" d="M525.419 130.976C525.419 130.976 373.565 130.976 335.804 130.976C298.041 130.976 292.55 136.653 286.632 147.569L304.511 147.756L524.044 147.569C527.617 140.979 531.037 136.3 541.491 133.626C535.686 131.308 529.861 130.245 525.419 130.976Z" fill="#717EA4"/>
<path fill-rule="evenodd" clip-rule="evenodd" d="M431.688 256.188H501.213C504.259 256.188 506.751 258.592 506.751 261.53V273.856H426.147V261.53C426.148 258.593 428.64 256.188 431.688 256.188Z" fill="#2E2B37"/>
<path fill-rule="evenodd" clip-rule="evenodd" d="M423.675 261.488H509.223C510.032 261.488 510.691 262.123 510.691 262.901V262.903C510.691 263.68 510.032 264.316 509.223 264.316H423.675C422.871 264.316 422.21 263.68 422.21 262.903V262.901C422.21 262.124 422.871 261.488 423.675 261.488Z" fill="#2E2B37"/>
<path fill-rule="evenodd" clip-rule="evenodd" d="M423.675 267.596H509.223C510.032 267.596 510.691 268.232 510.691 269.009C510.691 269.786 510.032 270.423 509.223 270.423H423.675C422.871 270.423 422.21 269.786 422.21 269.009C422.21 268.232 422.871 267.596 423.675 267.596Z" fill="#2E2B37"/>
<path fill-rule="evenodd" clip-rule="evenodd" d="M560.334 249.346C559.381 262.478 553.108 272.855 526.917 273.618V273.857H506.751H446.315H426.148V273.665C378.026 273.665 326.842 273.665 306.291 273.665C303.63 274.58 301.025 275.668 298.533 276.951C300.95 277.348 303.364 277.608 305.413 277.803C315.409 278.757 325.764 278.857 335.804 278.857C399.008 278.857 462.214 278.857 525.419 278.857C525.502 278.857 525.572 278.86 525.655 278.864C528.743 279.03 532.116 278.887 535.191 278.674C542.199 278.189 549.325 277.018 556.015 274.928C556.357 274.784 556.701 274.644 557.045 274.505C558.551 273.897 560.06 273.29 561.569 272.686C582.042 263.908 603.045 256.403 624.209 249.347H560.334V249.346Z" fill="#1B1B23"/>
<path fill-rule="evenodd" clip-rule="evenodd" d="M541.753 150.907C541.325 150.448 541.283 149.652 541.657 149.128C542.032 148.604 542.684 148.551 543.113 149.009L623.715 235.168C624.146 235.626 624.188 236.422 623.813 236.946C623.439 237.47 622.784 237.523 622.355 237.065L541.753 150.907Z" fill="#97A0BD"/>
<path fill-rule="evenodd" clip-rule="evenodd" d="M337.761 156.421C337.259 156.084 337.073 155.314 337.346 154.703C337.619 154.091 338.25 153.867 338.753 154.203L459.762 235.675C460.266 236.012 460.45 236.781 460.176 237.393C459.903 238.005 459.275 238.227 458.773 237.892L337.761 156.421Z" fill="#97A0BD"/>
<path fill-rule="evenodd" clip-rule="evenodd" d="M433.019 257.955H497.916C498.724 257.955 499.382 258.59 499.382 259.368C499.382 260.145 498.725 260.781 497.916 260.781H433.019C432.214 260.781 431.553 260.146 431.553 259.368C431.553 258.591 432.213 257.955 433.019 257.955Z" fill="#44424E"/>
<path fill-rule="evenodd" clip-rule="evenodd" d="M433.019 263.961H497.916C498.724 263.961 499.382 264.598 499.382 265.374V265.376C499.382 266.153 498.725 266.788 497.916 266.788H433.019C432.214 266.788 431.553 266.153 431.553 265.376V265.374C431.553 264.598 432.213 263.961 433.019 263.961Z" fill="#44424E"/>
<path fill-rule="evenodd" clip-rule="evenodd" d="M433.019 270.852H497.916C498.724 270.852 499.382 271.488 499.382 272.265V272.266C499.382 273.043 498.725 273.68 497.916 273.68H433.019C432.214 273.68 431.553 273.044 431.553 272.266V272.265C431.553 271.488 432.213 270.852 433.019 270.852Z" fill="#44424E"/>
<path fill-rule="evenodd" clip-rule="evenodd" d="M319.611 149.607C319.611 148.533 320.541 147.663 321.688 147.663C322.835 147.663 323.766 148.533 323.766 149.607V276.303C323.766 277.377 322.835 278.247 321.688 278.247C320.541 278.247 319.611 277.377 319.611 276.303V149.607Z" fill="#1B1B23"/>
</g>
<path fill-rule="evenodd" clip-rule="evenodd" d="M512.457 223.037C511.898 228.496 513.763 233.105 516.139 235.087C519.563 237.948 525.336 238.448 531.112 234.843C542.726 227.594 549.427 207.852 549.427 207.852L528.436 194.554C521.248 206.759 513.538 212.481 512.457 223.037Z" fill="#AB6549"/>
<path fill-rule="evenodd" clip-rule="evenodd" d="M525.351 221.546C521.337 228.194 516.913 229.98 511.357 223.331C510.592 222.416 514.532 213.859 514.266 212.961C512.601 207.336 516.398 209.24 516.398 209.24L525.351 221.546Z" fill="#B6473D"/>
<path fill-rule="evenodd" clip-rule="evenodd" d="M533.422 204.42C533 204.423 529.592 201.977 529.62 201.646C531.799 176.977 552.404 165.326 576.562 165.052C610.342 164.67 622.783 183.415 626.914 195.475C628.864 201.171 617.933 203.622 617.55 203.625L533.422 204.42Z" fill="#B6473D"/>
<path fill-rule="evenodd" clip-rule="evenodd" d="M608.145 199.012L606.367 258.968L547.67 259.89L544.181 199.012C557.948 201.538 554.639 186.989 556.198 168.171C558.756 167.374 561.382 166.736 564.041 166.244C563.573 171.908 563.104 177.57 562.636 183.232C562.218 188.258 563.227 189.701 566.133 190.105C569.735 190.605 584.581 190.788 587.101 190.051C589.628 189.311 590.476 187.74 590.585 184.01L588.66 165.724C591.321 166.166 593.956 166.759 596.534 167.502C598.41 185.044 597.985 198.182 608.145 199.012Z" fill="#2E2B37"/>
<path fill-rule="evenodd" clip-rule="evenodd" d="M593.005 200.501C593.651 200.501 594.172 201.005 594.172 201.626C594.172 202.247 593.651 202.751 593.005 202.751H559.55C558.904 202.751 558.382 202.246 558.382 201.626C558.382 201.005 558.904 200.501 559.55 200.501H593.005Z" fill="#52535A"/>
<path fill-rule="evenodd" clip-rule="evenodd" d="M593.269 202.704C593.274 202.549 593.411 202.427 593.571 202.431C593.733 202.435 593.86 202.567 593.856 202.722C593.79 204.692 593.79 206.491 593.79 208.141C593.792 214.951 593.792 219.242 589.274 222.012C588.937 222.219 588.551 222.433 588.11 222.616C587.67 222.798 587.187 222.949 586.662 223.023C579.05 224.103 566.329 223.106 566.293 223.104C566.131 223.091 566.01 222.954 566.025 222.798C566.037 222.643 566.18 222.527 566.341 222.539C566.379 222.541 579.034 223.532 586.575 222.462C587.051 222.395 587.487 222.262 587.88 222.097C588.273 221.933 588.636 221.731 588.961 221.532C593.208 218.929 593.205 214.758 593.205 208.139C593.205 206.484 593.205 204.674 593.269 202.704Z" fill="#52535A"/>
<path fill-rule="evenodd" clip-rule="evenodd" d="M558.699 202.723C558.694 202.568 558.819 202.436 558.982 202.432C559.145 202.427 559.279 202.549 559.283 202.705C559.35 204.675 559.35 206.484 559.347 208.142C559.347 214.761 559.347 218.931 563.594 221.536C564.871 222.319 566.932 222.513 569.295 222.737L569.641 222.769C570.468 222.847 571.332 222.904 572.213 222.944C573.179 222.987 574.159 223.009 575.126 223.014C575.289 223.015 575.419 223.142 575.419 223.297C575.419 223.453 575.287 223.578 575.124 223.578C574.14 223.573 573.15 223.55 572.188 223.508C571.301 223.468 570.428 223.411 569.585 223.331L569.241 223.298C566.8 223.067 564.671 222.866 563.279 222.013C558.762 219.243 558.762 214.952 558.763 208.141C558.763 206.491 558.763 204.691 558.699 202.723Z" fill="#52535A"/>
<path fill-rule="evenodd" clip-rule="evenodd" d="M597.535 185.177C597.542 185.022 597.681 184.903 597.841 184.912C598.001 184.92 598.124 185.053 598.114 185.207C597.996 187.231 597.082 188.424 595.922 188.952C595.406 189.187 594.84 189.288 594.278 189.27C593.718 189.252 593.156 189.116 592.643 188.878C591.39 188.297 590.405 187.103 590.373 185.514C590.37 185.359 590.499 185.232 590.66 185.229C590.82 185.227 590.952 185.351 590.954 185.506C590.983 186.86 591.821 187.877 592.896 188.373C593.336 188.578 593.817 188.694 594.297 188.71C594.771 188.725 595.244 188.64 595.675 188.445C596.656 187.999 597.428 186.961 597.535 185.177Z" fill="#52535A"/>
<path fill-rule="evenodd" clip-rule="evenodd" d="M554.978 185.207C554.968 185.053 555.093 184.92 555.253 184.912C555.414 184.903 555.55 185.022 555.56 185.177C555.664 186.96 556.436 187.999 557.418 188.445C557.849 188.64 558.322 188.724 558.796 188.709C559.277 188.694 559.758 188.578 560.2 188.373C561.271 187.877 562.113 186.859 562.139 185.504C562.143 185.35 562.276 185.227 562.435 185.229C562.595 185.233 562.724 185.361 562.72 185.515C562.688 187.104 561.706 188.297 560.45 188.878C559.936 189.116 559.376 189.252 558.815 189.27C558.253 189.287 557.687 189.187 557.171 188.951C556.011 188.425 555.097 187.231 554.978 185.207Z" fill="#52535A"/>
<path fill-rule="evenodd" clip-rule="evenodd" d="M594.079 186.701C594.915 186.701 595.598 186.041 595.598 185.233C595.598 184.424 594.915 183.765 594.079 183.765C593.241 183.765 592.555 184.424 592.555 185.233C592.555 186.041 593.241 186.701 594.079 186.701Z" fill="#52535A"/>
<path fill-rule="evenodd" clip-rule="evenodd" d="M558.684 186.701C559.521 186.701 560.205 186.041 560.205 185.233C560.205 184.424 559.521 183.765 558.684 183.765C557.845 183.765 557.161 184.424 557.161 185.233C557.161 186.041 557.845 186.701 558.684 186.701Z" fill="#52535A"/>
<path fill-rule="evenodd" clip-rule="evenodd" d="M627.32 202.136C629.475 210.922 630.079 219.3 630.34 224.945C623.879 219.228 613.409 216.565 606.664 217.913L606.493 205.611L627.32 202.136Z" fill="#AB6549"/>
<path fill-rule="evenodd" clip-rule="evenodd" d="M526.716 204.826C543.378 206.47 550.027 208.718 550.027 208.718C550.027 208.718 551.501 202.788 552.414 196.256C553.343 189.601 555.291 182.108 553.199 177.295C552.384 175.419 557.277 168.541 555.461 168.783C543.809 170.336 530.629 171.739 526.716 204.826Z" fill="#B6473D"/>
<path fill-rule="evenodd" clip-rule="evenodd" d="M628.642 204.409C612.873 206.448 604.949 208.388 604.949 208.388C604.949 208.388 598.772 187.02 602.573 177.295C603.304 175.418 595.415 167.954 597.231 167.987C611.332 168.252 624.27 171.321 628.642 204.409Z" fill="#B6473D"/>
<path fill-rule="evenodd" clip-rule="evenodd" d="M551.36 204.743C550.082 210.556 550.082 210.556 550.082 210.556L524.846 204.793L526.669 198.971L551.36 204.743Z" fill="#6B8789"/>
<path fill-rule="evenodd" clip-rule="evenodd" d="M551.37 204.236C551.527 204.272 551.622 204.423 551.584 204.574C551.549 204.724 551.392 204.818 551.236 204.782L527.915 199.406C527.758 199.37 527.664 199.218 527.698 199.068C527.737 198.918 527.893 198.824 528.049 198.86L551.37 204.236Z" fill="#2E2B37"/>
<path fill-rule="evenodd" clip-rule="evenodd" d="M603.835 204.743C605.114 210.556 605.114 210.556 605.114 210.556L630.349 204.793L628.526 198.971L603.835 204.743Z" fill="#B6473D"/>
<path fill-rule="evenodd" clip-rule="evenodd" d="M603.96 204.782C603.805 204.818 603.646 204.724 603.611 204.574C603.573 204.424 603.669 204.272 603.825 204.236L627.146 198.86C627.301 198.824 627.459 198.918 627.497 199.068C627.532 199.218 627.438 199.37 627.28 199.406L603.96 204.782Z" fill="#2E2B37"/>
<path fill-rule="evenodd" clip-rule="evenodd" d="M601.911 199.529C601.92 199.683 601.8 199.816 601.64 199.826C601.478 199.836 601.341 199.718 601.329 199.564L600.443 186.036C600.439 185.992 600.448 185.95 600.465 185.912L602.803 179.482C602.857 179.336 603.023 179.26 603.175 179.311C603.326 179.361 603.406 179.521 603.352 179.667L601.028 186.056L601.911 199.529Z" fill="#2E2B37"/>
<path fill-rule="evenodd" clip-rule="evenodd" d="M552.684 199.563C552.672 199.718 552.536 199.835 552.376 199.826C552.213 199.815 552.093 199.682 552.103 199.528L552.986 186.055L550.659 179.666C550.607 179.52 550.687 179.36 550.838 179.31C550.99 179.259 551.156 179.336 551.21 179.481L553.549 185.911C553.566 185.949 553.574 185.992 553.57 186.036L552.684 199.563Z" fill="#2E2B37"/>
<path fill-rule="evenodd" clip-rule="evenodd" d="M588.768 169.816C588.803 169.665 588.961 169.571 589.117 169.605C589.274 169.641 589.371 169.791 589.336 169.943C588.639 172.822 586.239 174.913 583.17 176.141C580.975 177.017 578.431 177.455 575.93 177.422C573.423 177.39 570.953 176.884 568.911 175.88C566.357 174.624 564.461 172.592 563.966 169.727C563.941 169.573 564.049 169.429 564.207 169.403C564.364 169.378 564.515 169.481 564.541 169.634C565.003 172.301 566.778 174.199 569.174 175.378C571.138 176.344 573.517 176.83 575.936 176.862C578.359 176.894 580.824 176.471 582.946 175.622C585.852 174.46 588.12 172.5 588.768 169.816Z" fill="#20201E"/>
<path fill-rule="evenodd" clip-rule="evenodd" d="M575.025 203.283C576.591 205.208 578.195 207.596 578.761 209.358C579.692 212.266 570.794 207.242 570.003 205.311C569.874 204.997 559.235 207.935 560.283 205.629C563.152 199.314 569.965 197.071 575.025 203.283Z" fill="#B6473D"/>
<path fill-rule="evenodd" clip-rule="evenodd" d="M577.38 189.216C576.692 188.647 575.648 188.722 575.057 189.385L552.112 215.115C551.52 215.777 551.601 216.784 552.286 217.354V217.354C552.974 217.924 554.018 217.849 554.609 217.186L577.554 191.455C578.146 190.793 578.065 189.786 577.38 189.216Z" fill="white"/>
<path fill-rule="evenodd" clip-rule="evenodd" d="M629.963 233.846C628.025 238.654 618.262 239.559 611.64 238.426C600.886 236.581 588.655 229.093 580.143 223.116C575.392 219.781 569.422 217.462 563.677 216.385C559.859 215.671 557.944 215.642 555.627 211.994C555.067 211.114 557.89 209.562 556.396 209.836C554.906 210.109 551.099 208.769 551.921 207.478C552.59 206.429 566.843 204.082 569.735 202.809C572.581 201.557 575.843 205.054 577.388 207.007C580.315 208.194 598.673 211.909 607.244 213.09C614.871 214.142 625.276 212.164 629.197 219.954C630.63 222.803 630.806 231.759 629.963 233.846Z" fill="#AB6549"/>
<path fill-rule="evenodd" clip-rule="evenodd" d="M578.642 223.095C575.87 221.106 572.823 219.357 569.567 218.188C567.431 217.421 563.391 217.538 561.092 217.368C557.217 217.081 557.943 215.642 555.626 211.994C555.066 211.114 557.889 209.562 556.396 209.836C554.905 210.109 551.098 208.769 551.921 207.478C552.589 206.429 566.842 204.082 569.734 202.809C572.58 201.557 575.842 204.757 577.387 206.71C578.381 207.113 582.7 208.006 586.267 208.795C586.239 214.217 583.055 220.863 578.642 223.095Z" fill="#B6473D"/>
<path fill-rule="evenodd" clip-rule="evenodd" d="M569.551 202.574C569.702 202.524 569.869 202.601 569.92 202.749C569.972 202.896 569.893 203.056 569.739 203.105C566.747 204.101 561.439 205.244 561.425 205.247C561.268 205.28 561.112 205.184 561.078 205.033C561.043 204.884 561.142 204.733 561.299 204.699C561.314 204.696 566.576 203.563 569.551 202.574Z" fill="#2E2B37"/>
<path fill-rule="evenodd" clip-rule="evenodd" d="M620.501 216.268C620.626 216.365 620.646 216.542 620.544 216.662C620.442 216.782 620.258 216.8 620.134 216.703C617.392 214.554 612.83 213.946 608.641 213.388C607.891 213.287 607.152 213.189 606.488 213.092C606.328 213.069 606.219 212.926 606.243 212.772C606.266 212.619 606.415 212.513 606.575 212.535C607.307 212.644 608.009 212.737 608.72 212.832C612.988 213.4 617.63 214.018 620.501 216.268Z" fill="#2E2B37"/>
<path fill-rule="evenodd" clip-rule="evenodd" d="M548.706 182.374C535.603 182.374 522.503 182.374 509.403 182.374C506.195 182.374 505.792 182.921 506.882 185.856C512.859 201.924 518.835 217.99 524.813 234.056C526.473 238.517 526.586 238.799 531.524 238.799C543.286 238.799 555.051 238.799 566.813 238.799C572.425 238.799 572.252 238.661 570.37 233.596C564.302 217.288 558.235 200.981 552.171 184.673C551.657 183.293 550.218 182.374 548.706 182.374Z" fill="#C07452"/>
<path fill-rule="evenodd" clip-rule="evenodd" d="M570.189 238.285C570.231 238.433 570.141 238.589 569.986 238.629C569.833 238.67 569.671 238.582 569.629 238.434C569.447 237.802 569.15 237.003 568.776 235.995L550.458 186.753C550.225 186.126 549.78 185.602 549.224 185.233C548.657 184.856 547.971 184.64 547.267 184.64H507.96C507.678 184.64 507.431 184.644 507.226 184.652C507.005 184.66 506.802 184.673 506.611 184.693C506.453 184.71 506.307 184.597 506.291 184.444C506.274 184.289 506.39 184.151 506.55 184.134C506.743 184.115 506.963 184.1 507.2 184.092L507.202 184.091C507.457 184.082 507.709 184.078 507.961 184.078H547.268C548.087 184.078 548.891 184.33 549.554 184.772C550.209 185.206 550.729 185.823 551.005 186.565L569.322 235.807C569.701 236.828 570.005 237.641 570.189 238.285Z" fill="#582222"/>
<path fill-rule="evenodd" clip-rule="evenodd" d="M536.693 180.482H517.441L517.307 180.685L519.679 186.73L519.966 186.933H539.219L539.353 186.73L536.978 180.685L536.693 180.482Z" fill="#2E2B37"/>
<path fill-rule="evenodd" clip-rule="evenodd" d="M611.231 408.123C614.61 408.123 615.798 412.257 614.792 415.413C613.784 418.568 614.368 425.651 614.368 425.651C614.368 425.651 631.306 432.322 633.223 432.633C635.14 432.942 634.896 438.837 634.896 438.837L633.888 439.923C633.888 439.923 635.572 440.003 635.518 441.32C635.464 442.638 635.464 442.638 635.464 442.638L635.403 444.114H612.966L604.555 441.321L602.72 444.187H591.087C591.087 444.187 589.893 432.168 590.093 431.237C590.291 430.306 592.987 424.824 593.002 423.093C593.019 421.36 593.065 416.163 593.096 412.699C593.132 408.746 593.056 408.123 596.676 408.123H611.231Z" fill="#7A7C86"/>
<path fill-rule="evenodd" clip-rule="evenodd" d="M539.966 408.123C536.586 408.123 535.057 412.257 535.804 415.413C536.55 418.568 535.38 425.651 535.38 425.651C535.38 425.651 531.628 430.867 528.178 432.633C524.725 434.398 525.992 438.837 525.992 438.837L526.911 439.923C526.911 439.923 525.22 440.003 525.166 441.32C525.11 442.638 525.11 442.638 525.11 442.638L525.051 444.114C541.68 444.114 545.611 444.187 560.454 444.187C560.454 444.187 560.348 442.566 560.244 440.469C560.23 440.169 557.819 439.842 557.958 439.556C558.235 438.98 559.611 438.753 559.846 437.25C560.603 432.441 556.718 426.403 556.961 423.093C557.088 421.36 557.472 416.164 557.726 412.699C558.015 408.747 558.143 408.123 554.523 408.123L539.966 408.123Z" fill="#7A7C86"/>
<path fill-rule="evenodd" clip-rule="evenodd" d="M557.739 439.473C557.899 439.473 558.031 439.6 558.031 439.754C558.031 439.908 557.899 440.035 557.739 440.035H527.847C527.685 440.035 527.555 439.908 527.555 439.754C527.555 439.6 527.685 439.473 527.847 439.473H557.739Z" fill="#52535A"/>
<path fill-rule="evenodd" clip-rule="evenodd" d="M634.141 439.47C634.304 439.47 634.435 439.597 634.435 439.754C634.435 439.911 634.304 440.038 634.141 440.038H590.713C590.548 440.038 590.419 439.911 590.419 439.754C590.419 439.597 590.548 439.47 590.713 439.47H634.141Z" fill="#52535A"/>
<path fill-rule="evenodd" clip-rule="evenodd" d="M604.511 241.131C603.995 241.845 606.949 249.627 608.412 255.004C608.956 257.01 613.82 259.433 614.11 261.848C616.96 285.589 622.81 331.032 623.611 338.943C623.844 341.233 622.137 409.23 622.137 409.23C622.137 409.23 621.134 418.391 615.552 421.337C609.967 424.282 593.675 421.337 593.675 421.337C593.675 421.337 588.14 414.793 588.218 412.83C588.293 410.865 584.654 364.075 584.743 361.785C584.833 359.492 589.075 341.888 589.075 341.888L577.576 298.504L575.558 298.004L565.414 343.031L566.789 358.38L563.963 416.103L557.359 420.357H536.77L530.632 412.83C531.391 371.858 529.144 338.186 535.211 297.116C536.198 290.422 537.147 268.235 538.646 261.594C539.124 259.466 542.802 257.513 543.24 255.786C544.392 251.248 547.014 244.596 547.756 244.55L604.511 241.131Z" fill="#2E2B37"/>
<path fill-rule="evenodd" clip-rule="evenodd" d="M612.175 259.136C612.291 259.245 612.295 259.423 612.185 259.534C612.073 259.646 611.888 259.648 611.772 259.541L602.476 250.911C602.361 250.804 602.358 250.627 602.469 250.515C602.58 250.404 602.764 250.4 602.881 250.506L612.175 259.136Z" fill="#52535A"/>
<path fill-rule="evenodd" clip-rule="evenodd" d="M540.827 259.282C540.709 259.39 540.526 259.386 540.414 259.275C540.304 259.163 540.306 258.985 540.422 258.878L549.718 250.249C549.834 250.14 550.02 250.144 550.13 250.256C550.241 250.368 550.237 250.544 550.124 250.654L540.827 259.282Z" fill="#52535A"/>
<path fill-rule="evenodd" clip-rule="evenodd" d="M602.01 244.399C602.165 244.362 602.323 244.454 602.361 244.605C602.399 244.757 602.303 244.907 602.147 244.943C576.054 251.099 548.96 244.997 548.883 244.98C548.728 244.945 548.629 244.796 548.663 244.643C548.699 244.493 548.857 244.397 549.012 244.432C549.09 244.45 576.054 250.523 602.01 244.399Z" fill="#52535A"/>
<path fill-rule="evenodd" clip-rule="evenodd" d="M601.489 240.091C601.642 240.044 601.807 240.122 601.859 240.271C601.906 240.42 601.824 240.579 601.671 240.626C580.752 247.175 549.489 241.851 549.396 241.834C549.238 241.809 549.129 241.662 549.158 241.51C549.184 241.356 549.337 241.251 549.495 241.278C549.585 241.293 580.713 246.597 601.489 240.091Z" fill="#52535A"/>
<path fill-rule="evenodd" clip-rule="evenodd" d="M580.765 296.964C580.92 296.998 581.019 297.148 580.984 297.3C580.948 297.449 580.793 297.546 580.637 297.512C571.461 295.499 561.403 293.832 561.372 293.827C561.215 293.8 561.109 293.654 561.137 293.501C561.165 293.348 561.316 293.246 561.474 293.273C561.502 293.277 571.543 294.941 580.765 296.964Z" fill="#52535A"/>
<path fill-rule="evenodd" clip-rule="evenodd" d="M619.533 345.165C619.689 345.129 619.847 345.224 619.883 345.375C619.918 345.526 619.821 345.677 619.665 345.712C612.232 347.386 603.243 345.344 599.92 344.591L599.162 344.42C599.004 344.387 598.905 344.237 598.94 344.085C598.976 343.935 599.131 343.839 599.287 343.873L600.052 344.043C603.34 344.789 612.234 346.807 619.533 345.165Z" fill="#52535A"/>
<path fill-rule="evenodd" clip-rule="evenodd" d="M616.688 348.534C616.839 348.484 617.006 348.562 617.058 348.707C617.11 348.853 617.03 349.014 616.879 349.064C614.77 349.77 612.245 350.013 609.843 350.013C605.99 350.013 602.424 349.39 601.411 349.066C601.258 349.018 601.175 348.859 601.225 348.712C601.277 348.565 601.443 348.485 601.595 348.533C602.577 348.846 606.056 349.451 609.843 349.451C612.194 349.45 614.653 349.216 616.688 348.534Z" fill="#52535A"/>
<path fill-rule="evenodd" clip-rule="evenodd" d="M555.193 345.165C555.35 345.129 555.506 345.224 555.541 345.375C555.579 345.526 555.481 345.677 555.325 345.712C547.894 347.386 538.905 345.344 535.582 344.591L534.821 344.42C534.666 344.387 534.566 344.237 534.6 344.085C534.635 343.935 534.79 343.839 534.946 343.873L535.713 344.043C538.999 344.789 547.894 346.807 555.193 345.165Z" fill="#52535A"/>
<path fill-rule="evenodd" clip-rule="evenodd" d="M552.347 348.534C552.5 348.484 552.665 348.562 552.717 348.707C552.771 348.853 552.691 349.014 552.538 349.064C550.432 349.77 547.908 350.013 545.502 350.013C541.651 350.013 538.083 349.39 537.07 349.066C536.919 349.018 536.835 348.859 536.886 348.712C536.936 348.565 537.101 348.485 537.254 348.533C538.236 348.846 541.715 349.451 545.502 349.451C547.853 349.45 550.315 349.216 552.347 348.534Z" fill="#52535A"/>
<path fill-rule="evenodd" clip-rule="evenodd" d="M535.964 430.461C535.641 430.461 535.379 430.209 535.379 429.898C535.379 429.586 535.64 429.334 535.964 429.334H551.464C551.787 429.334 552.048 429.586 552.048 429.898C552.048 430.209 551.787 430.461 551.464 430.461H535.964Z" fill="#52535A"/>
<path fill-rule="evenodd" clip-rule="evenodd" d="M538.227 427.814C537.905 427.814 537.643 427.563 537.643 427.251C537.643 426.94 537.904 426.688 538.227 426.688H551.464C551.786 426.688 552.048 426.939 552.048 427.251C552.048 427.562 551.787 427.814 551.464 427.814H538.227Z" fill="#52535A"/>
<path fill-rule="evenodd" clip-rule="evenodd" d="M538.708 425.168C538.385 425.168 538.124 424.916 538.124 424.605C538.124 424.294 538.384 424.042 538.708 424.042H551.464C551.786 424.042 552.048 424.294 552.048 424.605C552.048 424.916 551.787 425.168 551.464 425.168H538.708Z" fill="#52535A"/>
<path fill-rule="evenodd" clip-rule="evenodd" d="M617.209 432.441C616.976 432.654 616.608 432.647 616.384 432.424C616.163 432.202 616.17 431.845 616.401 431.631L620.693 427.629C620.923 427.413 621.293 427.42 621.517 427.645C621.738 427.868 621.732 428.224 621.5 428.438L617.209 432.441Z" fill="#52535A"/>
<path fill-rule="evenodd" clip-rule="evenodd" d="M614.048 431.07C613.817 431.285 613.448 431.279 613.224 431.055C613.002 430.831 613.009 430.477 613.24 430.261L617.423 426.36C617.653 426.146 618.023 426.153 618.245 426.377C618.469 426.599 618.462 426.956 618.228 427.171L614.048 431.07Z" fill="#52535A"/>
<path fill-rule="evenodd" clip-rule="evenodd" d="M610.977 430.036C610.746 430.252 610.376 430.245 610.152 430.021C609.931 429.797 609.938 429.443 610.168 429.227L614.564 425.13C614.795 424.915 615.164 424.923 615.386 425.146C615.609 425.368 615.603 425.725 615.372 425.939L610.977 430.036Z" fill="#52535A"/>
<path fill-rule="evenodd" clip-rule="evenodd" d="M521.643 217.647C521.608 215.877 518.715 211.445 518.715 211.445C518.715 211.445 523.757 206.271 523.525 204.359C523.292 202.448 520.562 203.485 520.562 203.485C520.562 203.485 522.554 201.886 521.412 200.443C520.27 199 518.619 200.297 518.619 200.297C518.619 200.297 521.206 197.486 519.272 196.935C517.336 196.385 513.346 199.291 511.572 201.763C510.931 202.659 510.55 203.318 510.323 203.797C510.02 205.937 509.655 205.531 510.971 209.438C512.288 213.345 513.956 218.269 513.956 218.269C517.671 225.899 521.678 219.419 521.643 217.647Z" fill="#B6473D"/>
<path fill-rule="evenodd" clip-rule="evenodd" d="M521.184 207.405C522.675 206.363 523.961 207.653 523.448 208.992C522.931 210.332 519.587 214.599 519.587 214.599C519.587 214.599 515.319 211.772 521.184 207.405Z" fill="#B6473D"/>
<path fill-rule="evenodd" clip-rule="evenodd" d="M522.215 206.571C522.352 206.49 522.531 206.532 522.613 206.664C522.698 206.796 522.653 206.969 522.517 207.05C519.377 208.905 517.664 211.189 517.66 211.196C517.563 211.32 517.379 211.345 517.252 211.251C517.125 211.16 517.099 210.983 517.194 210.86C517.2 210.853 518.977 208.485 522.215 206.571Z" fill="#2E2B37"/>
<path fill-rule="evenodd" clip-rule="evenodd" d="M520.369 203.341C520.508 203.264 520.687 203.311 520.767 203.445C520.847 203.581 520.797 203.752 520.658 203.829C517.474 205.584 515.815 207.959 515.81 207.965C515.719 208.09 515.537 208.12 515.406 208.031C515.276 207.941 515.246 207.766 515.337 207.64C515.342 207.633 517.071 205.158 520.369 203.341Z" fill="#2E2B37"/>
<path fill-rule="evenodd" clip-rule="evenodd" d="M518.666 199.773C518.803 199.692 518.982 199.736 519.064 199.867C519.148 199.999 519.104 200.172 518.967 200.251C515.628 202.203 514.125 204.377 514.12 204.382C514.033 204.512 513.853 204.548 513.719 204.464C513.585 204.381 513.547 204.206 513.632 204.077C513.637 204.07 515.212 201.791 518.666 199.773Z" fill="#2E2B37"/>
<path fill-rule="evenodd" clip-rule="evenodd" d="M594.822 137.031C592.783 137.042 590.65 139.612 590.054 142.775C589.461 145.937 590.631 148.493 592.669 148.483C594.706 148.473 596.84 145.902 597.433 142.74C598.029 139.578 596.859 137.022 594.822 137.031Z" fill="#AB6549"/>
<path fill-rule="evenodd" clip-rule="evenodd" d="M593.884 146.157C593.816 144.302 592.424 144.338 591.517 144.961C591.51 143.026 592.942 140.219 594.254 139.594C596.373 138.673 596.765 144.607 593.884 146.157Z" fill="#8E503D"/>
<path fill-rule="evenodd" clip-rule="evenodd" d="M595.619 140.5C595.683 140.613 595.824 140.652 595.935 140.591C596.047 140.528 596.088 140.386 596.025 140.274C595.753 139.781 595.435 139.491 595.096 139.362C594.696 139.212 594.278 139.288 593.876 139.528C593.504 139.748 593.141 140.113 592.809 140.564C591.945 141.743 591.281 143.557 591.286 144.96C591.286 145.089 591.389 145.193 591.516 145.193C591.566 145.193 591.61 145.178 591.645 145.152C591.937 144.954 592.279 144.821 592.597 144.809C592.757 144.803 592.911 144.827 593.047 144.889C593.179 144.949 593.299 145.047 593.396 145.189C593.542 145.404 593.636 145.722 593.653 146.163C593.657 146.292 593.766 146.393 593.893 146.388C594.02 146.383 594.119 146.275 594.114 146.147C594.095 145.608 593.97 145.211 593.777 144.925C593.628 144.708 593.445 144.557 593.238 144.463C593.033 144.37 592.809 144.334 592.58 144.343C592.309 144.353 592.026 144.429 591.765 144.551C591.871 143.311 592.45 141.836 593.181 140.84C593.475 140.436 593.793 140.116 594.112 139.928C594.397 139.759 594.676 139.701 594.934 139.797C595.175 139.888 595.408 140.112 595.619 140.5Z" fill="#2E2B37"/>
<path fill-rule="evenodd" clip-rule="evenodd" d="M585.522 155.235L587.077 167.07C587.585 170.943 582.267 174.137 576.333 174.137C570.443 174.137 565.659 171.019 565.591 167.155L566.976 155.317L585.522 155.235Z" fill="#AB6549"/>
<path fill-rule="evenodd" clip-rule="evenodd" d="M586.591 163.368C579.691 168.327 570.516 167.168 566.031 163.391L566.976 155.315L586.346 150.47L586.591 163.368Z" fill="#8E503D"/>
<path fill-rule="evenodd" clip-rule="evenodd" d="M556.716 132.688C556.766 139.118 556.279 146.739 559.365 152.431C562.389 158.01 567.113 161.266 573.604 161.235C585.852 161.178 592.657 149.677 592.528 132.806C592.341 108.413 556.53 108.295 556.716 132.688Z" fill="#AB6549"/>
<path fill-rule="evenodd" clip-rule="evenodd" d="M574.499 155.313C574.212 156.136 573.279 156.741 572.17 156.746C571.065 156.751 570.13 156.163 569.821 155.352C569.441 154.349 570.923 154.736 572.172 154.733C573.402 154.729 574.84 154.337 574.499 155.313Z" fill="#8E503D"/>
<path fill-rule="evenodd" clip-rule="evenodd" d="M585.953 126.056C586.895 125.954 588.883 126.93 590.504 126.824C591.272 126.774 594.279 125.685 595.207 125.641C595.425 130.388 595.605 131.293 594.663 136.48C594.565 136.994 592.456 137.794 592.351 138.281C592.228 138.852 591.439 142.321 590.915 144.361C590.754 144.995 589.832 147.112 589.632 144.91C589.462 143.015 589.954 139.63 589.778 138.549C589.568 137.252 588.811 135.562 587.816 134.821C586.989 134.206 586.523 127.91 585.953 126.056Z" fill="#2E2B37"/>
<path fill-rule="evenodd" clip-rule="evenodd" d="M562.59 125.712C565.869 126.125 572.325 125.653 579.773 124.144C587.223 122.636 587.818 132.719 587.818 132.719L592.109 137.878C592.222 138.015 593.038 137.598 593.744 137.3C594.402 137.023 594.917 136.898 595.108 136.63C596.644 134.454 599.037 126.774 597.906 123.137C596.649 119.089 591.695 118.884 591.688 118.527C591.658 117.098 591.255 115.785 590.567 114.594C590.352 114.116 590.037 113.581 589.603 112.985C586.517 109.115 578.49 104.748 569.128 104.748C565.263 104.748 563.642 106.068 563.767 107.825C563.787 108.126 564.144 109.507 564.264 109.829C560.719 107.069 545.791 108.713 553.907 120.394C553.283 124.311 554.002 129.178 556.642 135.099C557.621 129.194 559.312 125.299 562.59 125.712Z" fill="#2E2B37"/>
<path fill-rule="evenodd" clip-rule="evenodd" d="M590.695 118.306C591.394 118.809 592.916 117.981 594.096 116.454C595.276 114.929 595.668 113.285 594.968 112.782C594.268 112.278 592.747 113.108 591.566 114.633C590.386 116.158 589.996 117.803 590.695 118.306Z" fill="#2E2B37"/>
<path fill-rule="evenodd" clip-rule="evenodd" d="M590.852 119.289C591.138 120.084 592.88 120.223 594.745 119.602C596.611 118.981 597.892 117.832 597.607 117.038C597.322 116.243 595.58 116.103 593.714 116.725C591.849 117.345 590.568 118.494 590.852 119.289Z" fill="#2E2B37"/>
<path fill-rule="evenodd" clip-rule="evenodd" d="M585.143 117.728C578.965 119.717 571.303 120.021 564.602 119.015C563.909 118.911 563.231 118.793 562.572 118.662C557.77 117.708 553.95 116.115 551.554 114.924C551.3 112.31 552.756 110.617 554.79 109.66C557.583 111.447 563.003 114.134 571.028 114.746C571.906 114.814 572.818 114.857 573.759 114.869C575.42 114.893 576.918 114.879 578.27 114.832C585.214 114.595 588.302 113.556 589.559 112.926C589.573 112.945 589.589 112.964 589.604 112.983C590.037 113.58 590.353 114.113 590.568 114.592C590.664 114.759 590.754 114.928 590.838 115.098C589.175 116.181 587.246 117.052 585.143 117.728Z" fill="#52535A"/>
<path fill-rule="evenodd" clip-rule="evenodd" d="M577.022 149.603C577.072 149.406 576.958 149.203 576.77 149.152C575.721 149.186 567.64 149.145 567.499 149.204C567.32 149.28 567.23 149.495 567.303 149.685C568.158 151.926 570.161 153.505 572.523 153.305C576.224 152.992 577.019 149.613 577.022 149.603Z" fill="white"/>
<path fill-rule="evenodd" clip-rule="evenodd" d="M569.169 143.996C569.089 144.174 568.877 144.254 568.693 144.176C568.509 144.1 568.425 143.894 568.505 143.717C568.609 143.489 568.7 143.177 568.776 142.845C568.865 142.451 568.929 142.037 568.958 141.697C568.975 141.505 569.15 141.361 569.351 141.377C569.548 141.393 569.699 141.562 569.683 141.755C569.65 142.121 569.582 142.569 569.485 142.991C569.402 143.362 569.294 143.719 569.169 143.996Z" fill="#F0D4B8"/>
<path fill-rule="evenodd" clip-rule="evenodd" d="M569.184 145.193C569.471 146.016 570.404 146.621 571.512 146.626C572.615 146.631 573.553 146.043 573.862 145.232C574.241 144.228 572.759 144.617 571.508 144.612C570.281 144.608 568.842 144.217 569.184 145.193Z" fill="#8E503D"/>
<path fill-rule="evenodd" clip-rule="evenodd" d="M577.316 131.179C576.899 131.365 576.716 131.846 576.909 132.251C577.104 132.656 577.602 132.835 578.018 132.649C578.027 132.646 580.538 131.482 582.957 132.933C583.35 133.17 583.868 133.053 584.111 132.673C584.357 132.293 584.233 131.793 583.84 131.555C580.644 129.638 577.325 131.176 577.316 131.179Z" fill="#2E2B37"/>
<path fill-rule="evenodd" clip-rule="evenodd" d="M566.981 131.224C567.403 131.407 567.594 131.886 567.405 132.293C567.217 132.7 566.724 132.881 566.303 132.7C566.293 132.697 563.764 131.555 561.368 133.029C560.979 133.27 560.46 133.157 560.21 132.78C559.96 132.402 560.075 131.9 560.464 131.659C563.627 129.712 566.972 131.221 566.981 131.224Z" fill="#2E2B37"/>
<path d="M581.174 140.563C582.316 140.563 583.242 139.488 583.242 138.161C583.242 136.835 582.316 135.759 581.174 135.759C580.032 135.759 579.106 136.835 579.106 138.161C579.106 139.488 580.032 140.563 581.174 140.563Z" fill="#2E2B37"/>
<path fill-rule="evenodd" clip-rule="evenodd" d="M564.487 140.564C565.626 140.564 566.554 139.485 566.554 138.162C566.554 136.839 565.626 135.76 564.487 135.76C563.346 135.76 562.416 136.839 562.416 138.162C562.416 139.485 563.346 140.564 564.487 140.564Z" fill="#2E2B37"/>
<path fill-rule="evenodd" clip-rule="evenodd" d="M582.597 136.137C582.173 136.137 581.831 136.467 581.831 136.875C581.831 137.282 582.173 137.611 582.597 137.611C583.019 137.611 583.36 137.281 583.36 136.875C583.361 136.467 583.019 136.137 582.597 136.137Z" fill="white"/>
<path fill-rule="evenodd" clip-rule="evenodd" d="M566.018 136.137C565.596 136.137 565.252 136.467 565.252 136.875C565.252 137.282 565.596 137.611 566.018 137.611C566.44 137.611 566.782 137.281 566.782 136.875C566.782 136.467 566.44 136.137 566.018 136.137Z" fill="white"/>
<path fill-rule="evenodd" clip-rule="evenodd" d="M265.756 202.86C264.373 211.275 270.986 252.904 279.435 246.87L293.549 236.786L290.206 200.964C290.206 200.964 268.243 202.383 265.756 202.86Z" fill="#AB6549"/>
<path fill-rule="evenodd" clip-rule="evenodd" d="M275.29 246.678C281.36 256.256 308.47 255.224 319.888 254.785C325.756 254.564 328.412 257.227 333.379 259.396C336.679 260.838 338.098 261.833 342.417 260.056C343.457 259.627 342.516 256.845 343.409 257.864C344.301 258.884 348.044 259.804 348.371 258.302C348.47 257.849 340.671 243.535 326.335 245.116C318.399 243.582 302.52 238.633 293.729 234.213C281.295 227.958 272.169 231.684 271.7 238.501C271.613 239.775 274.553 245.513 275.29 246.678Z" fill="#AB6549"/>
<path fill-rule="evenodd" clip-rule="evenodd" d="M269.411 231.182C282.094 232.783 293.673 227.071 293.673 227.071C293.673 227.071 293.021 190.808 283.865 186.864C264.75 178.629 258.874 215.627 269.411 231.182Z" fill="#E7B575"/>
<path fill-rule="evenodd" clip-rule="evenodd" d="M261.922 408.442C265.268 408.442 266.445 412.543 265.448 415.67C264.451 418.798 265.028 425.817 265.028 425.817C265.028 425.817 281.812 432.429 283.712 432.736C285.614 433.044 285.374 438.885 285.374 438.885L284.373 439.962C284.373 439.962 286.043 440.039 285.989 441.346C285.934 442.653 285.934 442.653 285.934 442.653L285.876 444.114H263.636L255.303 441.346L253.485 444.187H241.954C241.954 444.187 240.772 432.275 240.969 431.352C241.166 430.43 243.837 424.997 243.854 423.281C243.869 421.564 243.915 416.414 243.946 412.979C243.982 409.063 243.906 408.442 247.493 408.442H261.922Z" fill="#7A7C86"/>
<path fill-rule="evenodd" clip-rule="evenodd" d="M191.289 408.442C187.943 408.442 186.426 412.543 187.165 415.67C187.904 418.798 186.746 425.817 186.746 425.817C186.746 425.817 183.027 430.987 179.607 432.736C176.185 434.485 177.44 438.885 177.44 438.885L178.352 439.962C178.352 439.962 176.675 440.039 176.62 441.346C176.566 442.653 176.566 442.653 176.566 442.653L176.508 444.114C192.988 444.114 196.884 444.187 211.594 444.187C211.594 444.187 211.489 442.581 211.387 440.501C211.373 440.205 208.983 439.881 209.119 439.598C209.395 439.026 210.756 438.801 210.992 437.313C211.741 432.546 207.893 426.562 208.133 423.282C208.26 421.565 208.639 416.415 208.892 412.98C209.179 409.064 209.306 408.443 205.717 408.443H191.289V408.442Z" fill="#7A7C86"/>
<path fill-rule="evenodd" clip-rule="evenodd" d="M208.905 439.515C209.062 439.515 209.192 439.641 209.192 439.795C209.192 439.948 209.063 440.074 208.905 440.074H179.279C179.119 440.074 178.989 439.949 178.989 439.795C178.989 439.642 179.119 439.515 179.279 439.515H208.905Z" fill="#52535A"/>
<path fill-rule="evenodd" clip-rule="evenodd" d="M284.625 439.512C284.786 439.512 284.919 439.639 284.919 439.794C284.919 439.95 284.786 440.077 284.625 440.077H241.583C241.423 440.077 241.291 439.95 241.291 439.794C241.291 439.639 241.423 439.512 241.583 439.512H284.625Z" fill="#52535A"/>
<path fill-rule="evenodd" clip-rule="evenodd" d="M255.261 242.946C254.75 243.653 257.677 251.365 259.126 256.695C259.665 258.683 264.095 261.158 264.771 263.478C271.706 287.271 273.394 332.044 274.191 339.884C274.419 342.153 272.728 409.543 272.728 409.543C272.728 409.543 271.733 418.624 266.199 421.54C260.667 424.46 244.52 421.54 244.52 421.54C244.52 421.54 239.035 415.055 239.11 413.11C239.186 411.163 235.58 364.79 235.669 362.519C235.756 360.249 239.961 342.802 239.961 342.802L228.566 299.805L226.564 299.311L216.511 343.934L217.875 359.147L215.073 416.353L208.53 420.568H188.125L182.041 413.111C182.793 372.503 180.568 339.132 186.578 298.431C187.558 291.794 188.5 269.806 189.981 263.225C190.457 261.117 194.102 259.179 194.536 257.468C195.678 252.972 198.277 246.378 199.011 246.334L255.261 242.946Z" fill="#2E2B37"/>
<path fill-rule="evenodd" clip-rule="evenodd" d="M262.856 260.79C262.972 260.897 262.974 261.073 262.865 261.183C262.755 261.294 262.571 261.297 262.456 261.191L253.244 252.64C253.128 252.532 253.124 252.356 253.234 252.246C253.345 252.135 253.529 252.13 253.642 252.237L262.856 260.79Z" fill="#52535A"/>
<path fill-rule="evenodd" clip-rule="evenodd" d="M192.144 260.935C192.028 261.043 191.847 261.038 191.736 260.928C191.626 260.817 191.628 260.64 191.743 260.533L200.958 251.982C201.071 251.876 201.255 251.878 201.365 251.989C201.476 252.099 201.471 252.276 201.358 252.383L192.144 260.935Z" fill="#52535A"/>
<path fill-rule="evenodd" clip-rule="evenodd" d="M252.78 246.183C252.935 246.147 253.091 246.239 253.129 246.388C253.167 246.537 253.071 246.687 252.917 246.724C227.057 252.825 200.206 246.776 200.129 246.76C199.974 246.726 199.877 246.577 199.912 246.429C199.948 246.279 200.1 246.183 200.256 246.217C200.333 246.236 227.055 252.253 252.78 246.183Z" fill="#52535A"/>
<path fill-rule="evenodd" clip-rule="evenodd" d="M252.264 241.912C252.417 241.865 252.582 241.946 252.629 242.092C252.679 242.239 252.596 242.399 252.443 242.444C231.713 248.936 200.726 243.658 200.637 243.643C200.48 243.618 200.373 243.472 200.399 243.32C200.428 243.168 200.576 243.066 200.734 243.09C200.823 243.106 231.674 248.362 252.264 241.912Z" fill="#52535A"/>
<path fill-rule="evenodd" clip-rule="evenodd" d="M231.723 298.278C231.878 298.313 231.978 298.462 231.942 298.611C231.907 298.76 231.754 298.855 231.598 298.822C222.504 296.827 212.536 295.173 212.507 295.169C212.351 295.142 212.247 294.999 212.273 294.847C212.3 294.697 212.449 294.594 212.607 294.62C212.636 294.624 222.587 296.275 231.723 298.278Z" fill="#52535A"/>
<path fill-rule="evenodd" clip-rule="evenodd" d="M270.146 346.049C270.301 346.015 270.457 346.108 270.493 346.258C270.53 346.406 270.434 346.556 270.278 346.593C262.913 348.248 254.005 346.227 250.709 345.48L249.958 345.311C249.802 345.277 249.704 345.129 249.739 344.979C249.772 344.829 249.927 344.736 250.083 344.767L250.842 344.937C254.099 345.676 262.913 347.676 270.146 346.049Z" fill="#52535A"/>
<path fill-rule="evenodd" clip-rule="evenodd" d="M267.329 349.389C267.478 349.338 267.643 349.416 267.694 349.561C267.746 349.705 267.668 349.865 267.517 349.915C265.428 350.616 262.925 350.854 260.543 350.854C256.725 350.854 253.192 350.237 252.188 349.917C252.036 349.869 251.953 349.711 252.002 349.565C252.054 349.418 252.217 349.339 252.367 349.387C253.342 349.697 256.79 350.297 260.543 350.297C262.875 350.297 265.313 350.065 267.329 349.389Z" fill="#52535A"/>
<path fill-rule="evenodd" clip-rule="evenodd" d="M206.383 346.049C206.536 346.015 206.691 346.108 206.729 346.258C206.764 346.406 206.668 346.556 206.512 346.593C199.147 348.248 190.239 346.227 186.946 345.48L186.192 345.311C186.036 345.277 185.939 345.129 185.973 344.979C186.008 344.829 186.161 344.736 186.316 344.767L187.075 344.937C190.336 345.676 199.146 347.676 206.383 346.049Z" fill="#52535A"/>
<path fill-rule="evenodd" clip-rule="evenodd" d="M203.563 349.389C203.714 349.338 203.878 349.416 203.93 349.561C203.981 349.705 203.902 349.865 203.751 349.915C201.664 350.616 199.16 350.854 196.779 350.854C192.961 350.854 189.426 350.237 188.423 349.917C188.272 349.869 188.189 349.711 188.238 349.565C188.287 349.418 188.45 349.339 188.603 349.387C189.576 349.697 193.024 350.297 196.778 350.297C199.109 350.297 201.549 350.065 203.563 349.389Z" fill="#52535A"/>
<path fill-rule="evenodd" clip-rule="evenodd" d="M187.323 430.584C187.004 430.584 186.746 430.334 186.746 430.024C186.746 429.718 187.004 429.468 187.323 429.468H202.687C203.008 429.468 203.266 429.718 203.266 430.024C203.266 430.333 203.008 430.584 202.687 430.584H187.323Z" fill="#52535A"/>
<path fill-rule="evenodd" clip-rule="evenodd" d="M189.567 427.96C189.247 427.96 188.987 427.711 188.987 427.404C188.987 427.094 189.246 426.845 189.567 426.845H202.686C203.007 426.845 203.265 427.094 203.265 427.404C203.265 427.711 203.007 427.96 202.686 427.96H189.567Z" fill="#52535A"/>
<path fill-rule="evenodd" clip-rule="evenodd" d="M190.042 425.339C189.722 425.339 189.463 425.089 189.463 424.779C189.463 424.472 189.722 424.223 190.042 424.223H202.686C203.007 424.223 203.265 424.471 203.265 424.779C203.265 425.089 203.007 425.339 202.686 425.339H190.042Z" fill="#52535A"/>
<path fill-rule="evenodd" clip-rule="evenodd" d="M267.842 432.544C267.614 432.757 267.249 432.751 267.028 432.528C266.807 432.308 266.813 431.956 267.045 431.743L271.298 427.776C271.526 427.563 271.891 427.569 272.113 427.792C272.334 428.013 272.325 428.365 272.096 428.578L267.842 432.544Z" fill="#52535A"/>
<path fill-rule="evenodd" clip-rule="evenodd" d="M264.709 431.189C264.481 431.401 264.115 431.394 263.895 431.172C263.674 430.952 263.68 430.599 263.912 430.386L268.054 426.519C268.285 426.306 268.651 426.313 268.872 426.536C269.092 426.756 269.084 427.108 268.855 427.322L264.709 431.189Z" fill="#52535A"/>
<path fill-rule="evenodd" clip-rule="evenodd" d="M261.666 430.163C261.438 430.377 261.071 430.371 260.852 430.147C260.63 429.927 260.637 429.574 260.866 429.361L265.223 425.299C265.451 425.085 265.817 425.092 266.038 425.314C266.26 425.535 266.253 425.887 266.021 426.101L261.666 430.163Z" fill="#52535A"/>
<path fill-rule="evenodd" clip-rule="evenodd" d="M208.295 218.439C207.768 219.764 209.783 227.319 209.348 228.587C204.59 242.436 202.329 246.764 199.083 256.587C196.4 264.705 189.746 268.566 189.746 268.566C220.069 291.468 238.744 276.054 260.298 267.245C260.298 267.245 267.963 259.463 269.884 249.677C273.655 230.477 288.92 202.621 287.832 193.521C285.682 175.534 250.9 167.041 230.451 184.081C222.046 191.085 213.719 204.776 208.295 218.439Z" fill="#E7B575"/>
<path fill-rule="evenodd" clip-rule="evenodd" d="M207.841 216.793C206.79 219.944 205.412 224.607 204.388 226.921C200.61 235.471 196.891 240.612 194.575 245.977C192.689 250.352 195.781 253.479 194.704 255.052C193.635 256.616 191.742 258.58 191.277 260.031C190.029 263.918 189.454 271.666 189.454 271.666C219.777 294.567 257.178 286.639 262.079 269.095C262.079 269.095 268.504 266.319 268.392 263.668C268.338 262.402 268.29 260.921 268.272 259.315C268.213 254.546 268.943 254.467 269.885 249.677C271.032 243.833 273.246 237.188 275.738 230.511C275.055 230.409 274.338 230.321 273.587 230.247C260.162 228.925 243.175 206.993 243.175 206.993C243.175 206.993 243.722 208.842 237.695 215.449C233.417 220.136 219.068 222.162 210.119 215.955C208.193 214.624 208.695 214.227 207.841 216.793Z" fill="#2E2B37"/>
<path fill-rule="evenodd" clip-rule="evenodd" d="M273.412 237.017C275.49 230.883 288.407 195.748 288.069 190.466C287.479 187.078 285.498 186.183 283.116 183.578C281.508 191.464 278.596 202.905 277.397 208.451C277.108 209.793 272.308 209.526 269.564 209.293C266.17 209.007 264.661 208.132 263.754 202.818C262.531 195.664 259.873 181.145 257.359 174.369C254.896 174.452 252.37 174.745 249.822 175.266C257.392 189.744 257.072 207.688 255.503 216.507C253.859 225.755 235.228 226.019 235.228 226.019L273.412 237.017Z" fill="#2E2B37"/>
<path fill-rule="evenodd" clip-rule="evenodd" d="M231.073 207.305C224.838 229.856 242.285 257.716 242.285 257.716L261.401 251.317L255.53 209.741C255.53 209.741 233.518 207.475 231.073 207.305Z" fill="#AB6549"/>
<path fill-rule="evenodd" clip-rule="evenodd" d="M230.781 235.827C243.819 234.205 258.617 231.619 258.617 231.619C258.53 224.48 254.933 175.946 249.702 175.385C243.533 174.725 231.896 180.521 228.612 186.713C222.146 198.911 224.916 218.466 230.781 235.827Z" fill="#E7B575"/>
<path fill-rule="evenodd" clip-rule="evenodd" d="M233.189 237.449C235.497 244.031 237.803 256.092 243.225 259.822C252.041 265.881 277.848 271.166 288.139 272.828C289.58 273.059 299.582 278.093 304.019 280.831C308.032 283.309 314.854 281.236 321.804 281.405C325.207 280.722 322.223 278.468 319.955 278.289C316.281 277.998 310.051 278.586 309.224 276.815C308.275 274.775 317.616 267.866 315.211 266.203C310.543 262.975 302.156 261.713 298.034 262.207C283.28 259.409 266.795 239.849 252.96 242.18C249.756 242.718 232.453 235.35 233.189 237.449Z" fill="#AB6549"/>
<path fill-rule="evenodd" clip-rule="evenodd" d="M244.925 262.453C245.297 262.466 245.622 262.604 245.65 262.761C245.675 262.918 245.398 263.035 245.026 263.02C230.178 262.465 214.748 259.878 208.38 258.811L206.639 258.52C206.276 258.464 206.046 258.298 206.125 258.15C206.203 258.004 206.563 257.934 206.926 257.991L208.69 258.284C215 259.341 230.286 261.903 244.925 262.453Z" fill="#52535A"/>
<path fill-rule="evenodd" clip-rule="evenodd" d="M246.905 265.401C247.255 265.377 247.633 265.479 247.753 265.633C247.874 265.787 247.688 265.933 247.339 265.958C242.503 266.322 236.699 266.156 231.174 265.772C222.326 265.155 214.135 263.966 211.806 263.485C211.457 263.411 211.267 263.241 211.382 263.103C211.501 262.965 211.877 262.912 212.228 262.985C214.485 263.453 222.478 264.609 231.177 265.215C236.575 265.59 242.226 265.751 246.905 265.401Z" fill="#52535A"/>
<path fill-rule="evenodd" clip-rule="evenodd" d="M310.775 250.667H350.196C351.411 250.667 352.403 251.625 352.403 252.796V276.274C352.403 277.446 351.411 278.405 350.196 278.405H310.775C309.56 278.405 308.566 277.446 308.566 276.274V252.796C308.566 251.625 309.56 250.667 310.775 250.667Z" fill="white"/>
<path fill-rule="evenodd" clip-rule="evenodd" d="M330.487 273.798C334.468 273.798 337.716 270.664 337.716 266.825C337.716 262.984 334.468 259.852 330.487 259.852C326.505 259.852 323.254 262.984 323.254 266.825C323.254 270.664 326.505 273.798 330.487 273.798Z" fill="#E7B575"/>
<path fill-rule="evenodd" clip-rule="evenodd" d="M330.384 261.847C330.612 261.467 331.118 261.338 331.512 261.558C331.908 261.777 332.042 262.265 331.814 262.647L329.696 266.184H331.462C331.921 266.184 332.291 266.541 332.291 266.982C332.291 267.15 332.239 267.302 332.149 267.429L329.757 271.427C329.529 271.807 329.022 271.938 328.626 271.718C328.233 271.498 328.099 271.009 328.327 270.627L330.03 267.78H328.263C328.122 267.778 327.981 267.744 327.849 267.671C327.456 267.451 327.319 266.962 327.548 266.583L330.384 261.847Z" fill="#B6473D"/>
<path fill-rule="evenodd" clip-rule="evenodd" d="M315.915 247.098C316.819 247.098 317.559 247.811 317.559 248.683V251.325H314.271V248.683C314.271 247.812 315.011 247.098 315.915 247.098Z" fill="#44424E"/>
<path fill-rule="evenodd" clip-rule="evenodd" d="M314.243 249.666H317.587C318.24 249.666 318.772 250.179 318.772 250.809V251.367H313.058V250.809C313.058 250.179 313.59 249.666 314.243 249.666Z" fill="white"/>
<path fill-rule="evenodd" clip-rule="evenodd" d="M325.628 247.098C326.532 247.098 327.272 247.811 327.272 248.683V251.325H323.984V248.683C323.984 247.812 324.724 247.098 325.628 247.098Z" fill="#44424E"/>
<path fill-rule="evenodd" clip-rule="evenodd" d="M323.956 249.666H327.301C327.953 249.666 328.485 250.179 328.485 250.809V251.367H322.771V250.809C322.771 250.179 323.306 249.666 323.956 249.666Z" fill="white"/>
<path fill-rule="evenodd" clip-rule="evenodd" d="M335.342 247.098H335.344C336.248 247.098 336.986 247.811 336.986 248.683V251.325H333.7V248.683C333.7 247.812 334.44 247.098 335.342 247.098Z" fill="#44424E"/>
<path fill-rule="evenodd" clip-rule="evenodd" d="M333.67 249.666H337.014C337.666 249.666 338.199 250.179 338.199 250.809V251.367H332.487V250.809C332.487 250.179 333.019 249.666 333.67 249.666Z" fill="white"/>
<path fill-rule="evenodd" clip-rule="evenodd" d="M345.055 247.098H345.058C345.962 247.098 346.701 247.811 346.701 248.683V251.325H343.413V248.683C343.413 247.812 344.153 247.098 345.055 247.098Z" fill="#44424E"/>
<path fill-rule="evenodd" clip-rule="evenodd" d="M343.385 249.666H346.73C347.38 249.666 347.912 250.179 347.912 250.809V251.367H342.201V250.809C342.201 250.179 342.733 249.666 343.385 249.666Z" fill="white"/>
<path fill-rule="evenodd" clip-rule="evenodd" d="M307.319 250.667H353.652C354.622 250.667 355.418 251.433 355.418 252.371V255.57C355.418 256.505 354.622 257.274 353.652 257.274H307.319C306.347 257.274 305.554 256.506 305.554 255.57V252.371C305.554 251.433 306.347 250.667 307.319 250.667Z" fill="#B6473D"/>
<path fill-rule="evenodd" clip-rule="evenodd" d="M225.547 193.115C225.577 192.89 225.793 192.732 226.026 192.763C226.258 192.792 226.421 193 226.391 193.224C224.054 209.887 227.139 223.681 227.149 223.722C227.196 223.944 227.048 224.163 226.817 224.208C226.586 224.255 226.36 224.111 226.313 223.891C226.304 223.849 223.19 209.921 225.547 193.115Z" fill="#2E2B37"/>
<path fill-rule="evenodd" clip-rule="evenodd" d="M258.167 227.215C258.4 227.181 258.62 227.335 258.654 227.559C258.688 227.784 258.528 227.995 258.295 228.029C242.085 230.384 228.504 231.955 228.464 231.959C228.231 231.985 228.018 231.824 227.991 231.598C227.962 231.372 228.13 231.168 228.365 231.141C228.402 231.136 241.962 229.569 258.167 227.215Z" fill="#2E2B37"/>
<path fill-rule="evenodd" clip-rule="evenodd" d="M258.456 203.856C258.485 204.081 258.317 204.287 258.084 204.314C257.851 204.341 257.637 204.181 257.608 203.955C256.509 195.355 255.224 189.617 253.651 185.74C252.109 181.934 250.288 179.945 248.086 178.792C247.878 178.683 247.8 178.432 247.913 178.233C248.027 178.033 248.285 177.958 248.493 178.067C250.867 179.311 252.817 181.425 254.447 185.44C256.047 189.384 257.347 195.186 258.456 203.856Z" fill="#2E2B37"/>
<path fill-rule="evenodd" clip-rule="evenodd" d="M307.195 263.027C314.207 266.054 317.152 266.937 317.959 267.856C318.289 268.234 318.365 269.896 316.037 270.226C312.698 270.699 305.22 269.685 301.992 267.625C296.517 264.127 303.411 262.78 307.195 263.027Z" fill="#AB6549"/>
<path fill-rule="evenodd" clip-rule="evenodd" d="M264.78 141.623C261.956 149.715 258.027 162.496 266.879 169.537C275.73 176.577 281.194 160.306 281.838 151.299C282.481 142.294 264.78 141.623 264.78 141.623Z" fill="#2E2B37"/>
<path fill-rule="evenodd" clip-rule="evenodd" d="M270.824 167.604L263.304 176.941C261.975 178.59 263.242 183.597 265.483 188.309C267.84 193.267 276.917 197.82 279.912 190.946C280.505 189.583 281.046 188.318 281.584 187.475L286.599 176.703L270.824 167.604Z" fill="#AB6549"/>
<path fill-rule="evenodd" clip-rule="evenodd" d="M267.162 172.172C270.452 183.328 277.374 189.053 283.178 184.051L286.599 176.703L274.44 159.759L267.162 172.172Z" fill="#8E503D"/>
<path fill-rule="evenodd" clip-rule="evenodd" d="M303.813 156.723C302.438 162.957 302.031 173.621 297.859 178.554C293.773 183.39 287.7 182.932 281.522 181.193C277.813 180.149 272.088 173.569 270.797 165.414C270.069 160.817 267.723 155.853 269.025 149.957C274.244 126.312 309.035 133.077 303.813 156.723Z" fill="#AB6549"/>
<path fill-rule="evenodd" clip-rule="evenodd" d="M282.258 145.257C281.364 144.976 274.334 145.214 272.782 144.8C272.047 144.604 269.352 142.968 268.46 142.747C267.268 147.314 266.905 148.158 266.751 153.374C266.73 154.435 271.553 152.613 271.918 161.255C271.944 161.901 272.401 164.134 273.048 162.036C273.2 161.548 274.433 158.554 275.672 156.169C276.45 154.668 279.401 153.804 279.914 153.564C280.842 153.126 283.067 148.183 282.258 145.257Z" fill="#2E2B37"/>
<path fill-rule="evenodd" clip-rule="evenodd" d="M299.552 148.822C296.285 148.593 294.185 149.23 287.265 146.332C280.345 143.438 277.683 153.109 277.683 153.109L268.382 154.96C268.205 154.996 267.539 154.511 266.914 154.085C266.332 153.69 265.856 153.47 265.73 153.172C264.687 150.764 263.181 143.047 265.03 139.734C267.089 136.047 272.603 136.559 272.789 136.256C279.469 125.402 296.559 126.777 306.284 133.532C315.696 140.066 318.113 151.688 303.387 159.078C303.658 153.158 302.821 149.051 299.552 148.822Z" fill="#2E2B37"/>
<path fill-rule="evenodd" clip-rule="evenodd" d="M273.914 137.089C273.132 137.443 271.825 136.346 270.993 134.638C270.164 132.93 270.124 131.259 270.906 130.905C271.691 130.551 272.998 131.648 273.827 133.356C274.658 135.064 274.696 136.736 273.914 137.089Z" fill="#2E2B37"/>
<path fill-rule="evenodd" clip-rule="evenodd" d="M273.559 138.014C273.118 138.731 271.397 138.532 269.713 137.57C268.032 136.608 267.025 135.248 267.466 134.531C267.906 133.814 269.628 134.013 271.309 134.973C272.992 135.935 274 137.297 273.559 138.014Z" fill="#2E2B37"/>
<path fill-rule="evenodd" clip-rule="evenodd" d="M268.403 154.284C270.379 154.685 271.919 157.592 271.844 160.776C271.768 163.961 270.106 166.216 268.127 165.817C266.153 165.415 264.611 162.509 264.688 159.326C264.765 156.14 266.427 153.884 268.403 154.284Z" fill="#AB6549"/>
<path fill-rule="evenodd" clip-rule="evenodd" d="M267.428 163.324C267.878 161.536 269.22 161.838 269.974 162.618C270.379 160.741 269.569 157.74 268.425 156.881C266.557 155.58 264.952 161.266 267.428 163.324Z" fill="#8E503D"/>
<path fill-rule="evenodd" clip-rule="evenodd" d="M266.909 157.497C266.826 157.595 266.681 157.608 266.587 157.525C266.491 157.442 266.481 157.297 266.566 157.2C266.931 156.774 267.298 156.553 267.657 156.494C268.076 156.425 268.462 156.578 268.807 156.889C269.119 157.174 269.397 157.597 269.626 158.1C270.224 159.412 270.493 161.301 270.198 162.662C270.173 162.786 270.049 162.868 269.925 162.843C269.878 162.833 269.838 162.81 269.807 162.779C269.567 162.53 269.263 162.336 268.954 162.263C268.801 162.226 268.648 162.22 268.502 162.254C268.36 162.287 268.226 162.359 268.104 162.478C267.916 162.659 267.757 162.949 267.652 163.375C267.618 163.499 267.494 163.577 267.37 163.548C267.249 163.519 267.173 163.395 267.204 163.27C267.336 162.752 267.54 162.389 267.786 162.149C267.974 161.967 268.184 161.856 268.405 161.805C268.622 161.755 268.846 161.761 269.067 161.814C269.328 161.877 269.587 162.004 269.815 162.173C269.969 160.949 269.712 159.407 269.208 158.298C269.003 157.851 268.76 157.478 268.492 157.235C268.252 157.015 267.99 156.905 267.722 156.95C267.47 156.99 267.2 157.162 266.909 157.497Z" fill="#2E2B37"/>
<path fill-rule="evenodd" clip-rule="evenodd" d="M293.596 142.668C296.081 142.944 298.785 143.044 301.7 142.921C302.03 142.907 302.361 142.891 302.697 142.871C305.087 142.729 307.234 142.483 309.155 142.164C310.54 141.935 311.808 141.666 312.971 141.373C312.353 139.877 311.446 138.438 310.29 137.1C309.322 135.977 308.181 134.927 306.898 133.973C295.036 137.716 286.654 138.715 277.586 131.357C276.537 132.035 275.567 132.834 274.694 133.761C277.815 139.491 288.148 142.062 293.596 142.668Z" fill="#44424E"/>
<path fill-rule="evenodd" clip-rule="evenodd" d="M287.922 170.782C287.915 170.581 288.066 170.406 288.261 170.391C289.272 170.627 297.124 172.14 297.249 172.224C297.409 172.332 297.449 172.559 297.34 172.73C296.047 174.741 293.777 175.888 291.525 175.241C287.997 174.226 287.922 170.792 287.922 170.782Z" fill="white"/>
<path fill-rule="evenodd" clip-rule="evenodd" d="M296.704 166.848C296.745 167.035 296.935 167.155 297.128 167.115C297.323 167.075 297.447 166.891 297.406 166.705C297.353 166.463 297.328 166.142 297.323 165.806C297.319 165.407 297.342 164.993 297.383 164.658C297.408 164.467 297.267 164.294 297.069 164.271C296.871 164.248 296.692 164.384 296.669 164.574C296.623 164.936 296.598 165.383 296.603 165.813C296.609 166.188 296.639 166.555 296.704 166.848Z" fill="#F0D4B8"/>
<path fill-rule="evenodd" clip-rule="evenodd" d="M296.444 168.006C295.996 168.751 294.964 169.159 293.886 168.95C292.814 168.743 292.028 167.992 291.896 167.144C291.734 166.097 293.093 166.759 294.306 166.996C295.499 167.228 296.976 167.125 296.444 168.006Z" fill="#8E503D"/>
<path fill-rule="evenodd" clip-rule="evenodd" d="M291.441 152.839C291.81 153.101 291.888 153.602 291.615 153.958C291.345 154.315 290.823 154.392 290.456 154.131C290.451 154.127 288.252 152.515 285.604 153.459C285.173 153.613 284.693 153.401 284.535 152.985C284.378 152.569 284.601 152.106 285.032 151.953C288.527 150.703 291.433 152.834 291.441 152.839Z" fill="#2E2B37"/>
<path fill-rule="evenodd" clip-rule="evenodd" d="M285.759 161.208C286.868 161.428 287.989 160.561 288.263 159.273C288.536 157.986 287.86 156.764 286.751 156.545C285.642 156.325 284.521 157.191 284.245 158.48C283.972 159.767 284.65 160.987 285.759 161.208Z" fill="#2E2B37"/>
<path fill-rule="evenodd" clip-rule="evenodd" d="M289.191 176.811C289.299 177.664 290.082 178.431 291.158 178.649C292.227 178.866 293.259 178.475 293.725 177.748C294.302 176.847 292.781 176.938 291.571 176.695C290.378 176.454 289.061 175.797 289.191 176.811Z" fill="#8E503D"/>
<path fill-rule="evenodd" clip-rule="evenodd" d="M285.293 156.638C285.703 156.719 285.967 157.105 285.882 157.501C285.798 157.897 285.396 158.151 284.987 158.071C284.577 157.989 284.314 157.603 284.398 157.207C284.48 156.811 284.881 156.556 285.293 156.638Z" fill="white"/>
<path fill-rule="evenodd" clip-rule="evenodd" d="M306.152 155.075C306.519 155.336 306.597 155.838 306.326 156.194C306.053 156.549 305.535 156.628 305.165 156.367C305.16 156.362 302.961 154.75 300.313 155.694C299.882 155.848 299.404 155.636 299.246 155.221C299.088 154.805 299.309 154.342 299.741 154.188C303.239 152.938 306.143 155.069 306.152 155.075Z" fill="#2E2B37"/>
<path fill-rule="evenodd" clip-rule="evenodd" d="M300.469 163.443C301.578 163.663 302.699 162.797 302.972 161.509C303.248 160.22 302.57 159 301.46 158.78C300.352 158.561 299.23 159.426 298.957 160.715C298.684 162.002 299.36 163.225 300.469 163.443Z" fill="#2E2B37"/>
<path fill-rule="evenodd" clip-rule="evenodd" d="M300.002 158.873C300.413 158.954 300.676 159.341 300.595 159.736C300.51 160.132 300.109 160.387 299.699 160.306C299.289 160.224 299.023 159.838 299.108 159.442C299.193 159.047 299.593 158.792 300.002 158.873Z" fill="white"/>
<path fill-rule="evenodd" clip-rule="evenodd" d="M517.974 451.565H641.156C643.373 451.565 645.186 449.816 645.186 447.678V447.677C645.186 445.539 643.373 443.79 641.156 443.79H517.974C515.757 443.79 513.944 445.539 513.944 447.677V447.678C513.944 449.816 515.757 451.565 517.974 451.565Z" fill="#A7BFBE"/>
<path fill-rule="evenodd" clip-rule="evenodd" d="M171.658 451.565H294.838C297.055 451.565 298.868 449.816 298.868 447.678V447.677C298.868 445.539 297.055 443.79 294.838 443.79H171.658C169.439 443.79 167.625 445.539 167.625 447.677V447.678C167.625 449.816 169.438 451.565 171.658 451.565Z" fill="#A7BFBE"/>
<path fill-rule="evenodd" clip-rule="evenodd" d="M44.0251 402.8C45.3036 403.124 46.5586 403.532 47.7795 404.02C49.002 404.509 50.1897 405.079 51.3326 405.724L56.697 402.498C57.554 401.983 58.6319 402.103 59.3451 402.79L64.8135 408.064C65.5268 408.752 65.6502 409.793 65.1157 410.618L61.7723 415.791C62.4473 416.89 63.0314 418.039 63.539 419.218C64.0443 420.397 64.4667 421.606 64.7997 422.839L70.9578 424.215C71.9399 424.435 72.6157 425.256 72.6157 426.228V433.689C72.6157 434.66 71.9399 435.48 70.9578 435.7L64.803 437.078C64.4667 438.309 64.0443 439.521 63.5382 440.697C63.0314 441.877 62.44 443.023 61.7715 444.124L65.1174 449.299C65.6502 450.124 65.5268 451.163 64.8144 451.852L59.3459 457.125C58.6327 457.812 57.5548 457.931 56.6978 457.417L51.335 454.191C50.1945 454.841 49.0029 455.407 47.7803 455.895C46.5603 456.382 45.3045 456.788 44.0259 457.111L42.5987 463.051C42.3704 463.998 41.5207 464.649 40.5119 464.649H32.7771C31.7698 464.649 30.9194 463.998 30.6919 463.051L29.2647 457.114C27.9869 456.791 26.7319 456.384 25.5118 455.895C24.2877 455.407 23.1009 454.835 21.9572 454.191L16.5919 457.417C15.7366 457.931 14.6587 457.812 13.9455 457.124L8.47783 451.852C7.76463 451.163 7.64116 450.124 8.17403 449.299L11.5191 444.125C10.8441 443.026 10.26 441.877 9.75315 440.699C9.24709 439.521 8.82631 438.311 8.49164 437.078L2.33357 435.7C1.35149 435.48 0.677277 434.66 0.677277 433.689V426.228C0.677277 425.256 1.35149 424.435 2.33357 424.215L8.48921 422.839C8.82631 421.606 9.24709 420.395 9.75315 419.218C10.26 418.039 10.8514 416.894 11.5199 415.792L8.17403 410.618C7.64116 409.793 7.76463 408.752 8.47783 408.064L13.9455 402.79C14.6587 402.103 15.7366 401.983 16.5919 402.498L21.9572 405.724C23.096 405.072 24.2877 404.509 25.5118 404.02C26.7303 403.532 27.9861 403.126 29.2631 402.805L30.6919 396.864C30.9194 395.917 31.7698 395.265 32.7771 395.265H40.5119C41.5207 395.265 42.3704 395.917 42.5987 396.864L44.0251 402.8ZM25.2584 418.976C22.2285 421.899 20.543 425.822 20.543 429.957C20.543 434.091 22.2269 438.015 25.2584 440.939C28.2899 443.863 32.3571 445.486 36.6453 445.486C40.9318 445.486 44.9998 443.863 48.0314 440.939C51.0613 438.016 52.7476 434.092 52.7476 429.957C52.7476 425.823 51.0621 421.9 48.0314 418.976C45.0007 416.053 40.9326 414.426 36.6453 414.426C32.3579 414.426 28.2891 416.053 25.2584 418.976Z" fill="white"/>
<path fill-rule="evenodd" clip-rule="evenodd" d="M43.3232 404.758C42.6742 404.599 42.1389 404.104 41.9789 403.431L40.511 397.331H32.7763L31.3352 403.33C31.2175 404.003 30.6984 404.583 29.9665 404.762C28.7148 405.07 27.4995 405.46 26.3306 405.927C25.1593 406.396 24.0196 406.946 22.9222 407.57C22.3455 407.915 21.5917 407.936 20.9768 407.568L15.458 404.249L9.99033 409.524L13.4191 414.827C13.7814 415.373 13.8195 416.095 13.4532 416.693C12.7968 417.759 12.2209 418.868 11.7303 420.007C11.2461 421.136 10.8408 422.309 10.52 423.516C10.3534 424.142 9.83926 424.658 9.1423 424.812L2.81851 426.228V433.689L9.03588 435.078C9.7369 435.194 10.3364 435.693 10.5224 436.401C10.8408 437.607 11.2453 438.779 11.7303 439.906C12.2169 441.037 12.7855 442.137 13.4361 443.193C13.7911 443.75 13.8155 444.477 13.4313 445.07L9.99115 450.392L15.4588 455.666L20.9564 452.36C21.525 452.009 22.2732 451.973 22.8938 452.327C23.9993 452.96 25.1487 453.516 26.3315 453.988C27.5004 454.456 28.7156 454.847 29.9657 455.156C30.6164 455.316 31.1533 455.811 31.3117 456.485L32.7779 462.583H40.5127L41.9561 456.586C42.0739 455.912 42.5922 455.332 43.3249 455.152C44.5766 454.845 45.7926 454.455 46.9615 453.988C48.1329 453.52 49.2725 452.97 50.3683 452.342C50.9467 451.999 51.6989 451.976 52.3138 452.347L57.8318 455.666L63.301 450.392L59.8739 445.089C59.51 444.542 59.4726 443.819 59.8382 443.221C60.4961 442.155 61.0713 441.047 61.5611 439.907C62.0468 438.779 62.4505 437.606 62.773 436.4C62.9379 435.773 63.4521 435.256 64.1507 435.103L70.4745 433.688V426.227L64.2555 424.835C63.5553 424.721 62.955 424.222 62.769 423.515C62.4497 422.308 62.046 421.136 61.5611 420.009C61.0761 418.878 60.5051 417.779 59.8569 416.722C59.5003 416.165 59.4775 415.438 59.8601 414.845L63.3002 409.523L57.831 404.249L52.3349 407.554C51.7663 407.906 51.0182 407.942 50.3976 407.588C49.2929 406.954 48.1435 406.4 46.9599 405.927C45.791 405.46 44.575 405.069 43.3232 404.758ZM23.7443 417.515C27.0447 414.331 31.6066 412.363 36.6437 412.363C41.6816 412.363 46.2435 414.331 49.5439 417.515C52.8459 420.699 54.888 425.098 54.888 429.957C54.888 434.816 52.8459 439.214 49.5439 442.399C46.2435 445.584 41.6816 447.552 36.6437 447.552C31.6066 447.552 27.0455 445.581 23.7434 442.399C20.4431 439.214 18.4017 434.816 18.4017 429.957C18.4017 425.097 20.4422 420.698 23.7443 417.515Z" fill="white"/>
<path fill-rule="evenodd" clip-rule="evenodd" d="M388.834 48.0946C389.621 48.3194 390.4 48.5858 391.166 48.8929C391.928 49.1976 392.672 49.5416 393.399 49.9223L397.244 47.6096C397.705 47.3323 398.234 47.2265 398.743 47.2814C399.256 47.3385 399.744 47.5563 400.128 47.9269L404.872 52.5014C405.256 52.872 405.482 53.3436 405.541 53.838C405.599 54.3284 405.489 54.8368 405.198 55.2826L402.801 58.9914C403.197 59.691 403.552 60.4102 403.87 61.1459C404.188 61.8847 404.464 62.6352 404.697 63.3944L409.101 64.3807C409.636 64.499 410.088 64.7834 410.407 65.1712C410.727 65.5606 410.913 66.0486 410.913 66.572V73.0416C410.913 73.5642 410.727 74.0523 410.407 74.4416C410.087 74.8294 409.636 75.113 409.101 75.2329L404.697 76.2177C404.464 76.9776 404.188 77.7297 403.87 78.4685C403.552 79.2034 403.197 79.9226 402.801 80.6214L405.198 84.3302C405.488 84.776 405.599 85.2837 405.541 85.7757C405.482 86.2692 405.255 86.7409 404.872 87.1114L400.128 91.6859C399.746 92.0541 399.256 92.2727 398.743 92.3299C398.234 92.3863 397.706 92.2806 397.244 92.0032L393.399 89.6905C392.673 90.0705 391.928 90.4152 391.166 90.7192C390.4 91.0263 389.621 91.2926 388.834 91.5183L387.812 95.7661C387.69 96.2808 387.394 96.7172 386.992 97.0251C386.587 97.3353 386.083 97.5147 385.539 97.5147H378.83C378.289 97.5147 377.782 97.3353 377.379 97.0251C376.977 96.7172 376.683 96.2816 376.56 95.7661L375.538 91.5183C374.751 91.2934 373.971 91.027 373.206 90.7199C372.443 90.4144 371.696 90.0705 370.97 89.6905L367.126 92.0032C366.665 92.2806 366.137 92.3863 365.628 92.3315L365.552 92.3205C365.07 92.2516 364.613 92.0369 364.247 91.6851L364.245 91.682L364.24 91.6851L359.5 87.1106C359.459 87.073 359.423 87.0331 359.391 86.9931C359.072 86.6429 358.885 86.2183 358.829 85.7741C358.771 85.2829 358.882 84.7752 359.169 84.3294L361.566 80.6206C361.174 79.9218 360.815 79.2026 360.499 78.4669C360.182 77.7289 359.906 76.9769 359.673 76.2169L355.268 75.2321C354.734 75.113 354.281 74.8287 353.964 74.4409C353.64 74.0515 353.455 73.5634 353.455 73.0408V66.5712C353.455 66.0479 353.641 65.5598 353.964 65.1704C354.282 64.7826 354.734 64.499 355.268 64.3799L359.673 63.3936C359.906 62.6336 360.182 61.8831 360.499 61.1435C360.815 60.4087 361.174 59.6903 361.566 58.9906L359.169 55.2818C358.881 54.8368 358.771 54.3284 358.829 53.8372L358.839 53.7651C358.912 53.2997 359.133 52.8579 359.5 52.5061L359.501 52.503L359.5 52.5006L364.24 47.9261C364.627 47.5556 365.114 47.3378 365.628 47.2806C366.137 47.2257 366.664 47.3307 367.126 47.6088L370.97 49.9215C371.695 49.5408 372.443 49.1961 373.203 48.8921C373.971 48.585 374.751 48.3194 375.538 48.0946L376.56 43.8452C376.682 43.3313 376.977 42.8949 377.379 42.5878C377.782 42.2775 378.289 42.0989 378.83 42.0989H385.539C386.083 42.0989 386.587 42.2783 386.992 42.5878C387.392 42.8949 387.689 43.3313 387.812 43.8452L388.834 48.0946ZM390.082 51.4117C389.187 51.0536 388.257 50.7551 387.298 50.5201V50.5177C386.801 50.3947 386.392 50.0148 386.268 49.4993L385.145 44.8315H379.223L378.122 49.4217C378.03 49.9388 377.633 50.3822 377.073 50.5193C376.114 50.7543 375.184 51.0528 374.289 51.4109C373.392 51.7697 372.52 52.1896 371.682 52.6691C371.239 52.9323 370.661 52.9488 370.191 52.6667L365.968 50.1268L361.783 54.1639L364.407 58.2221C364.685 58.642 364.713 59.1943 364.433 59.6519C363.931 60.4674 363.488 61.3159 363.114 62.1894C362.744 63.052 362.433 63.9498 362.187 64.8743L362.185 64.8735C362.061 65.3522 361.664 65.7486 361.132 65.8669L356.29 66.9504V72.6609L361.049 73.7248C361.586 73.8117 362.045 74.1956 362.187 74.7354C362.432 75.6599 362.741 76.5577 363.113 77.4203C363.485 78.286 363.921 79.1266 364.417 79.9359C364.691 80.3621 364.706 80.9183 364.415 81.3727L361.782 85.4458L365.967 89.4829L370.176 86.9524C370.609 86.6837 371.182 86.6555 371.657 86.9273C372.503 87.4115 373.384 87.8369 374.288 88.1988C375.184 88.5569 376.114 88.8554 377.072 89.0912L377.071 89.0935C377.569 89.215 377.979 89.5957 378.101 90.1112L379.222 94.7797H385.144L386.248 90.1888C386.337 89.6717 386.736 89.2283 387.297 89.092C388.255 88.8554 389.185 88.5569 390.08 88.1988C390.977 87.8408 391.85 87.4201 392.688 86.9406C393.131 86.6782 393.706 86.6617 394.177 86.9445L398.402 89.4837L402.587 85.4466L399.964 81.3884C399.686 80.9685 399.657 80.4169 399.938 79.9586C400.44 79.1423 400.88 78.2938 401.257 77.4211C401.626 76.5585 401.938 75.6607 402.18 74.7362L402.183 74.737C402.31 74.2575 402.704 73.8619 403.238 73.7436L408.079 72.6609V66.9504L403.318 65.8849C402.784 65.7987 402.324 65.4148 402.181 64.8751C401.938 63.9506 401.627 63.0536 401.258 62.191C400.886 61.3253 400.45 60.4839 399.952 59.6738C399.679 59.2484 399.661 58.6922 399.955 58.2378L402.588 54.1647L398.402 50.1276L394.193 52.6573C393.76 52.9253 393.188 52.9535 392.712 52.6832C391.867 52.199 390.986 51.7744 390.082 51.4117ZM382.185 59.0706C379.111 59.0706 376.329 60.2716 374.316 62.2145C372.3 64.1566 371.053 66.8407 371.053 69.806C371.053 72.7706 372.299 75.4546 374.314 77.3976C376.329 79.3397 379.111 80.5415 382.185 80.5415C385.258 80.5415 388.042 79.3397 390.057 77.3968C392.07 75.4546 393.317 72.7706 393.317 69.806C393.317 66.8407 392.071 64.1566 390.057 62.2145C388.042 60.2724 385.259 59.0706 382.185 59.0706ZM372.311 60.2825C369.784 62.7182 368.22 66.0863 368.22 69.806C368.22 73.5242 369.784 76.8922 372.311 79.3295C374.838 81.766 378.329 83.2741 382.185 83.2741C386.042 83.2741 389.533 81.766 392.06 79.3295C394.587 76.8922 396.149 73.5242 396.149 69.806C396.149 66.0863 394.587 62.7182 392.06 60.2825C389.533 57.8453 386.042 56.3379 382.185 56.3379C378.329 56.3379 374.839 57.8453 372.311 60.2825Z" fill="#A7BFBE"/>
<path fill-rule="evenodd" clip-rule="evenodd" d="M427.532 85.2719C428.197 85.4403 428.852 85.6511 429.487 85.9057C430.123 86.1603 430.74 86.458 431.336 86.7933L434.131 85.1144C434.575 84.8457 435.136 84.9076 435.508 85.2664L438.353 88.0116C438.726 88.3688 438.789 88.9102 438.513 89.3403L436.77 92.0338C437.122 92.6057 437.428 93.2042 437.691 93.8177C437.955 94.4311 438.174 95.0602 438.347 95.7018L441.552 96.4187C442.063 96.5331 442.416 96.96 442.416 97.4661V101.35C442.416 101.857 442.063 102.283 441.552 102.398L438.348 103.114C438.174 103.756 437.956 104.386 437.691 104.999C437.428 105.612 437.119 106.209 436.77 106.783L438.513 109.476C438.789 109.906 438.726 110.448 438.356 110.806L435.508 113.551C435.136 113.909 434.575 113.972 434.131 113.703L431.336 112.022C430.743 112.362 430.123 112.655 429.487 112.91C428.852 113.164 428.199 113.376 427.532 113.543L426.788 116.635C426.671 117.129 426.229 117.467 425.705 117.467H421.678C421.153 117.467 420.709 117.129 420.591 116.635L419.847 113.545C419.183 113.376 418.529 113.165 417.894 112.91C417.257 112.655 416.639 112.359 416.043 112.022L413.252 113.703C412.805 113.972 412.245 113.909 411.872 113.551L409.027 110.805C408.654 110.448 408.591 109.906 408.869 109.476L410.611 106.783C410.259 106.212 409.956 105.612 409.693 105C409.428 104.386 409.208 103.756 409.035 103.115L405.83 102.398C405.319 102.284 404.967 101.857 404.967 101.35V97.4661C404.967 96.96 405.319 96.5338 405.83 96.4187L409.033 95.7018C409.209 95.061 409.428 94.4303 409.693 93.8177C409.957 93.2042 410.264 92.6065 410.612 92.0338L408.87 89.3403C408.592 88.9102 408.655 88.3688 409.028 88.0116L411.873 85.2664C412.246 84.9076 412.805 84.8457 413.253 85.1144L416.044 86.7933C416.639 86.4541 417.258 86.1603 417.895 85.9057C418.53 85.6519 419.184 85.4403 419.848 85.2727L420.592 82.1812C420.709 81.6877 421.153 81.3484 421.679 81.3484H425.706C426.229 81.3484 426.672 81.6877 426.789 82.1812L427.532 85.2719ZM417.762 93.6915C416.185 95.2137 415.308 97.2562 415.308 99.4083C415.308 101.56 416.185 103.603 417.762 105.126C419.34 106.646 421.459 107.493 423.691 107.493C425.922 107.493 428.038 106.646 429.617 105.126C431.195 103.604 432.074 101.56 432.074 99.4083C432.074 97.2562 431.195 95.2137 429.617 93.6915C428.038 92.1701 425.922 91.3248 423.691 91.3248C421.459 91.324 419.341 92.1693 417.762 93.6915Z" fill="#A7BFBE"/>
<path fill-rule="evenodd" clip-rule="evenodd" d="M427.168 86.2912C426.828 86.2081 426.55 85.9496 426.468 85.5994L425.705 82.4233H421.678L420.926 85.5461C420.864 85.8971 420.595 86.1979 420.212 86.2919C419.561 86.4525 418.929 86.6547 418.321 86.8983C417.712 87.142 417.117 87.4279 416.547 87.7538C416.245 87.9325 415.855 87.945 415.535 87.7523L412.662 86.0256L409.814 88.7707L411.598 91.5308C411.787 91.8152 411.808 92.1912 411.617 92.5023C411.276 93.0577 410.974 93.6343 410.719 94.2282C410.467 94.815 410.256 95.4253 410.088 96.0536C410.005 96.3795 409.736 96.6482 409.373 96.7281L406.08 97.4646V101.349L409.315 102.073C409.681 102.132 409.994 102.392 410.091 102.761C410.256 103.389 410.467 103.998 410.719 104.586C410.971 105.174 411.268 105.747 411.607 106.297C411.792 106.587 411.802 106.965 411.606 107.273L409.813 110.043L412.661 112.789L415.521 111.07C415.817 110.887 416.206 110.868 416.53 111.052C417.107 111.382 417.702 111.671 418.319 111.917C418.927 112.16 419.56 112.364 420.21 112.525C420.55 112.608 420.828 112.867 420.913 113.217L421.677 116.393H425.703L426.452 113.271C426.514 112.919 426.785 112.618 427.166 112.525C427.818 112.365 428.45 112.161 429.057 111.918C429.67 111.674 430.261 111.388 430.834 111.062C431.133 110.883 431.527 110.872 431.847 111.064L434.718 112.791L437.566 110.045L435.781 107.286C435.592 107.001 435.573 106.625 435.764 106.314C436.106 105.759 436.404 105.182 436.662 104.588C436.913 104.001 437.123 103.391 437.29 102.763C437.377 102.437 437.643 102.168 438.009 102.088L441.299 101.352V97.4677L438.063 96.7438C437.698 96.6851 437.387 96.4242 437.288 96.0567C437.124 95.4276 436.914 94.8181 436.663 94.2313C436.408 93.6422 436.111 93.071 435.774 92.5195C435.588 92.2296 435.577 91.8512 435.774 91.5426L437.567 88.7723L434.719 86.0271L431.857 87.7476C431.562 87.9285 431.172 87.9489 430.85 87.764C430.274 87.435 429.676 87.1451 429.059 86.8991C428.451 86.6547 427.819 86.4533 427.168 86.2912ZM416.974 92.9316C418.694 91.2738 421.067 90.2483 423.692 90.2483C426.313 90.2483 428.688 91.2738 430.406 92.9316C432.124 94.5886 433.189 96.8786 433.189 99.4083C433.189 101.938 432.125 104.228 430.406 105.887C428.688 107.544 426.313 108.569 423.692 108.569C421.067 108.569 418.695 107.544 416.974 105.887C415.258 104.228 414.194 101.938 414.194 99.4083C414.194 96.8786 415.257 94.5886 416.974 92.9316Z" fill="#A7BFBE"/>
</svg>
