<svg width="130" height="341" viewBox="0 0 130 341" fill="none" xmlns="http://www.w3.org/2000/svg">
<path fill-rule="evenodd" clip-rule="evenodd" d="M6.45727 119.037C5.89759 124.496 7.76263 129.105 10.1386 131.087C13.5633 133.948 19.3363 134.448 25.1118 130.843C36.7261 123.594 43.4268 103.852 43.4268 103.852L22.436 90.5539C15.2479 102.759 7.53845 108.481 6.45727 119.037Z" fill="#AB6549"/>
<path fill-rule="evenodd" clip-rule="evenodd" d="M19.3509 117.546C15.3373 124.194 10.9135 125.98 5.35735 119.331C4.59216 118.416 8.53182 109.859 8.2662 108.961C6.60098 103.336 10.3977 105.24 10.3977 105.24L19.3509 117.546Z" fill="#B6473D"/>
<path fill-rule="evenodd" clip-rule="evenodd" d="M27.4219 100.42C27.0003 100.423 23.5919 97.9769 23.6203 97.6463C25.7989 72.9774 46.4039 61.3261 70.5618 61.0519C104.342 60.6696 116.783 79.4149 120.914 91.4752C122.864 97.1708 111.933 99.6222 111.55 99.6253L27.4219 100.42Z" fill="#B6473D"/>
<path fill-rule="evenodd" clip-rule="evenodd" d="M102.145 95.0124L100.367 154.968L41.6698 155.89L38.181 95.0124C51.9479 97.5382 48.6393 82.989 50.1981 64.1708C52.7561 63.374 55.3823 62.7363 58.0409 62.2443C57.5731 67.9078 57.1036 73.5697 56.6357 79.2324C56.2182 84.2582 57.2271 85.7012 60.1335 86.1047C63.7352 86.6053 78.5809 86.7879 81.1007 86.0507C83.6278 85.3111 84.4758 83.7395 84.5846 80.0103L82.6602 61.7241C85.3214 62.1659 87.9556 62.759 90.5339 63.5025C92.4103 81.0445 91.9847 94.182 102.145 95.0124Z" fill="#2E2B37"/>
<path fill-rule="evenodd" clip-rule="evenodd" d="M87.0053 96.5009C87.6511 96.5009 88.1718 97.0055 88.1718 97.626C88.1718 98.2472 87.6511 98.751 87.0053 98.751H53.5498C52.904 98.751 52.3816 98.2464 52.3816 97.626C52.3816 97.0055 52.904 96.5009 53.5498 96.5009H87.0053Z" fill="#52535A"/>
<path fill-rule="evenodd" clip-rule="evenodd" d="M87.2693 98.704C87.2742 98.5488 87.4106 98.4266 87.5707 98.4305C87.7331 98.4352 87.8598 98.5669 87.8557 98.722C87.7899 100.692 87.79 102.491 87.79 104.141C87.7924 110.951 87.7924 115.242 83.2743 118.012C82.9372 118.219 82.5514 118.433 82.1103 118.616C81.67 118.798 81.1868 118.949 80.662 119.023C73.0499 120.103 60.3293 119.106 60.2935 119.104C60.1311 119.091 60.01 118.954 60.0246 118.798C60.0368 118.643 60.1798 118.527 60.3406 118.539C60.3788 118.541 73.0336 119.532 80.575 118.462C81.0511 118.395 81.4873 118.262 81.8797 118.097C82.2728 117.933 82.6359 117.731 82.9608 117.532C87.2083 114.929 87.2051 110.758 87.2051 104.139C87.2051 102.484 87.2051 100.674 87.2693 98.704Z" fill="#52535A"/>
<path fill-rule="evenodd" clip-rule="evenodd" d="M52.6993 98.723C52.6945 98.5679 52.8195 98.4363 52.9819 98.4316C53.1452 98.4269 53.2793 98.5491 53.2834 98.705C53.35 100.675 53.35 102.484 53.3475 104.142C53.3475 110.761 53.3474 114.931 57.5942 117.536C58.8711 118.319 60.932 118.513 63.295 118.737L63.641 118.769C64.468 118.847 65.3323 118.904 66.2128 118.944C67.1786 118.987 68.159 119.009 69.1265 119.014C69.2889 119.015 69.4189 119.142 69.4189 119.297C69.4189 119.453 69.2865 119.578 69.1241 119.578C68.1396 119.573 67.1502 119.55 66.1876 119.508C65.3014 119.468 64.4281 119.411 63.5849 119.331L63.2405 119.298C60.8004 119.067 58.6713 118.866 57.279 118.013C52.7618 115.243 52.7619 110.952 52.7635 104.141C52.7627 102.491 52.7627 100.691 52.6993 98.723Z" fill="#52535A"/>
<path fill-rule="evenodd" clip-rule="evenodd" d="M91.5348 81.1769C91.5421 81.0218 91.681 80.9035 91.841 80.9121C92.001 80.9199 92.1237 81.0531 92.114 81.2074C91.9962 83.2311 91.0824 84.4242 89.9216 84.9523C89.4058 85.1865 88.8403 85.2876 88.2782 85.2696C87.7177 85.2523 87.1565 85.116 86.6431 84.8778C85.3897 84.2973 84.4052 83.1034 84.3727 81.5138C84.3702 81.3594 84.4994 81.2317 84.6602 81.2294C84.8203 81.227 84.9518 81.3508 84.9542 81.5059C84.9827 82.8597 85.821 83.8774 86.8957 84.3733C87.3359 84.5778 87.8169 84.6937 88.297 84.7102C88.7705 84.7251 89.244 84.6405 89.6746 84.4454C90.6558 83.9988 91.4284 82.9608 91.5348 81.1769Z" fill="#52535A"/>
<path fill-rule="evenodd" clip-rule="evenodd" d="M48.9782 81.2074C48.9684 81.0531 49.0935 80.9199 49.2535 80.9121C49.4135 80.9035 49.55 81.0218 49.5597 81.1769C49.6637 82.96 50.4363 83.9988 51.4183 84.4446C51.8489 84.6405 52.3224 84.7243 52.7959 84.7094C53.2768 84.6937 53.7577 84.5778 54.2004 84.3733C55.271 83.8774 56.1126 82.8589 56.1386 81.5044C56.1434 81.35 56.2759 81.227 56.4351 81.2294C56.5952 81.2325 56.7243 81.361 56.7202 81.5153C56.6877 83.1041 55.7056 84.2973 54.4498 84.8778C53.9364 85.116 53.376 85.2523 52.8155 85.2696C52.2525 85.2868 51.6871 85.1865 51.1713 84.9515C50.0106 84.425 49.0967 83.2311 48.9782 81.2074Z" fill="#52535A"/>
<path fill-rule="evenodd" clip-rule="evenodd" d="M88.0792 82.7007C88.915 82.7007 89.5982 82.041 89.5982 81.2325C89.5982 80.424 88.915 79.7651 88.0792 79.7651C87.2409 79.7651 86.5553 80.424 86.5553 81.2325C86.5553 82.041 87.2409 82.7007 88.0792 82.7007Z" fill="#52535A"/>
<path fill-rule="evenodd" clip-rule="evenodd" d="M52.6838 82.7007C53.5213 82.7007 54.2052 82.041 54.2052 81.2325C54.2052 80.424 53.5213 79.7651 52.6838 79.7651C51.8447 79.7651 51.1616 80.424 51.1616 81.2325C51.1616 82.041 51.8447 82.7007 52.6838 82.7007Z" fill="#52535A"/>
<path fill-rule="evenodd" clip-rule="evenodd" d="M121.32 98.136C123.475 106.922 124.079 115.3 124.34 120.945C117.879 115.228 107.41 112.565 100.664 113.913L100.493 101.611L121.32 98.136Z" fill="#AB6549"/>
<path fill-rule="evenodd" clip-rule="evenodd" d="M20.7164 100.826C37.3784 102.47 44.0271 104.718 44.0271 104.718C44.0271 104.718 45.5006 98.7878 46.4144 92.2555C47.3429 85.601 49.2907 78.1082 47.1991 73.2955C46.3843 71.4192 51.2769 64.5406 49.4606 64.7826C37.8089 66.3362 24.6293 67.7393 20.7164 100.826Z" fill="#B6473D"/>
<path fill-rule="evenodd" clip-rule="evenodd" d="M122.642 100.409C106.873 102.448 98.9494 104.388 98.9494 104.388C98.9494 104.388 92.7719 83.0203 96.5726 73.2947C97.3045 71.4183 89.4146 63.9537 91.2309 63.9874C105.332 64.2522 118.27 67.321 122.642 100.409Z" fill="#B6473D"/>
<path fill-rule="evenodd" clip-rule="evenodd" d="M45.3601 100.743C44.0816 106.556 44.0816 106.556 44.0816 106.556L18.8465 100.793L20.6693 94.9709L45.3601 100.743Z" fill="#6B8789"/>
<path fill-rule="evenodd" clip-rule="evenodd" d="M45.3698 100.236C45.5274 100.272 45.6225 100.423 45.5843 100.574C45.5494 100.724 45.3917 100.818 45.2358 100.782L21.9153 95.4057C21.7578 95.3705 21.6636 95.2185 21.6985 95.0681C21.7367 94.9184 21.8934 94.8244 22.0494 94.8605L45.3698 100.236Z" fill="#2E2B37"/>
<path fill-rule="evenodd" clip-rule="evenodd" d="M97.8349 100.743C99.1143 106.556 99.1142 106.556 99.1142 106.556L124.349 100.793L122.526 94.9709L97.8349 100.743Z" fill="#B6473D"/>
<path fill-rule="evenodd" clip-rule="evenodd" d="M97.9601 100.782C97.8049 100.818 97.6465 100.724 97.6107 100.574C97.5734 100.424 97.6693 100.272 97.8252 100.236L121.146 94.8604C121.301 94.8244 121.459 94.9176 121.497 95.068C121.532 95.2177 121.438 95.3705 121.28 95.4057L97.9601 100.782Z" fill="#2E2B37"/>
<path fill-rule="evenodd" clip-rule="evenodd" d="M95.9113 95.5287C95.9202 95.6831 95.8 95.8162 95.64 95.8264C95.4776 95.8358 95.3411 95.7183 95.329 95.564L94.4435 82.0363C94.4386 81.9917 94.4483 81.9501 94.4646 81.9118L96.8032 75.4821C96.8569 75.3364 97.0226 75.2596 97.1753 75.3105C97.3264 75.3606 97.406 75.5212 97.3524 75.667L95.0275 82.0559L95.9113 95.5287Z" fill="#2E2B37"/>
<path fill-rule="evenodd" clip-rule="evenodd" d="M46.6842 95.5632C46.672 95.7175 46.5356 95.835 46.3755 95.8256C46.2131 95.8155 46.0928 95.6823 46.1026 95.5279L46.9856 82.0551L44.6591 75.6662C44.6071 75.5205 44.6867 75.3598 44.8378 75.3097C44.9905 75.2588 45.1562 75.3356 45.2098 75.4813L47.5493 81.911C47.5663 81.9494 47.5745 81.9917 47.5704 82.0355L46.6842 95.5632Z" fill="#2E2B37"/>
<path fill-rule="evenodd" clip-rule="evenodd" d="M82.7683 65.816C82.8032 65.6648 82.9608 65.5708 83.1167 65.6053C83.2743 65.6405 83.371 65.7909 83.3361 65.9429C82.6391 68.8221 80.2388 70.913 77.1699 72.1407C74.9751 73.0174 72.4309 73.4553 69.9298 73.4224C67.423 73.3895 64.9528 72.8842 62.9107 71.8798C60.3568 70.624 58.4608 68.5917 57.9662 65.7267C57.941 65.5731 58.049 65.429 58.2066 65.4031C58.3642 65.378 58.5153 65.4815 58.5413 65.6342C59.0027 68.3011 60.7784 70.1993 63.1738 71.3776C65.138 72.3436 67.5173 72.8301 69.9363 72.8623C72.3594 72.8944 74.824 72.4713 76.9457 71.6221C79.8522 70.4602 82.1201 68.5001 82.7683 65.816Z" fill="#20201E"/>
<path fill-rule="evenodd" clip-rule="evenodd" d="M69.0249 99.283C70.5911 101.208 72.1946 103.596 72.7607 105.358C73.6924 108.266 64.7945 103.242 64.0033 101.311C63.8741 100.997 53.2346 103.935 54.2833 101.629C57.1515 95.314 63.9651 93.0711 69.0249 99.283Z" fill="#B6473D"/>
<path fill-rule="evenodd" clip-rule="evenodd" d="M71.3799 85.2163C70.6919 84.6468 69.648 84.722 69.0575 85.3848L46.1124 111.115C45.5202 111.777 45.6006 112.784 46.2862 113.354V113.354C46.9742 113.924 48.018 113.849 48.6086 113.186L71.5537 87.4554C72.1459 86.7926 72.0655 85.7859 71.3799 85.2163Z" fill="white"/>
<path fill-rule="evenodd" clip-rule="evenodd" d="M123.963 129.846C122.025 134.654 112.262 135.559 105.64 134.426C94.8863 132.581 82.6546 125.093 74.1432 119.116C69.3921 115.781 63.4217 113.462 57.677 112.385C53.8592 111.671 51.9438 111.642 49.6271 107.994C49.0666 107.114 51.8902 105.562 50.3963 105.836C48.9058 106.109 45.0993 104.769 45.9213 103.478C46.5899 102.429 60.8426 100.082 63.7352 98.809C66.5807 97.557 69.8429 101.054 71.3879 103.007C74.3155 104.194 92.6727 107.909 101.244 109.09C108.871 110.142 119.277 108.164 123.198 115.954C124.63 118.803 124.806 127.759 123.963 129.846Z" fill="#AB6549"/>
<path fill-rule="evenodd" clip-rule="evenodd" d="M72.6421 119.095C69.8705 117.106 66.8228 115.357 63.567 114.188C61.4307 113.421 57.3911 113.538 55.0923 113.368C51.2168 113.081 51.943 111.642 49.6263 107.994C49.0658 107.114 51.8894 105.562 50.3956 105.836C48.905 106.109 45.0985 104.769 45.9206 103.478C46.5891 102.429 60.8418 100.082 63.7344 98.809C66.5799 97.557 69.8422 100.757 71.3872 102.71C72.3814 103.113 76.7004 104.006 80.2673 104.795C80.2388 110.217 77.0545 116.863 72.6421 119.095Z" fill="#B6473D"/>
<path fill-rule="evenodd" clip-rule="evenodd" d="M63.5507 98.574C63.7018 98.5238 63.8692 98.6014 63.9204 98.7487C63.9723 98.8959 63.8927 99.0558 63.7392 99.1051C60.7475 100.101 55.4391 101.244 55.4253 101.247C55.2677 101.28 55.1117 101.184 55.0784 101.033C55.0427 100.884 55.1418 100.733 55.2993 100.699C55.314 100.696 60.576 99.5634 63.5507 98.574Z" fill="#2E2B37"/>
<path fill-rule="evenodd" clip-rule="evenodd" d="M114.501 112.268C114.626 112.365 114.646 112.542 114.544 112.662C114.442 112.782 114.258 112.8 114.134 112.703C111.392 110.554 106.83 109.946 102.641 109.388C101.891 109.287 101.152 109.189 100.488 109.092C100.328 109.069 100.219 108.926 100.243 108.772C100.266 108.619 100.415 108.513 100.575 108.535C101.307 108.644 102.009 108.737 102.72 108.832C106.988 109.4 111.63 110.018 114.501 112.268Z" fill="#2E2B37"/>
<path fill-rule="evenodd" clip-rule="evenodd" d="M42.7063 78.3737C29.6031 78.3737 16.503 78.3737 3.40297 78.3737C0.19518 78.3737 -0.207726 78.9206 0.881573 81.8561C6.85932 97.9237 12.8354 113.99 18.8132 130.056C20.4735 134.517 20.5864 134.799 25.5236 134.799C37.2858 134.799 49.0512 134.799 60.8133 134.799C66.4255 134.799 66.2517 134.661 64.3696 129.596C58.3025 113.288 52.2354 96.9812 46.1707 80.6731C45.6565 79.2935 44.218 78.3737 42.7063 78.3737Z" fill="#C07452"/>
<path fill-rule="evenodd" clip-rule="evenodd" d="M64.1893 134.285C64.2315 134.433 64.1414 134.589 63.9862 134.629C63.8335 134.67 63.6711 134.582 63.6288 134.434C63.4469 133.802 63.1503 133.003 62.7759 131.995L44.4585 82.7532C44.2253 82.1264 43.7802 81.6015 43.2238 81.2325C42.6568 80.8565 41.9711 80.6402 41.2669 80.6402H1.96032C1.67763 80.6402 1.4307 80.6441 1.226 80.652C1.00505 80.6598 0.801962 80.6731 0.611071 80.6935C0.453484 80.7099 0.307284 80.5971 0.291037 80.4436C0.273979 80.2892 0.390164 80.1506 0.550187 80.1341C0.742703 80.1145 0.962828 80.1004 1.20002 80.0918L1.20245 80.091C1.4567 80.0816 1.70934 80.0777 1.96116 80.0777H41.2677C42.0873 80.0777 42.8907 80.33 43.5544 80.7718C44.2091 81.2059 44.729 81.8232 45.0051 82.5651L63.3225 131.807C63.7011 132.828 64.0049 133.641 64.1893 134.285Z" fill="#582222"/>
<path fill-rule="evenodd" clip-rule="evenodd" d="M30.6932 76.4817H11.4407L11.3068 76.6854L13.6786 82.7304L13.9662 82.9326H33.2186L33.3535 82.7304L30.9783 76.6854L30.6932 76.4817Z" fill="#2E2B37"/>
<path fill-rule="evenodd" clip-rule="evenodd" d="M105.231 304.123C108.61 304.123 109.798 308.257 108.792 311.413C107.784 314.568 108.368 321.651 108.368 321.651C108.368 321.651 125.306 328.322 127.223 328.633C129.14 328.942 128.896 334.837 128.896 334.837L127.888 335.923C127.888 335.923 129.572 336.003 129.518 337.32C129.464 338.638 129.464 338.638 129.464 338.638L129.403 340.114H106.966L98.5554 337.321L96.7205 340.187H85.0874C85.0874 340.187 83.8933 328.168 84.0932 327.237C84.2914 326.306 86.9865 320.824 87.002 319.093C87.019 317.36 87.0654 312.163 87.0963 308.699C87.132 304.746 87.0556 304.123 90.6761 304.123H105.231Z" fill="#7A7C86"/>
<path fill-rule="evenodd" clip-rule="evenodd" d="M33.966 304.123C30.586 304.123 29.0572 308.257 29.8037 311.413C30.5502 314.568 29.3797 321.651 29.3797 321.651C29.3797 321.651 25.6276 326.867 22.1777 328.633C18.7246 330.398 19.9919 334.837 19.9919 334.837L20.9106 335.923C20.9106 335.923 19.2201 336.003 19.1657 337.32C19.1096 338.638 19.1097 338.638 19.1097 338.638L19.0512 340.114C35.6798 340.114 39.6114 340.187 54.4538 340.187C54.4538 340.187 54.3483 338.566 54.2443 336.469C54.2297 336.169 51.8187 335.842 51.9576 335.556C52.2354 334.98 53.6107 334.753 53.8463 333.25C54.6025 328.441 50.7181 322.403 50.961 319.093C51.0877 317.36 51.4718 312.164 51.7261 308.699C52.0153 304.747 52.1428 304.123 48.5232 304.123L33.966 304.123Z" fill="#7A7C86"/>
<path fill-rule="evenodd" clip-rule="evenodd" d="M51.7391 335.473C51.8991 335.473 52.0306 335.6 52.0306 335.754C52.0306 335.908 51.8991 336.035 51.7391 336.035H21.8471C21.6846 336.035 21.5555 335.908 21.5555 335.754C21.5555 335.6 21.6846 335.473 21.8471 335.473H51.7391Z" fill="#52535A"/>
<path fill-rule="evenodd" clip-rule="evenodd" d="M128.141 335.47C128.304 335.47 128.435 335.597 128.435 335.754C128.435 335.911 128.304 336.038 128.141 336.038H84.7129C84.548 336.038 84.4189 335.911 84.4189 335.754C84.4189 335.597 84.548 335.47 84.7129 335.47H128.141Z" fill="#52535A"/>
<path fill-rule="evenodd" clip-rule="evenodd" d="M98.5108 137.131C97.995 137.845 100.949 145.627 102.412 151.004C102.956 153.01 107.82 155.433 108.11 157.848C110.96 181.589 116.81 227.032 117.611 234.943C117.844 237.233 116.137 305.23 116.137 305.23C116.137 305.23 115.134 314.391 109.552 317.337C103.967 320.282 87.6755 317.337 87.6755 317.337C87.6755 317.337 82.1404 310.793 82.2176 308.83C82.2931 306.865 78.6539 260.075 78.7433 257.785C78.8326 255.492 83.0753 237.888 83.0753 237.888L71.5763 194.504L69.5578 194.004L59.4138 239.031L60.789 254.38L57.963 312.103L51.359 316.357H30.7703L24.6317 308.83C25.3912 267.858 23.1436 234.186 29.2115 193.116C30.1984 186.422 31.1472 164.235 32.6459 157.594C33.1236 155.466 36.8025 153.513 37.2403 151.786C38.3922 147.248 41.0143 140.596 41.7559 140.55L98.5108 137.131Z" fill="#2E2B37"/>
<path fill-rule="evenodd" clip-rule="evenodd" d="M106.175 155.136C106.291 155.245 106.295 155.423 106.185 155.534C106.073 155.646 105.888 155.648 105.772 155.541L96.476 146.911C96.3606 146.804 96.3582 146.627 96.4687 146.515C96.5799 146.404 96.7636 146.4 96.8814 146.506L106.175 155.136Z" fill="#52535A"/>
<path fill-rule="evenodd" clip-rule="evenodd" d="M34.8269 155.282C34.7091 155.39 34.5256 155.386 34.4143 155.275C34.3038 155.163 34.3063 154.985 34.4224 154.878L43.7184 146.249C43.8337 146.14 44.0197 146.144 44.1302 146.256C44.2415 146.368 44.2367 146.544 44.1238 146.654L34.8269 155.282Z" fill="#52535A"/>
<path fill-rule="evenodd" clip-rule="evenodd" d="M96.0097 140.399C96.1648 140.362 96.3232 140.454 96.3614 140.605C96.3988 140.757 96.3029 140.907 96.1469 140.943C70.0541 147.099 42.9605 140.997 42.8833 140.98C42.7281 140.945 42.629 140.796 42.6632 140.643C42.6989 140.493 42.8565 140.397 43.0125 140.432C43.0897 140.45 70.0541 146.523 96.0097 140.399Z" fill="#52535A"/>
<path fill-rule="evenodd" clip-rule="evenodd" d="M95.4889 136.091C95.6416 136.044 95.8074 136.122 95.8585 136.271C95.9065 136.42 95.8235 136.579 95.6708 136.626C74.7524 143.175 43.4885 137.851 43.3959 137.834C43.2383 137.809 43.1294 137.662 43.1578 137.51C43.1838 137.356 43.3374 137.251 43.495 137.278C43.5851 137.293 74.7126 142.597 95.4889 136.091Z" fill="#52535A"/>
<path fill-rule="evenodd" clip-rule="evenodd" d="M74.7647 192.964C74.9198 192.998 75.0189 193.148 74.984 193.3C74.9483 193.449 74.7931 193.546 74.6371 193.512C65.4606 191.499 55.4034 189.832 55.3725 189.827C55.2149 189.8 55.1094 189.654 55.137 189.501C55.1654 189.348 55.3164 189.246 55.474 189.273C55.5025 189.277 65.5434 190.941 74.7647 192.964Z" fill="#52535A"/>
<path fill-rule="evenodd" clip-rule="evenodd" d="M113.533 241.165C113.689 241.129 113.847 241.224 113.883 241.375C113.918 241.526 113.821 241.677 113.665 241.712C106.232 243.386 97.2435 241.344 93.9204 240.591L93.1616 240.42C93.004 240.387 92.905 240.237 92.9399 240.085C92.9756 239.935 93.1308 239.839 93.2867 239.873L94.0519 240.043C97.3402 240.789 106.234 242.807 113.533 241.165Z" fill="#52535A"/>
<path fill-rule="evenodd" clip-rule="evenodd" d="M110.688 244.534C110.839 244.484 111.006 244.562 111.058 244.707C111.11 244.853 111.03 245.014 110.879 245.064C108.77 245.77 106.245 246.013 103.843 246.013C99.9899 246.013 96.4239 245.39 95.411 245.066C95.2582 245.018 95.1754 244.859 95.2249 244.712C95.2769 244.565 95.4427 244.485 95.5954 244.533C96.5775 244.846 100.056 245.451 103.843 245.451C106.194 245.45 108.653 245.216 110.688 244.534Z" fill="#52535A"/>
<path fill-rule="evenodd" clip-rule="evenodd" d="M49.1926 241.165C49.3501 241.129 49.5061 241.224 49.541 241.375C49.5792 241.526 49.4809 241.677 49.3249 241.712C41.894 243.386 32.905 241.344 29.5818 240.591L28.8207 240.42C28.6655 240.387 28.5665 240.237 28.5998 240.085C28.6347 239.935 28.7899 239.839 28.9458 239.873L29.7134 240.043C32.9992 240.789 41.894 242.807 49.1926 241.165Z" fill="#52535A"/>
<path fill-rule="evenodd" clip-rule="evenodd" d="M46.347 244.534C46.4997 244.484 46.6653 244.562 46.7165 244.707C46.7709 244.853 46.6914 245.014 46.5378 245.064C44.4315 245.77 41.9077 246.013 39.5025 246.013C35.6513 246.013 32.0829 245.39 31.07 245.066C30.9189 245.018 30.8352 244.859 30.8864 244.712C30.936 244.565 31.1009 244.485 31.2536 244.533C32.2357 244.846 35.7147 245.451 39.5017 245.451C41.8533 245.45 44.3146 245.216 46.347 244.534Z" fill="#52535A"/>
<path fill-rule="evenodd" clip-rule="evenodd" d="M29.9637 326.461C29.6412 326.461 29.3788 326.209 29.3788 325.897C29.3788 325.586 29.6404 325.334 29.9637 325.334H45.464C45.7865 325.334 46.0481 325.586 46.0481 325.897C46.0481 326.209 45.7873 326.461 45.464 326.461H29.9637Z" fill="#52535A"/>
<path fill-rule="evenodd" clip-rule="evenodd" d="M32.2268 323.814C31.9051 323.814 31.6427 323.563 31.6427 323.251C31.6427 322.94 31.9043 322.688 32.2268 322.688H45.464C45.7865 322.688 46.0481 322.939 46.0481 323.251C46.0481 323.562 45.7873 323.814 45.464 323.814H32.2268Z" fill="#52535A"/>
<path fill-rule="evenodd" clip-rule="evenodd" d="M32.7076 321.168C32.3851 321.168 32.1235 320.916 32.1235 320.605C32.1235 320.294 32.3843 320.042 32.7076 320.042H45.464C45.7864 320.042 46.048 320.294 46.048 320.605C46.048 320.916 45.7873 321.168 45.464 321.168H32.7076Z" fill="#52535A"/>
<path fill-rule="evenodd" clip-rule="evenodd" d="M111.209 328.441C110.976 328.654 110.608 328.647 110.384 328.424C110.163 328.202 110.17 327.845 110.401 327.631L114.693 323.629C114.923 323.413 115.293 323.42 115.517 323.645C115.738 323.868 115.732 324.224 115.5 324.438L111.209 328.441Z" fill="#52535A"/>
<path fill-rule="evenodd" clip-rule="evenodd" d="M108.048 327.069C107.817 327.285 107.448 327.279 107.224 327.055C107.002 326.831 107.009 326.477 107.24 326.261L111.423 322.36C111.653 322.146 112.023 322.153 112.245 322.377C112.469 322.599 112.462 322.956 112.228 323.171L108.048 327.069Z" fill="#52535A"/>
<path fill-rule="evenodd" clip-rule="evenodd" d="M104.977 326.036C104.746 326.252 104.376 326.245 104.152 326.021C103.931 325.797 103.938 325.443 104.168 325.227L108.564 321.129C108.795 320.915 109.164 320.923 109.386 321.146C109.609 321.368 109.603 321.725 109.372 321.939L104.977 326.036Z" fill="#52535A"/>
<path fill-rule="evenodd" clip-rule="evenodd" d="M15.6427 113.647C15.6078 111.877 12.7152 107.445 12.7152 107.445C12.7152 107.445 17.7572 102.271 17.5249 100.359C17.2917 98.4478 14.5623 99.4851 14.5623 99.4851C14.5623 99.4851 16.5541 97.8861 15.412 96.443C14.2699 94.9999 12.6193 96.2973 12.6193 96.2973C12.6193 96.2973 15.2057 93.4855 13.2716 92.9348C11.3358 92.3848 7.3458 95.2906 5.57173 97.7631C4.93082 98.6594 4.54986 99.3182 4.32323 99.7969C4.02024 101.937 3.65473 101.531 4.97148 105.438C6.28822 109.345 7.95589 114.269 7.95589 114.269C11.6714 121.899 15.6785 115.419 15.6427 113.647Z" fill="#B6473D"/>
<path fill-rule="evenodd" clip-rule="evenodd" d="M15.1837 103.405C16.6751 102.363 17.961 103.653 17.4476 104.992C16.931 106.332 13.5868 110.599 13.5868 110.599C13.5868 110.599 9.31887 107.772 15.1837 103.405Z" fill="#B6473D"/>
<path fill-rule="evenodd" clip-rule="evenodd" d="M16.2153 102.571C16.3518 102.49 16.5313 102.532 16.6134 102.664C16.6978 102.796 16.6532 102.969 16.5167 103.05C13.3771 104.905 11.664 107.189 11.6599 107.196C11.5633 107.32 11.3789 107.345 11.2522 107.251C11.1255 107.16 11.0995 106.983 11.1937 106.86C11.2002 106.853 12.9767 104.485 16.2153 102.571Z" fill="#2E2B37"/>
<path fill-rule="evenodd" clip-rule="evenodd" d="M14.369 99.341C14.5079 99.2642 14.6874 99.3112 14.767 99.4452C14.8474 99.5807 14.797 99.7523 14.6581 99.829C11.4739 101.584 9.81517 103.959 9.8103 103.965C9.71932 104.09 9.53732 104.12 9.40573 104.031C9.27576 103.941 9.24572 103.766 9.33751 103.64C9.34238 103.633 11.071 101.158 14.369 99.341Z" fill="#2E2B37"/>
<path fill-rule="evenodd" clip-rule="evenodd" d="M12.6656 95.7732C12.8029 95.6925 12.9816 95.7356 13.0636 95.8672C13.1481 95.9988 13.1042 96.1719 12.9669 96.2511C9.62755 98.2026 8.12486 100.377 8.11998 100.382C8.03307 100.512 7.85351 100.548 7.71948 100.464C7.58545 100.381 7.54723 100.206 7.63252 100.077C7.63739 100.07 9.21249 97.7905 12.6656 95.7732Z" fill="#2E2B37"/>
<path fill-rule="evenodd" clip-rule="evenodd" d="M88.8216 33.0314C86.7835 33.0416 84.6496 35.6121 84.0541 38.7748C83.4612 41.9368 84.6309 44.4931 86.669 44.4829C88.7062 44.4728 90.8401 41.9023 91.4331 38.7395C92.0293 35.5776 90.8588 33.022 88.8216 33.0314Z" fill="#AB6549"/>
<path fill-rule="evenodd" clip-rule="evenodd" d="M87.8842 42.1569C87.816 40.3017 86.4237 40.3378 85.5171 40.9606C85.5098 39.0263 86.9419 36.2192 88.2538 35.594C90.3731 34.6735 90.7647 40.6073 87.8842 42.1569Z" fill="#8E503D"/>
<path fill-rule="evenodd" clip-rule="evenodd" d="M89.6192 36.4997C89.6826 36.6125 89.824 36.6517 89.9352 36.5906C90.0465 36.5279 90.0879 36.3861 90.0246 36.2741C89.7533 35.7813 89.4348 35.4906 89.0961 35.3621C88.6956 35.2125 88.2781 35.2877 87.876 35.5282C87.504 35.7484 87.1409 36.1127 86.8095 36.5639C85.9452 37.743 85.2807 39.5575 85.2856 40.9598C85.2856 41.0891 85.3887 41.1933 85.5163 41.1933C85.5658 41.1933 85.6097 41.1776 85.6455 41.1518C85.9371 40.9535 86.2791 40.8211 86.5967 40.8086C86.7567 40.8031 86.911 40.8266 87.0475 40.8885C87.1791 40.9488 87.2993 41.0468 87.396 41.1886C87.5422 41.404 87.6364 41.7221 87.6526 42.1632C87.6575 42.2924 87.7656 42.3927 87.8931 42.388C88.0198 42.3833 88.1189 42.2752 88.114 42.1467C88.0953 41.6085 87.9703 41.2105 87.777 40.9253C87.6283 40.7075 87.4455 40.5571 87.2375 40.4631C87.0328 40.3699 86.8095 40.3338 86.5804 40.3432C86.3091 40.3534 86.0264 40.4286 85.7648 40.5509C85.8713 39.3107 86.4505 37.8362 87.1807 36.8397C87.4748 36.4362 87.7932 36.1158 88.1116 35.9278C88.3967 35.7586 88.6761 35.7014 88.9336 35.797C89.1749 35.8878 89.408 36.1119 89.6192 36.4997Z" fill="#2E2B37"/>
<path fill-rule="evenodd" clip-rule="evenodd" d="M79.5223 51.2346L81.077 63.07C81.5855 66.9426 76.2674 70.1374 70.3335 70.1374C64.4427 70.1374 59.659 67.0194 59.5907 63.1546L60.9758 51.3169L79.5223 51.2346Z" fill="#AB6549"/>
<path fill-rule="evenodd" clip-rule="evenodd" d="M80.5913 59.3683C73.6907 64.3274 64.5157 63.168 60.031 59.391L60.9758 51.3153L80.3459 46.4697L80.5913 59.3683Z" fill="#8E503D"/>
<path fill-rule="evenodd" clip-rule="evenodd" d="M50.7165 28.688C50.766 35.1185 50.2786 42.739 53.3646 48.4307C56.3888 54.0096 61.1132 57.2655 67.6043 57.235C79.8522 57.1778 86.6568 45.6769 86.5276 28.8063C86.3408 4.41314 50.5304 4.29484 50.7165 28.688Z" fill="#AB6549"/>
<path fill-rule="evenodd" clip-rule="evenodd" d="M68.4993 51.313C68.2118 52.1364 67.2792 52.7412 66.1696 52.7459C65.0649 52.7514 64.1299 52.163 63.8212 51.3521C63.4411 50.3486 64.9227 50.7364 66.1721 50.7332C67.4019 50.7285 68.8405 50.3368 68.4993 51.313Z" fill="#8E503D"/>
<path fill-rule="evenodd" clip-rule="evenodd" d="M79.9528 22.0562C80.8951 21.9544 82.8828 22.9297 84.5042 22.824C85.2718 22.7738 88.279 21.6848 89.2075 21.641C89.4252 26.3878 89.6055 27.2927 88.6632 32.4799C88.5649 32.9938 86.4561 33.7945 86.3505 34.281C86.2279 34.8521 85.4391 38.3212 84.9152 40.3613C84.7536 40.9951 83.8324 43.1119 83.6318 40.9104C83.462 39.0145 83.9542 35.6301 83.778 34.5489C83.5684 33.2515 82.8106 31.5617 81.8163 30.8213C80.9894 30.2055 80.5231 23.9098 79.9528 22.0562Z" fill="#2E2B37"/>
<path fill-rule="evenodd" clip-rule="evenodd" d="M56.5902 21.7123C59.8686 22.1251 66.3249 21.6527 73.7729 20.1438C81.2225 18.6357 81.8179 28.7186 81.8179 28.7186L86.1093 33.8783C86.2222 34.0146 87.0378 33.5978 87.7437 33.3001C88.4017 33.0228 88.9166 32.8982 89.1083 32.6295C90.6444 30.4539 93.0367 22.7738 91.906 19.1371C90.6485 15.0891 85.6951 14.8838 85.6878 14.5273C85.6577 13.0984 85.2548 11.7845 84.5668 10.5937C84.3523 10.1158 84.0371 9.5815 83.6034 8.98451C80.5174 5.11511 72.4903 0.748215 63.1285 0.748215C59.2627 0.748215 57.6421 2.06753 57.7672 3.82478C57.7875 4.12562 58.1442 5.50683 58.2636 5.82882C54.7195 3.06876 39.791 4.7132 47.9075 16.3935C47.2828 20.3115 48.0017 25.1782 50.6417 31.0994C51.6205 25.1939 53.3117 21.2994 56.5902 21.7123Z" fill="#2E2B37"/>
<path fill-rule="evenodd" clip-rule="evenodd" d="M84.695 14.3056C85.3936 14.8094 86.9159 13.9805 88.0962 12.4544C89.2756 10.929 89.668 9.28457 88.9678 8.7816C88.2684 8.27785 86.7469 9.10752 85.5659 10.6329C84.3856 12.1582 83.9957 13.8027 84.695 14.3056Z" fill="#2E2B37"/>
<path fill-rule="evenodd" clip-rule="evenodd" d="M84.8519 15.2889C85.1378 16.084 86.8803 16.2235 88.7453 15.6022C90.6112 14.981 91.8921 13.8324 91.607 13.038C91.3219 12.2428 89.5795 12.1034 87.7137 12.7247C85.8486 13.3451 84.5676 14.4937 84.8519 15.2889Z" fill="#2E2B37"/>
<path fill-rule="evenodd" clip-rule="evenodd" d="M79.143 13.7282C72.9654 15.7166 65.303 16.0206 58.6023 15.0154C57.9094 14.9112 57.2311 14.7929 56.5723 14.6621C51.77 13.7079 47.9497 12.1151 45.5543 10.9235C45.3 8.30996 46.7557 6.61695 48.7905 5.65959C51.5832 7.4474 57.0028 10.1338 65.0275 10.7465C65.9056 10.8138 66.8179 10.8569 67.7594 10.8695C69.4197 10.893 70.9184 10.8789 72.2701 10.8319C79.2136 10.5953 82.3021 9.55642 83.5587 8.92576C83.5733 8.94456 83.5895 8.96414 83.6041 8.98295C84.0371 9.57993 84.3531 10.1134 84.5676 10.5921C84.6642 10.759 84.7536 10.9282 84.8381 11.0982C83.1753 12.1809 81.2461 13.0521 79.143 13.7282Z" fill="#52535A"/>
<path fill-rule="evenodd" clip-rule="evenodd" d="M71.0222 45.6033C71.0718 45.4058 70.9581 45.2029 70.7697 45.152C69.721 45.1865 61.6401 45.1449 61.4988 45.2037C61.3201 45.2797 61.2299 45.4951 61.3031 45.6847C62.1584 47.9262 64.1608 49.5048 66.5229 49.305C70.2238 48.9916 71.019 45.6127 71.0222 45.6033Z" fill="white"/>
<path fill-rule="evenodd" clip-rule="evenodd" d="M63.169 39.9962C63.0886 40.174 62.8774 40.2539 62.693 40.1764C62.5094 40.1004 62.4249 39.8936 62.5053 39.7173C62.6093 39.4893 62.7003 39.1767 62.7758 38.8445C62.8652 38.4512 62.9285 38.0368 62.9578 37.6968C62.9748 37.5049 63.1503 37.3607 63.3509 37.3771C63.5483 37.3928 63.6995 37.562 63.6832 37.7548C63.6499 38.1214 63.5817 38.5688 63.485 38.991C63.4021 39.3624 63.2941 39.7189 63.169 39.9962Z" fill="#F0D4B8"/>
<path fill-rule="evenodd" clip-rule="evenodd" d="M63.1836 41.1933C63.4711 42.0159 64.4036 42.6207 65.5124 42.6262C66.6147 42.6309 67.5529 42.0425 67.8616 41.2317C68.2409 40.2281 66.7593 40.6167 65.5084 40.612C64.281 40.6081 62.8424 40.2171 63.1836 41.1933Z" fill="#8E503D"/>
<path fill-rule="evenodd" clip-rule="evenodd" d="M71.3156 27.1791C70.8989 27.3648 70.7162 27.8458 70.9087 28.2509C71.1036 28.6559 71.6015 28.8345 72.0182 28.6488C72.0272 28.6457 74.538 27.4815 76.957 28.9332C77.3502 29.1698 77.8685 29.0531 78.1105 28.6731C78.3567 28.2932 78.2332 27.7925 77.84 27.5552C74.6444 25.6381 71.3254 27.176 71.3156 27.1791Z" fill="#2E2B37"/>
<path fill-rule="evenodd" clip-rule="evenodd" d="M60.9815 27.2244C61.4031 27.407 61.5939 27.8856 61.4047 28.293C61.217 28.7004 60.724 28.8814 60.3032 28.7004C60.2935 28.6965 57.7639 27.555 55.3684 29.0295C54.9793 29.27 54.4595 29.1572 54.2102 28.7803C53.96 28.4019 54.0753 27.8997 54.4644 27.6592C57.6275 25.7124 60.9717 27.2213 60.9815 27.2244Z" fill="#2E2B37"/>
<path d="M75.1741 36.5631C76.3162 36.5631 77.2422 35.4877 77.2422 34.1611C77.2422 32.8345 76.3162 31.7591 75.1741 31.7591C74.0319 31.7591 73.1059 32.8345 73.1059 34.1611C73.1059 35.4877 74.0319 36.5631 75.1741 36.5631Z" fill="#2E2B37"/>
<path fill-rule="evenodd" clip-rule="evenodd" d="M58.4869 36.5642C59.6257 36.5642 60.5541 35.4846 60.5541 34.1621C60.5541 32.8389 59.6257 31.7601 58.4869 31.7601C57.3464 31.7601 56.4163 32.8389 56.4163 34.1621C56.4163 35.4846 57.3464 36.5642 58.4869 36.5642Z" fill="#2E2B37"/>
<path fill-rule="evenodd" clip-rule="evenodd" d="M76.5972 32.1367C76.1732 32.1367 75.8312 32.4673 75.8312 32.8747C75.8312 33.2821 76.1732 33.6112 76.5972 33.6112C77.0188 33.6112 77.3599 33.2813 77.3599 32.8747C77.3607 32.4666 77.0188 32.1367 76.5972 32.1367Z" fill="white"/>
<path fill-rule="evenodd" clip-rule="evenodd" d="M60.018 32.1367C59.5956 32.1367 59.252 32.4673 59.252 32.8747C59.252 33.2821 59.5964 33.6112 60.018 33.6112C60.4396 33.6112 60.7824 33.2813 60.7824 32.8747C60.7824 32.4666 60.4396 32.1367 60.018 32.1367Z" fill="white"/>
</svg>
