<svg width="204" height="556" viewBox="0 0 204 556" fill="none" xmlns="http://www.w3.org/2000/svg">
<mask id="mask0_2_368" style="mask-type:luminance" maskUnits="userSpaceOnUse" x="-9" y="0" width="213" height="565">
<path d="M203.245 0.0289917H-8.504V564.394H203.245V0.0289917Z" fill="white"/>
</mask>
<g mask="url(#mask0_2_368)">
<path fill-rule="evenodd" clip-rule="evenodd" d="M-3.46201 366.622L-21.992 405.898L-24.229 432.048L-37.183 613.531L-38.066 778.835H37.037L44.089 624.76L39.046 613.409L58.074 490.292L66.599 489.808L86.803 606.89L83.325 613.679L91.854 778.835H167.563L160.269 605.297L140.617 424.485L138.909 403.29L119.467 364.179L-3.46201 366.622Z" fill="#2E2B37"/>
<path fill-rule="evenodd" clip-rule="evenodd" d="M8.99799 369.293C8.64799 369.196 8.44299 368.834 8.53899 368.483C8.63599 368.132 8.99799 367.926 9.34899 368.023C59.35 381.993 111.285 368.14 111.435 368.101C111.787 368.01 112.147 368.221 112.238 368.573C112.329 368.926 112.118 369.285 111.766 369.376C111.613 369.415 59.341 383.357 8.99799 369.293Z" fill="#7A7C86"/>
<path fill-rule="evenodd" clip-rule="evenodd" d="M7.46799 377.13C7.12699 377.005 6.95399 376.629 7.07999 376.292C7.20699 375.955 7.58599 375.784 7.92599 375.909C47.941 390.745 107.9 378.651 108.073 378.616C108.429 378.547 108.776 378.775 108.846 379.127C108.917 379.481 108.687 379.822 108.331 379.894C108.158 379.928 47.833 392.098 7.46799 377.13Z" fill="#7A7C86"/>
<path fill-rule="evenodd" clip-rule="evenodd" d="M-22.205 418.426C-22.468 418.678 -22.886 418.67 -23.139 418.407C-23.392 418.144 -23.383 417.726 -23.121 417.474L-4.06202 399.168L-0.278015 387.135C-0.170015 386.786 0.200986 386.592 0.549986 386.7C0.897986 386.808 1.09199 387.18 0.983986 387.526L-2.85201 399.722C-2.88401 399.825 -2.94101 399.921 -3.02501 400L-22.205 418.426Z" fill="#7A7C86"/>
<path fill-rule="evenodd" clip-rule="evenodd" d="M139.123 412.477C139.423 412.685 139.498 413.095 139.291 413.395C139.083 413.695 138.673 413.771 138.373 413.563L120.667 401.368C120.552 401.289 120.47 401.18 120.425 401.057L113.342 382.375C113.213 382.034 113.386 381.652 113.727 381.525C114.069 381.395 114.449 381.568 114.578 381.91L121.587 400.398L139.123 412.477Z" fill="#7A7C86"/>
<path fill-rule="evenodd" clip-rule="evenodd" d="M36.686 493.211C36.336 493.31 35.971 493.105 35.873 492.754C35.775 492.403 35.98 492.041 36.33 491.942C58.474 485.666 94.018 490.476 94.121 490.489C94.481 490.536 94.735 490.867 94.688 491.227C94.641 491.586 94.31 491.841 93.95 491.794C93.848 491.781 58.572 487.007 36.686 493.211Z" fill="#7A7C86"/>
<path fill-rule="evenodd" clip-rule="evenodd" d="M155.638 268.553C156.593 268.563 164.309 262.816 164.243 262.041C159.309 204.127 112.659 176.774 57.956 176.133C-18.529 175.234 -46.698 219.24 -56.051 247.556C-60.468 260.926 -35.716 266.681 -34.847 266.69L155.638 268.553Z" fill="#B6473D"/>
<path fill-rule="evenodd" clip-rule="evenodd" d="M-13.551 255.86L-9.52503 396.615L123.378 398.778L131.274 255.86C100.103 261.788 107.597 227.631 104.066 183.454C98.272 181.586 92.329 180.086 86.305 178.932C87.368 192.225 88.43 205.519 89.493 218.811C90.435 230.612 88.152 233.999 81.569 234.948C73.418 236.122 39.806 236.551 34.096 234.818C28.374 233.083 26.453 229.394 26.208 220.641L30.567 177.71C24.54 178.747 18.577 180.141 12.737 181.884C8.48597 223.066 9.45397 253.909 -13.551 255.86Z" fill="#2E2B37"/>
<path fill-rule="evenodd" clip-rule="evenodd" d="M20.727 264.635C19.269 264.635 18.086 263.453 18.086 261.994C18.086 260.535 19.269 259.352 20.727 259.352H96.48C97.939 259.352 99.123 260.535 99.123 261.994C99.123 263.453 97.939 264.635 96.48 264.635H20.727Z" fill="#52535A"/>
<path fill-rule="evenodd" clip-rule="evenodd" d="M18.805 264.568C18.793 264.202 19.08 263.896 19.446 263.884C19.812 263.873 20.117 264.159 20.129 264.526C20.276 269.149 20.275 273.398 20.274 277.29C20.272 292.831 20.27 302.619 29.887 308.732C30.62 309.198 31.44 309.67 32.334 310.057C33.225 310.443 34.209 310.755 35.285 310.914C52.363 313.428 81.02 311.1 81.103 311.095C81.469 311.066 81.79 311.339 81.818 311.705C81.847 312.07 81.573 312.391 81.208 312.42C81.125 312.426 52.324 314.764 35.093 312.228C33.9 312.053 32.805 311.706 31.81 311.274C30.818 310.844 29.943 310.343 29.175 309.855C18.945 303.35 18.947 293.28 18.95 277.29C18.95 273.417 18.951 269.19 18.805 264.568Z" fill="#52535A"/>
<path fill-rule="evenodd" clip-rule="evenodd" d="M97.08 264.526C97.092 264.16 97.398 263.874 97.764 263.884C98.13 263.896 98.417 264.201 98.406 264.568C98.259 269.191 98.26 273.417 98.26 277.29C98.263 293.28 98.264 303.35 88.035 309.855C84.883 311.859 80.066 312.331 74.542 312.87L73.759 312.946C71.856 313.136 69.879 313.27 67.869 313.363C65.686 313.464 63.448 313.515 61.215 313.528C60.849 313.53 60.552 313.233 60.55 312.868C60.548 312.503 60.844 312.205 61.209 312.203C63.406 312.19 65.624 312.14 67.812 312.038C69.802 311.946 71.756 311.813 73.629 311.628L74.417 311.552C79.767 311.029 84.432 310.573 87.323 308.734C96.94 302.62 96.938 292.833 96.935 277.292C96.934 273.398 96.933 269.15 97.08 264.526Z" fill="#52535A"/>
<path fill-rule="evenodd" clip-rule="evenodd" d="M9.15897 223.45C9.13897 223.088 9.41797 222.776 9.78097 222.756C10.144 222.736 10.455 223.016 10.475 223.378C10.71 227.566 12.463 230.002 14.685 231.05C15.661 231.51 16.731 231.708 17.806 231.672C18.89 231.637 19.979 231.362 20.979 230.882C23.408 229.717 25.31 227.328 25.373 224.148C25.379 223.785 25.68 223.497 26.043 223.503C26.406 223.51 26.694 223.811 26.687 224.174C26.614 227.905 24.388 230.706 21.546 232.07C20.382 232.628 19.114 232.946 17.847 232.988C16.569 233.031 15.292 232.794 14.122 232.243C11.494 231.003 9.42597 228.2 9.15897 223.45Z" fill="#52535A"/>
<path fill-rule="evenodd" clip-rule="evenodd" d="M105.514 223.378C105.533 223.016 105.844 222.736 106.207 222.756C106.57 222.777 106.848 223.088 106.828 223.45C106.561 228.2 104.493 231.003 101.865 232.242C100.695 232.793 99.418 233.03 98.14 232.987C96.873 232.945 95.604 232.627 94.44 232.069C91.598 230.705 89.372 227.904 89.299 224.173C89.292 223.81 89.581 223.509 89.944 223.502C90.308 223.496 90.608 223.784 90.615 224.147C90.678 227.328 92.58 229.716 95.009 230.881C96.009 231.362 97.098 231.636 98.182 231.671C99.256 231.707 100.327 231.509 101.303 231.049C103.525 230.002 105.278 227.565 105.514 223.378Z" fill="#52535A"/>
<path fill-rule="evenodd" clip-rule="evenodd" d="M18.299 226.953C20.197 226.953 21.745 225.405 21.745 223.508C21.745 221.61 20.197 220.062 18.299 220.062C16.401 220.062 14.853 221.61 14.853 223.508C14.853 225.405 16.401 226.953 18.299 226.953Z" fill="#52535A"/>
<path fill-rule="evenodd" clip-rule="evenodd" d="M98.439 226.953C100.337 226.953 101.885 225.405 101.885 223.508C101.885 221.61 100.337 220.062 98.439 220.062C96.541 220.062 94.994 221.61 94.994 223.508C94.994 225.405 96.541 226.953 98.439 226.953Z" fill="#52535A"/>
<path fill-rule="evenodd" clip-rule="evenodd" d="M-56.97 263.192C-60.477 302.772 -58.472 332.845 -58.472 332.845C-58.472 332.845 -37.93 347.374 2.151 349.379C42.232 351.383 93.336 339.86 107.364 334.849C121.393 329.839 89.829 310.299 89.829 310.299C89.829 310.299 51.751 309.798 30.708 305.79C9.66601 301.782 -4.59599 301.153 -4.59599 301.153L-8.604 271.347L-56.97 263.192Z" fill="#E1A679"/>
<path fill-rule="evenodd" clip-rule="evenodd" d="M-9.874 287.08C28.203 282.963 119.889 296.637 119.889 296.637L119.714 272.03L168.789 262.659C172.943 261.865 176.498 330.61 169.651 339.432C162.802 348.253 130.911 351.508 108.365 347.471C85.82 343.436 36.72 317.233 26.7 311.988C16.679 306.744 -20.896 300.351 -20.896 300.351L-9.874 287.08Z" fill="#E1A679"/>
<path fill-rule="evenodd" clip-rule="evenodd" d="M109.124 295.102C115.414 286.946 118.442 278.855 125.898 277.539C133.353 276.224 136.148 276.224 136.148 276.224C136.148 276.224 136.629 279.407 135.162 281.777C141.004 280.828 143.254 280.828 143.254 280.828C143.254 280.828 144.069 286.222 140.342 288.195C139.186 288.806 137.896 289.43 136.667 290C142.419 289.003 144.59 289.003 144.59 289.003C144.59 289.003 145.253 293.385 142.224 294.987C139.196 296.589 135.033 298.3 135.033 298.3L135.011 298.335C126.482 297.035 117.487 296.851 109.124 295.102Z" fill="#B6473D"/>
<path fill-rule="evenodd" clip-rule="evenodd" d="M26.7 311.986C26.952 312.118 27.229 312.263 27.528 312.421C27.984 310.396 28.579 308.223 29.349 305.916C29.716 304.817 30.123 303.688 30.574 302.532C32.359 297.953 34.833 292.927 38.245 287.552C31.975 287.112 25.792 286.766 19.883 286.55C-5.757 285.617 -5.052 281.276 -20.896 300.35C-20.896 300.35 -17.334 300.957 -12.111 301.948C-0.369996 304.177 19.764 308.357 26.7 311.986Z" fill="#B6473D"/>
<path fill-rule="evenodd" clip-rule="evenodd" d="M25.409 311.94C25.072 311.802 24.908 311.419 25.044 311.081C25.181 310.743 25.565 310.58 25.903 310.718C37.073 315.244 48.789 321.788 59.677 327.87C68.784 332.956 77.309 337.718 84.428 340.686C84.764 340.826 84.924 341.211 84.784 341.548C84.645 341.884 84.259 342.043 83.923 341.903C76.75 338.912 68.186 334.129 59.037 329.019C48.193 322.962 36.522 316.444 25.409 311.94Z" fill="#2E2B37"/>
<path fill-rule="evenodd" clip-rule="evenodd" d="M170.822 269.51C133.093 273.366 118.04 278.644 118.04 278.644C118.04 278.644 114.699 264.72 112.634 249.386C110.53 233.762 106.119 216.175 110.854 204.874C112.7 200.469 101.626 184.321 105.736 184.89C132.119 188.537 161.96 191.831 170.822 269.51Z" fill="#B6473D"/>
<path fill-rule="evenodd" clip-rule="evenodd" d="M107.419 295.42C107.055 295.42 106.759 295.125 106.759 294.76C106.759 294.396 107.055 294.1 107.419 294.1C107.742 294.1 110.373 294.477 113.905 294.981C119.902 295.838 128.517 297.072 132.517 297.443C136.143 297.779 140.076 298.351 143.656 299.321C147.29 300.305 150.587 301.704 152.885 303.683C153.16 303.92 153.19 304.337 152.952 304.612C152.714 304.887 152.298 304.917 152.023 304.679C149.894 302.846 146.777 301.533 143.315 300.595C139.799 299.643 135.947 299.081 132.398 298.752C128.307 298.373 119.706 297.143 113.719 296.287C110.25 295.791 107.665 295.42 107.419 295.42Z" fill="#2E2B37"/>
<path fill-rule="evenodd" clip-rule="evenodd" d="M-59.959 268.527C-24.257 273.317 -6.31401 277.87 -6.31401 277.87C-6.31401 277.87 7.67099 227.704 -0.933014 204.874C-2.59301 200.469 15.271 182.946 11.161 183.025C-20.768 183.645 -50.061 190.85 -59.959 268.527Z" fill="#B6473D"/>
<path fill-rule="evenodd" clip-rule="evenodd" d="M115.02 269.313C117.917 282.959 117.917 282.959 117.917 282.959L175.053 269.428L170.926 255.761L115.02 269.313Z" fill="#B6473D"/>
<path fill-rule="evenodd" clip-rule="evenodd" d="M115.303 269.402C114.949 269.486 114.594 269.268 114.51 268.915C114.426 268.563 114.645 268.207 114.998 268.123L167.801 255.501C168.155 255.417 168.509 255.636 168.593 255.989C168.678 256.341 168.459 256.697 168.106 256.781L115.303 269.402Z" fill="#2E2B37"/>
<path fill-rule="evenodd" clip-rule="evenodd" d="M1.87899 257.152C1.85599 257.515 1.54299 257.792 1.17999 257.768C0.816986 257.745 0.539985 257.433 0.562985 257.069L2.56399 225.442L-2.70401 210.441C-2.82401 210.097 -2.64201 209.722 -2.29901 209.602C-1.95601 209.483 -1.58101 209.664 -1.46101 210.007L3.83899 225.104C3.87499 225.193 3.89199 225.29 3.88599 225.392L1.87899 257.152Z" fill="#2E2B37"/>
<path fill-rule="evenodd" clip-rule="evenodd" d="M113.341 257.069C113.364 257.433 113.088 257.746 112.725 257.768C112.362 257.791 112.049 257.515 112.027 257.152L110.017 225.392C110.011 225.29 110.028 225.193 110.064 225.104L115.365 210.007C115.485 209.663 115.861 209.483 116.203 209.602C116.547 209.722 116.728 210.097 116.608 210.441L111.341 225.442L113.341 257.069Z" fill="#2E2B37"/>
<path fill-rule="evenodd" clip-rule="evenodd" d="M29.04 187.613C28.957 187.258 29.178 186.903 29.532 186.821C29.887 186.739 30.242 186.96 30.324 187.314C31.79 193.615 36.924 198.218 43.504 200.946C48.313 202.941 53.886 203.933 59.375 203.858C64.851 203.783 70.237 202.643 74.686 200.375C80.112 197.609 84.133 193.152 85.177 186.89C85.236 186.531 85.576 186.288 85.935 186.348C86.294 186.408 86.537 186.747 86.477 187.107C85.356 193.834 81.066 198.604 75.285 201.551C70.657 203.91 65.067 205.096 59.39 205.173C53.726 205.251 47.97 204.226 42.999 202.164C36.048 199.281 30.613 194.373 29.04 187.613Z" fill="#2E2B37"/>
<path fill-rule="evenodd" clip-rule="evenodd" d="M19.787 309.134C19.625 309.458 19.23 309.589 18.905 309.427C18.58 309.266 18.448 308.87 18.611 308.545C25.161 295.443 29.785 286.659 29.798 286.634C29.968 286.312 30.366 286.189 30.688 286.358C31.01 286.526 31.133 286.926 30.964 287.248C30.951 287.273 26.283 296.143 19.787 309.134Z" fill="#2E2B37"/>
<path fill-rule="evenodd" clip-rule="evenodd" d="M119.891 291.572C119.713 291.89 119.311 292.004 118.993 291.825C118.676 291.647 118.563 291.245 118.741 290.927C120.328 288.091 122.438 285.909 124.829 284.292C127.509 282.479 130.544 281.382 133.593 280.873C133.952 280.813 134.292 281.057 134.352 281.415C134.411 281.774 134.169 282.113 133.81 282.174C130.938 282.653 128.083 283.685 125.566 285.385C123.339 286.894 121.373 288.929 119.891 291.572Z" fill="#2E2B37"/>
<path fill-rule="evenodd" clip-rule="evenodd" d="M127.404 295.387C127.179 295.67 126.765 295.719 126.48 295.494C126.196 295.269 126.148 294.855 126.372 294.57C128.189 292.267 130.044 290.839 132.177 289.865C134.285 288.902 136.632 288.394 139.476 287.921C139.835 287.861 140.175 288.105 140.234 288.463C140.295 288.822 140.051 289.162 139.693 289.221C136.946 289.679 134.691 290.164 132.723 291.063C130.778 291.951 129.079 293.263 127.404 295.387Z" fill="#2E2B37"/>
<path fill-rule="evenodd" clip-rule="evenodd" d="M115.379 286.331C115.201 286.648 114.799 286.762 114.482 286.584C114.164 286.405 114.051 286.004 114.229 285.686C115.562 283.307 117.228 281.397 119.115 279.889V279.886C121.188 278.232 123.522 277.068 125.967 276.304C126.363 276.18 127.798 276.006 129.549 275.835C131.581 275.638 134.052 275.439 135.803 275.334H135.824C135.947 275.329 136.065 275.347 136.177 275.388L136.179 275.389C136.592 275.539 136.815 275.93 136.875 276.475C136.914 276.819 136.89 277.263 136.814 277.751C136.653 278.784 136.245 280.071 135.699 281.029C135.516 281.35 135.212 281.604 134.849 281.804C134.535 281.978 134.185 282.113 133.842 282.218C133.494 282.327 133.124 282.133 133.016 281.785C132.908 281.437 133.101 281.067 133.449 280.96C133.731 280.872 134.003 280.771 134.215 280.653C134.378 280.563 134.502 280.469 134.554 280.378C135.022 279.556 135.373 278.444 135.513 277.549C135.567 277.203 135.588 276.898 135.569 276.667C133.838 276.778 131.551 276.962 129.672 277.144C128.007 277.305 126.67 277.464 126.359 277.561C124.063 278.278 121.875 279.368 119.935 280.917C118.182 282.317 116.629 284.101 115.379 286.331Z" fill="#2E2B37"/>
<path fill-rule="evenodd" clip-rule="evenodd" d="M10.56 110.351C15.174 110.373 20.005 116.409 21.352 123.833C22.698 131.257 20.05 137.256 15.436 137.234C10.823 137.212 5.99099 131.175 4.64399 123.752C3.29799 116.328 5.94599 110.328 10.56 110.351Z" fill="#E1A679"/>
<path fill-rule="evenodd" clip-rule="evenodd" d="M12.68 131.772C12.838 127.415 15.986 127.502 18.041 128.964C18.055 124.422 14.813 117.832 11.845 116.363C7.04199 114.205 6.16099 128.135 12.68 131.772Z" fill="#C07452"/>
<path fill-rule="evenodd" clip-rule="evenodd" d="M8.74797 118.492C8.60797 118.756 8.28897 118.85 8.03597 118.704C7.78397 118.557 7.69197 118.225 7.83197 117.961C8.44797 116.804 9.16497 116.121 9.93597 115.821C10.842 115.469 11.783 115.646 12.697 116.21C13.538 116.728 14.361 117.582 15.111 118.642C17.07 121.413 18.573 125.67 18.562 128.965C18.562 129.266 18.328 129.511 18.039 129.511C17.93 129.511 17.828 129.475 17.745 129.415C17.087 128.948 16.314 128.639 15.591 128.61C15.231 128.595 14.884 128.653 14.575 128.798C14.275 128.94 14.005 129.168 13.787 129.501C13.456 130.008 13.239 130.752 13.202 131.79C13.192 132.092 12.949 132.328 12.66 132.316C12.371 132.306 12.146 132.052 12.156 131.751C12.201 130.487 12.486 129.551 12.922 128.884C13.255 128.373 13.674 128.02 14.144 127.799C14.604 127.581 15.111 127.496 15.628 127.517C16.245 127.54 16.882 127.718 17.477 128.003C17.236 125.094 15.927 121.633 14.27 119.29C13.602 118.345 12.881 117.592 12.164 117.149C11.519 116.753 10.882 116.618 10.302 116.842C9.76097 117.056 9.23297 117.579 8.74797 118.492Z" fill="#2E2B37"/>
<path fill-rule="evenodd" clip-rule="evenodd" d="M107.982 110.833C103.369 110.811 98.448 116.8 96.992 124.21C95.536 131.62 98.095 137.646 102.708 137.668C107.321 137.69 112.242 131.701 113.699 124.291C115.155 116.881 112.596 110.856 107.982 110.833Z" fill="#E1A679"/>
<path fill-rule="evenodd" clip-rule="evenodd" d="M105.544 132.233C105.451 127.876 102.302 127.93 100.226 129.373C100.279 124.833 103.619 118.274 106.609 116.834C111.442 114.722 112.116 128.658 105.544 132.233Z" fill="#C07452"/>
<path fill-rule="evenodd" clip-rule="evenodd" d="M110.596 118.472C110.733 118.738 110.638 119.07 110.383 119.213C110.128 119.356 109.81 119.256 109.674 118.989C109.205 118.077 108.689 117.551 108.156 117.333C107.579 117.099 106.939 117.227 106.288 117.615C105.564 118.048 104.832 118.792 104.149 119.729C102.454 122.055 101.09 125.507 100.805 128.418C101.409 128.135 102.056 127.964 102.681 127.949C103.192 127.937 103.691 128.03 104.145 128.252C104.607 128.478 105.019 128.833 105.342 129.339C105.77 130.012 106.041 130.953 106.069 132.222C106.074 132.523 105.844 132.773 105.556 132.779C105.267 132.784 105.028 132.545 105.022 132.243C105.001 131.203 104.793 130.454 104.468 129.944C104.257 129.614 103.994 129.385 103.701 129.242C103.399 129.096 103.057 129.033 102.7 129.042C101.972 129.059 101.186 129.364 100.516 129.83C100.431 129.888 100.329 129.921 100.221 129.92C99.932 129.916 99.701 129.668 99.704 129.367C99.743 126.067 101.312 121.815 103.316 119.065C104.083 118.014 104.919 117.17 105.768 116.664C106.69 116.113 107.633 115.948 108.534 116.314C109.296 116.625 110 117.315 110.596 118.472Z" fill="#2E2B37"/>
<path fill-rule="evenodd" clip-rule="evenodd" d="M37.671 153.082L34.15 180.868C32.998 189.959 45.042 197.461 58.477 197.461C71.814 197.461 82.642 190.141 82.801 181.068L79.662 153.276L37.671 153.082Z" fill="#E1A679"/>
<path fill-rule="evenodd" clip-rule="evenodd" d="M35.251 172.18C50.875 183.823 71.648 181.101 81.803 172.235L79.662 153.277L37.671 153.083L35.251 172.18Z" fill="#C07452"/>
<path fill-rule="evenodd" clip-rule="evenodd" d="M102.425 100.852C102.133 140.461 86.328 167.307 58.598 167.172C30.869 167.038 15.461 140.04 15.752 100.432C16.175 43.163 102.847 43.584 102.425 100.852Z" fill="#E1A679"/>
<path fill-rule="evenodd" clip-rule="evenodd" d="M102.425 100.852C102.419 101.604 102.406 102.349 102.39 103.091C98.129 105.773 106.448 100.935 93.821 103.518C92.985 103.689 86.533 84.398 85.514 84.573C72.606 86.796 46.111 89.037 32.523 83.01C31.054 82.359 28.301 98.524 25.794 100.951C18.976 107.551 19.693 104.939 15.769 103.908C15.75 102.76 15.744 101.601 15.752 100.431C15.813 92.198 17.664 85.163 20.775 79.312C40.147 66.368 82.308 67.202 98.736 81.82C101.128 87.251 102.479 93.593 102.425 100.852Z" fill="#C07452"/>
<path fill-rule="evenodd" clip-rule="evenodd" d="M29.005 87.147C26.875 86.909 24.003 86.636 20.335 86.387C18.598 86.27 16.681 86.158 14.579 86.057C13.981 87.98 13.65 89.836 13.589 91.57C13.409 96.692 14.312 103.549 15.46 109.755C16.658 116.23 18.123 121.992 18.903 124.327C18.917 124.268 18.931 124.211 18.946 124.152C19.803 120.586 19.796 116.601 20.344 113.095C20.822 110.05 21.721 107.366 23.972 105.627C26.692 103.526 26.79 98.745 27.935 93.234C28.335 91.315 28.48 88.919 29.005 87.147Z" fill="#2E2B37"/>
<path fill-rule="evenodd" clip-rule="evenodd" d="M89.446 87.147C91.577 86.909 94.448 86.636 98.116 86.387C99.853 86.27 101.771 86.158 103.872 86.057C104.471 87.98 104.801 89.836 104.862 91.57C105.043 96.692 104.139 103.549 102.992 109.755C101.794 116.23 100.328 121.992 99.549 124.327C99.535 124.268 99.52 124.211 99.506 124.152C98.649 120.586 98.656 116.601 98.107 113.095C97.63 110.05 96.731 107.366 94.48 105.627C91.76 103.526 91.662 98.745 90.517 93.234C90.117 91.315 89.972 88.919 89.446 87.147Z" fill="#2E2B37"/>
<path fill-rule="evenodd" clip-rule="evenodd" d="M73.751 136.979C50.414 136.613 44.415 136.843 44.415 136.843C44.415 136.843 46.809 148.009 57.98 149.047C62.292 149.448 70.129 147.412 73.751 136.979Z" fill="#2E2B37"/>
<path fill-rule="evenodd" clip-rule="evenodd" d="M49.647 145.554C51.643 147.301 54.346 148.71 57.979 149.048C60.68 149.299 64.762 148.594 68.325 145.471C64.855 142.457 60.883 141.745 58.226 141.967C54.471 142.281 51.688 143.746 49.647 145.554Z" fill="#B6473D"/>
<path fill-rule="evenodd" clip-rule="evenodd" d="M72.438 140.078C55.479 139.82 48.084 139.888 45.522 139.935C44.698 138.163 44.415 136.844 44.415 136.844C44.415 136.844 50.415 136.614 73.751 136.98C73.359 138.107 72.918 139.138 72.438 140.078Z" fill="white"/>
<path fill-rule="evenodd" clip-rule="evenodd" d="M53.747 125.77C53.566 126.185 53.082 126.375 52.668 126.194C52.252 126.013 52.063 125.53 52.243 125.114C52.477 124.579 52.685 123.845 52.855 123.064C53.057 122.143 53.2 121.168 53.267 120.373C53.305 119.92 53.702 119.584 54.154 119.621C54.607 119.658 54.943 120.055 54.906 120.508C54.833 121.367 54.678 122.418 54.461 123.411C54.272 124.28 54.03 125.118 53.747 125.77Z" fill="#F0D4B8"/>
<path fill-rule="evenodd" clip-rule="evenodd" d="M53.776 128.578C54.427 130.511 56.538 131.931 59.053 131.943C61.55 131.955 63.67 130.573 64.367 128.669C65.228 126.312 61.872 127.225 59.043 127.216C56.264 127.207 53.005 126.286 53.776 128.578Z" fill="#C07452"/>
<path fill-rule="evenodd" clip-rule="evenodd" d="M47.396 96.611C48.344 97.049 48.759 98.176 48.319 99.127C47.88 100.079 46.753 100.497 45.806 100.06C45.79 100.053 40.101 97.32 34.625 100.729C33.733 101.284 32.561 101.01 32.009 100.119C31.458 99.227 31.734 98.05 32.627 97.495C39.86 92.991 47.376 96.603 47.396 96.611Z" fill="#2E2B37"/>
<path fill-rule="evenodd" clip-rule="evenodd" d="M70.801 96.718C69.847 97.146 69.415 98.27 69.839 99.226C70.264 100.181 71.383 100.611 72.338 100.182C72.354 100.175 78.085 97.494 83.507 100.954C84.391 101.517 85.569 101.255 86.133 100.367C86.697 99.479 86.439 98.301 85.556 97.738C78.394 93.168 70.822 96.709 70.801 96.718Z" fill="#2E2B37"/>
<path fill-rule="evenodd" clip-rule="evenodd" d="M40.154 118.641C42.735 118.641 44.838 116.109 44.838 113.001C44.838 109.897 42.735 107.362 40.154 107.362C37.574 107.362 35.47 109.896 35.47 113.001C35.47 116.108 37.574 118.641 40.154 118.641Z" fill="#2E2B37"/>
<path fill-rule="evenodd" clip-rule="evenodd" d="M77.939 118.641C80.519 118.641 82.623 116.109 82.623 113.001C82.623 109.897 80.52 107.362 77.939 107.362C75.359 107.362 73.255 109.896 73.255 113.001C73.255 116.108 75.36 118.641 77.939 118.641Z" fill="#2E2B37"/>
<path fill-rule="evenodd" clip-rule="evenodd" d="M53.776 154.2C54.427 156.133 56.538 157.553 59.053 157.564C61.55 157.576 63.67 156.196 64.367 154.29C65.228 151.933 61.872 152.845 59.043 152.837C56.264 152.829 53.005 151.908 53.776 154.2Z" fill="#C07452"/>
<path fill-rule="evenodd" clip-rule="evenodd" d="M43.457 108.249C44.413 108.249 45.188 109.024 45.188 109.981C45.188 110.937 44.412 111.712 43.457 111.712C42.5 111.712 41.725 110.937 41.725 109.981C41.725 109.024 42.5 108.249 43.457 108.249Z" fill="white"/>
<path fill-rule="evenodd" clip-rule="evenodd" d="M80.995 108.249C81.951 108.249 82.726 109.024 82.726 109.981C82.726 110.937 81.95 111.712 80.995 111.712C80.039 111.712 79.263 110.937 79.263 109.981C79.262 109.024 80.038 108.249 80.995 108.249Z" fill="white"/>
<path fill-rule="evenodd" clip-rule="evenodd" d="M27.787 90.854C29.349 87.002 30.702 77.32 30.702 77.32C30.702 77.32 34.658 82.733 57.561 82.525C80.463 82.317 87.959 79.402 87.959 79.402L91.082 95.017L103.782 92.727C107.495 92.057 110.227 72.247 93.788 65.868C93.098 65.601 97.416 61.826 92.885 54.913C90.169 50.77 81.331 46.447 76.963 44.688C65.351 40.012 42.507 38.967 33.63 39.963C23.984 41.046 19.642 50.123 28.62 52.96C28.62 52.96 19.667 52.127 13.213 57.332C6.75898 62.537 15.711 67.95 15.711 67.95C8.39898 77.238 13.121 92.977 13.421 92.934L27.787 90.854Z" fill="#2E2B37"/>
<path fill-rule="evenodd" clip-rule="evenodd" d="M25.986 51.721C40.692 57.337 59.618 60.323 75.375 60.481C82.494 60.552 89.146 60.018 94.667 58.737C94.361 57.595 93.806 56.319 92.885 54.914C92.143 53.783 90.947 52.64 89.509 51.538C70.758 51.779 53.668 51.833 38.595 39.656C36.673 39.708 34.988 39.812 33.63 39.965C25.123 40.919 20.74 48.095 25.986 51.721Z" fill="#44424E"/>
</g>
</svg>
