<svg width="173" height="316" viewBox="0 0 173 316" fill="none" xmlns="http://www.w3.org/2000/svg">
<path fill-rule="evenodd" clip-rule="evenodd" d="M89.6356 74.5791C88.2471 82.994 94.8887 124.624 103.374 118.589L117.549 108.505L114.192 72.6832C114.192 72.6832 92.1337 74.102 89.6356 74.5791Z" fill="#AB6549"/>
<path fill-rule="evenodd" clip-rule="evenodd" d="M99.2119 118.398C105.308 127.975 132.535 126.943 144.004 126.505C149.896 126.283 152.564 128.947 157.553 131.115C160.868 132.557 162.292 133.552 166.63 131.776C167.675 131.346 166.729 128.564 167.626 129.584C168.523 130.604 172.281 131.523 172.61 130.021C172.71 129.568 164.877 115.254 150.478 116.835C142.508 115.301 126.559 110.352 117.73 105.932C105.243 99.6773 96.0766 103.403 95.6059 110.22C95.5186 111.494 98.4711 117.232 99.2119 118.398Z" fill="#AB6549"/>
<path fill-rule="evenodd" clip-rule="evenodd" d="M93.3069 102.901C106.045 104.502 117.674 98.7897 117.674 98.7897C117.674 98.7897 117.019 62.5274 107.824 58.5828C88.6256 50.3481 82.7239 87.346 93.3069 102.901Z" fill="#E7B575"/>
<path fill-rule="evenodd" clip-rule="evenodd" d="M85.7849 280.161C89.1461 280.161 90.3283 284.262 89.3264 287.389C88.3254 290.517 88.9047 297.537 88.9047 297.537C88.9047 297.537 105.761 304.148 107.67 304.455C109.58 304.763 109.339 310.604 109.339 310.604L108.334 311.682C108.334 311.682 110.011 311.758 109.956 313.065C109.902 314.372 109.902 314.372 109.902 314.372L109.843 315.833H87.5071L79.1375 313.065L77.3117 315.907H65.7301C65.7301 315.907 64.5431 303.994 64.7413 303.072C64.9396 302.149 67.622 296.716 67.6392 295.001C67.6539 293.283 67.7003 288.133 67.7313 284.698C67.7672 280.782 67.6914 280.161 71.2941 280.161H85.7849Z" fill="#7A7C86"/>
<path fill-rule="evenodd" clip-rule="evenodd" d="M14.8458 280.161C11.4845 280.161 9.96134 284.262 10.7037 287.389C11.4462 290.517 10.2828 297.537 10.2828 297.537C10.2828 297.537 6.54708 302.706 3.11242 304.455C-0.324684 306.205 0.935754 310.604 0.935754 310.604L1.85197 311.682C1.85197 311.682 0.168077 311.758 0.112601 313.065C0.0587557 314.372 0.0587728 314.372 0.0587728 314.372L1.52588e-05 315.833C16.5516 315.833 20.4644 315.907 35.2391 315.907C35.2391 315.907 35.133 314.301 35.0311 312.22C35.0164 311.924 32.6162 311.6 32.7533 311.317C33.0298 310.745 34.3971 310.52 34.6337 309.032C35.3859 304.265 31.5214 298.281 31.7628 295.001C31.8901 293.284 32.2711 288.134 32.5248 284.699C32.8128 280.783 32.9409 280.162 29.3358 280.162H14.8458V280.161Z" fill="#7A7C86"/>
<path fill-rule="evenodd" clip-rule="evenodd" d="M32.5379 311.234C32.6962 311.234 32.8267 311.36 32.8267 311.514C32.8267 311.667 32.697 311.793 32.5379 311.793H2.78284C2.62293 311.793 2.49239 311.668 2.49239 311.514C2.49239 311.361 2.62293 311.234 2.78284 311.234H32.5379Z" fill="#52535A"/>
<path fill-rule="evenodd" clip-rule="evenodd" d="M108.587 311.231C108.749 311.231 108.882 311.358 108.882 311.513C108.882 311.669 108.749 311.796 108.587 311.796H65.3581C65.1973 311.796 65.0652 311.669 65.0652 311.513C65.0652 311.358 65.1973 311.231 65.3581 311.231H108.587Z" fill="#52535A"/>
<path fill-rule="evenodd" clip-rule="evenodd" d="M79.0951 114.665C78.5819 115.372 81.5222 123.084 82.9768 128.414C83.5185 130.402 87.9681 132.877 88.6468 135.197C95.6116 158.99 97.3077 203.764 98.1072 211.603C98.3365 213.872 96.6379 281.262 96.6379 281.262C96.6379 281.262 95.6394 290.343 90.0811 293.259C84.5244 296.179 68.3081 293.259 68.3081 293.259C68.3081 293.259 62.7988 286.774 62.8747 284.829C62.9505 282.882 59.329 236.509 59.4188 234.239C59.5061 231.968 63.7288 214.521 63.7288 214.521L52.2843 171.524L50.2741 171.03L40.1774 215.653L41.5471 230.866L38.7325 288.072L32.161 292.288H11.6681L5.55748 284.83C6.31213 244.222 4.07753 210.851 10.1139 170.15C11.0978 163.514 12.0442 141.526 13.5314 134.944C14.0095 132.836 17.6709 130.898 18.1066 129.187C19.2537 124.691 21.8635 118.098 22.601 118.053L79.0951 114.665Z" fill="#2E2B37"/>
<path fill-rule="evenodd" clip-rule="evenodd" d="M86.7231 132.509C86.8398 132.616 86.8422 132.793 86.7329 132.902C86.622 133.013 86.4376 133.017 86.3217 132.91L77.0693 124.359C76.9535 124.252 76.9495 124.075 77.0596 123.965C77.1714 123.854 77.3557 123.85 77.4691 123.956L86.7231 132.509Z" fill="#52535A"/>
<path fill-rule="evenodd" clip-rule="evenodd" d="M15.704 132.655C15.5881 132.762 15.4062 132.757 15.2945 132.647C15.1835 132.536 15.1859 132.359 15.3018 132.252L24.5566 123.701C24.67 123.595 24.8544 123.597 24.9654 123.709C25.0771 123.818 25.0722 123.995 24.958 124.102L15.704 132.655Z" fill="#52535A"/>
<path fill-rule="evenodd" clip-rule="evenodd" d="M76.6035 117.902C76.7593 117.866 76.916 117.958 76.9543 118.107C76.9918 118.256 76.8956 118.406 76.7414 118.443C50.7693 124.545 23.8011 118.495 23.7236 118.479C23.5686 118.445 23.4707 118.296 23.5058 118.148C23.5417 117.998 23.6951 117.902 23.8517 117.936C23.9292 117.955 50.7669 123.973 76.6035 117.902Z" fill="#52535A"/>
<path fill-rule="evenodd" clip-rule="evenodd" d="M76.0854 113.631C76.2396 113.584 76.4052 113.666 76.4517 113.811C76.5023 113.959 76.4191 114.118 76.2649 114.163C55.4457 120.655 24.3241 115.377 24.2344 115.362C24.0761 115.337 23.9692 115.191 23.9953 115.039C24.0238 114.887 24.1731 114.785 24.3314 114.81C24.4211 114.825 55.4057 120.081 76.0854 113.631Z" fill="#52535A"/>
<path fill-rule="evenodd" clip-rule="evenodd" d="M55.4555 169.997C55.6113 170.032 55.7108 170.181 55.6749 170.33C55.6398 170.479 55.4865 170.574 55.3299 170.541C46.1966 168.546 36.1847 166.893 36.1561 166.889C35.9987 166.861 35.8942 166.718 35.9203 166.566C35.9481 166.416 36.0974 166.314 36.2557 166.339C36.285 166.343 46.2798 167.994 55.4555 169.997Z" fill="#52535A"/>
<path fill-rule="evenodd" clip-rule="evenodd" d="M94.0452 217.768C94.201 217.734 94.3576 217.827 94.3935 217.977C94.4311 218.125 94.334 218.275 94.1774 218.312C86.781 219.967 77.8338 217.946 74.5239 217.199L73.7693 217.03C73.6127 216.996 73.5139 216.849 73.549 216.698C73.5825 216.549 73.7383 216.455 73.8949 216.487L74.6569 216.657C77.9284 217.395 86.7802 219.396 94.0452 217.768Z" fill="#52535A"/>
<path fill-rule="evenodd" clip-rule="evenodd" d="M91.2159 221.108C91.3652 221.057 91.5308 221.135 91.5822 221.28C91.6344 221.424 91.5561 221.584 91.4043 221.634C89.3068 222.335 86.7925 222.573 84.4004 222.573C80.566 222.573 77.0171 221.957 76.0096 221.636C75.8562 221.588 75.773 221.43 75.8227 221.284C75.8749 221.137 76.0381 221.058 76.1891 221.106C77.1681 221.416 80.6313 222.016 84.4004 222.016C86.7427 222.016 89.191 221.784 91.2159 221.108Z" fill="#52535A"/>
<path fill-rule="evenodd" clip-rule="evenodd" d="M30.0048 217.768C30.1589 217.734 30.3147 217.827 30.3523 217.977C30.3882 218.125 30.2911 218.275 30.1345 218.312C22.7373 219.967 13.7909 217.946 10.4835 217.199L9.72639 217.03C9.56975 216.996 9.47265 216.849 9.5061 216.698C9.54118 216.549 9.6954 216.455 9.85122 216.487L10.6132 216.657C13.8879 217.395 22.7365 219.396 30.0048 217.768Z" fill="#52535A"/>
<path fill-rule="evenodd" clip-rule="evenodd" d="M27.173 221.108C27.3247 221.057 27.4895 221.135 27.5417 221.28C27.5931 221.424 27.5131 221.584 27.3614 221.634C25.2655 222.335 22.7512 222.573 20.3591 222.573C16.5247 222.573 12.9742 221.957 11.9666 221.636C11.8157 221.588 11.7325 221.43 11.7814 221.284C11.8304 221.137 11.9944 221.058 12.1478 221.106C13.1251 221.416 16.5883 222.016 20.3583 222.016C22.6997 222.016 25.1497 221.784 27.173 221.108Z" fill="#52535A"/>
<path fill-rule="evenodd" clip-rule="evenodd" d="M10.862 302.303C10.5422 302.303 10.2828 302.053 10.2828 301.744C10.2828 301.437 10.5422 301.187 10.862 301.187H26.2927C26.6149 301.187 26.8744 301.437 26.8744 301.744C26.8744 302.052 26.6149 302.303 26.2927 302.303H10.862Z" fill="#52535A"/>
<path fill-rule="evenodd" clip-rule="evenodd" d="M13.1161 299.679C12.7947 299.679 12.5336 299.43 12.5336 299.123C12.5336 298.814 12.7939 298.564 13.1161 298.564H26.2919C26.6141 298.564 26.8736 298.814 26.8736 299.123C26.8736 299.43 26.6141 299.679 26.2919 299.679H13.1161Z" fill="#52535A"/>
<path fill-rule="evenodd" clip-rule="evenodd" d="M13.5934 297.058C13.272 297.058 13.0117 296.808 13.0117 296.499C13.0117 296.191 13.272 295.942 13.5934 295.942H26.2919C26.6141 295.942 26.8736 296.191 26.8736 296.499C26.8736 296.808 26.6141 297.058 26.2919 297.058H13.5934Z" fill="#52535A"/>
<path fill-rule="evenodd" clip-rule="evenodd" d="M91.7314 304.263C91.5022 304.476 91.1359 304.47 90.9132 304.247C90.6913 304.027 90.6978 303.675 90.9303 303.462L95.202 299.495C95.4313 299.282 95.7976 299.288 96.0203 299.512C96.2422 299.732 96.234 300.084 96.004 300.297L91.7314 304.263Z" fill="#52535A"/>
<path fill-rule="evenodd" clip-rule="evenodd" d="M88.5848 302.908C88.3555 303.12 87.9884 303.113 87.7665 302.891C87.5446 302.671 87.5511 302.318 87.7836 302.105L91.9444 298.239C92.1761 298.025 92.5432 298.032 92.7659 298.255C92.9862 298.475 92.9789 298.828 92.7488 299.041L88.5848 302.908Z" fill="#52535A"/>
<path fill-rule="evenodd" clip-rule="evenodd" d="M85.5287 301.882C85.2995 302.096 84.9307 302.09 84.7105 301.867C84.4877 301.646 84.4951 301.293 84.7252 301.08L89.1005 297.018C89.3297 296.804 89.6977 296.811 89.9196 297.033C90.1423 297.254 90.135 297.606 89.9024 297.82L85.5287 301.882Z" fill="#52535A"/>
<path fill-rule="evenodd" clip-rule="evenodd" d="M31.9252 90.1586C31.3957 91.4834 33.4198 99.0381 32.9825 100.306C28.2042 114.155 25.9329 118.483 22.6729 128.306C19.9782 136.425 13.2956 140.285 13.2956 140.285C43.7507 163.187 62.5067 147.773 84.154 138.965C84.154 138.965 91.8522 131.182 93.7817 121.396C97.5696 102.196 112.901 74.3401 111.808 65.2397C109.649 47.2535 74.7157 38.7602 54.1779 55.8C45.7356 62.804 37.3734 76.4954 31.9252 90.1586Z" fill="#E7B575"/>
<path fill-rule="evenodd" clip-rule="evenodd" d="M31.4691 88.5118C30.4135 91.6628 29.0298 96.3266 28.0011 98.6401C24.2066 107.19 20.4717 112.331 18.1458 117.696C16.2514 122.071 19.3565 125.199 18.2755 126.771C17.2019 128.335 15.3002 130.299 14.8335 131.75C13.5804 135.637 13.0028 143.385 13.0028 143.385C43.457 166.286 81.0204 158.358 85.9432 140.814C85.9432 140.814 92.3964 138.038 92.283 135.387C92.2291 134.121 92.181 132.641 92.1631 131.034C92.1035 126.265 92.837 126.186 93.7825 121.396C94.9345 115.552 97.1584 108.907 99.6614 102.231C98.9753 102.128 98.2557 102.04 97.5011 101.966C84.0178 100.644 66.9571 78.7117 66.9571 78.7117C66.9571 78.7117 67.5062 80.5614 61.4527 87.1682C57.1565 91.8555 42.7456 93.8807 33.7568 87.6743C31.8232 86.3432 32.3266 85.946 31.4691 88.5118Z" fill="#2E2B37"/>
<path fill-rule="evenodd" clip-rule="evenodd" d="M97.3257 108.736C99.4126 102.602 112.385 67.467 112.047 62.1851C111.453 58.7967 109.464 57.902 107.072 55.2971C105.456 63.1832 102.532 74.6245 101.328 80.1705C101.038 81.5125 96.2162 81.2454 93.4611 81.0119C90.0517 80.726 88.5359 79.8508 87.6254 74.5376C86.3976 67.3832 83.7274 52.8637 81.2024 46.0877C78.7288 46.1708 76.1923 46.4638 73.6331 46.9848C81.2358 61.4627 80.9143 79.4074 79.339 88.2258C77.6877 97.4743 58.9758 97.7383 58.9758 97.7383L97.3257 108.736Z" fill="#2E2B37"/>
<path fill-rule="evenodd" clip-rule="evenodd" d="M54.802 79.0243C48.5404 101.576 66.0629 129.436 66.0629 129.436L85.2619 123.036L79.3659 81.46C79.3659 81.46 57.2576 79.1943 54.802 79.0243Z" fill="#AB6549"/>
<path fill-rule="evenodd" clip-rule="evenodd" d="M54.5091 107.546C67.6032 105.924 82.4661 103.338 82.4661 103.338C82.3788 96.1997 78.7663 47.6648 73.5123 47.1046C67.316 46.4442 55.6284 52.2401 52.3308 58.4324C45.8368 70.6305 48.6188 90.1852 54.5091 107.546Z" fill="#E7B575"/>
<path fill-rule="evenodd" clip-rule="evenodd" d="M59.0228 114.381C61.3364 121.034 63.6467 133.224 69.0806 136.994C77.9157 143.118 103.779 148.459 114.093 150.139C115.537 150.373 125.56 155.46 130.007 158.227C134.028 160.732 124.995 160.417 142.818 160.997C145.091 161.179 124.995 152.328 142.818 160.997C139.136 160.703 140.346 154.169 135.223 154.169C134.272 152.107 143.634 145.124 141.223 143.443C136.545 140.18 128.139 138.905 124.009 139.404C109.223 136.577 92.7023 116.807 78.8372 119.163C75.6257 119.707 58.2853 112.26 59.0228 114.381Z" fill="#AB6549"/>
<path fill-rule="evenodd" clip-rule="evenodd" d="M68.7144 134.172C69.0881 134.186 69.4144 134.323 69.4429 134.48C69.4682 134.637 69.19 134.754 68.8164 134.739C53.9038 134.184 38.4062 131.597 32.0109 130.53L30.2617 130.239C29.8979 130.183 29.6662 130.017 29.7461 129.869C29.8244 129.723 30.1859 129.653 30.5505 129.71L32.3217 130.003C38.6599 131.06 54.0123 133.622 68.7144 134.172Z" fill="#52535A"/>
<path fill-rule="evenodd" clip-rule="evenodd" d="M70.7034 137.12C71.0542 137.096 71.4344 137.198 71.5551 137.352C71.6759 137.507 71.489 137.652 71.1391 137.677C66.2824 138.041 60.4533 137.875 54.904 137.491C46.0171 136.874 37.7911 135.685 35.4521 135.204C35.1013 135.13 34.9103 134.96 35.0262 134.822C35.1453 134.684 35.523 134.631 35.8755 134.704C38.1419 135.173 46.1704 136.328 54.9064 136.934C60.3284 137.309 66.0042 137.47 70.7034 137.12Z" fill="#52535A"/>
<path fill-rule="evenodd" clip-rule="evenodd" d="M49.2527 64.8339C49.2828 64.609 49.499 64.4516 49.7332 64.4821C49.9665 64.5111 50.1297 64.7187 50.0995 64.9436C47.7524 81.6065 50.8517 95.4006 50.8615 95.4413C50.9088 95.663 50.7595 95.8824 50.5278 95.927C50.2961 95.974 50.0685 95.8307 50.022 95.6097C50.0122 95.5682 46.8851 81.6402 49.2527 64.8339Z" fill="#2E2B37"/>
<path fill-rule="evenodd" clip-rule="evenodd" d="M82.0141 98.9339C82.2483 98.9002 82.4685 99.0545 82.5036 99.2786C82.5371 99.5034 82.3764 99.7142 82.1422 99.7479C65.8623 102.103 52.2223 103.674 52.1824 103.678C51.9482 103.704 51.7345 103.543 51.7067 103.317C51.6782 103.092 51.8462 102.887 52.0828 102.86C52.1195 102.855 65.7391 101.288 82.0141 98.9339Z" fill="#2E2B37"/>
<path fill-rule="evenodd" clip-rule="evenodd" d="M82.3045 75.5748C82.3331 75.8005 82.165 76.0057 81.9309 76.0331C81.6967 76.0606 81.4813 75.9 81.4528 75.6743C80.349 67.0737 79.0583 61.3366 77.4789 57.4594C75.9296 53.6534 74.1005 51.6643 71.8888 50.511C71.6808 50.4021 71.6024 50.1514 71.7158 49.9525C71.83 49.7527 72.0895 49.6775 72.2975 49.7864C74.6822 51.0297 76.641 53.1442 78.2784 57.1593C79.8848 61.1031 81.1909 66.9053 82.3045 75.5748Z" fill="#2E2B37"/>
<path fill-rule="evenodd" clip-rule="evenodd" d="M129.27 139.029C136.312 142.055 139.269 142.938 140.08 143.858C140.411 144.235 140.487 145.898 138.15 146.228C134.796 146.7 127.285 145.686 124.044 143.627C118.545 140.129 125.469 138.781 129.27 139.029Z" fill="#AB6549"/>
<path fill-rule="evenodd" clip-rule="evenodd" d="M140.772 148.844C138.706 155.803 138.203 158.683 137.429 159.546C137.111 159.899 135.559 160.153 134.993 157.99C134.181 154.885 134.307 147.706 135.884 144.43C138.561 138.872 140.587 145.24 140.772 148.844Z" fill="#AB6549"/>
<path fill-rule="evenodd" clip-rule="evenodd" d="M134.052 153.373C139.757 157.71 142.239 159.171 142.769 160.2C142.985 160.622 142.684 162.18 140.494 161.978C137.351 161.687 130.774 159.114 128.297 156.5C124.094 152.062 130.665 152.317 134.052 153.373Z" fill="#AB6549"/>
<path fill-rule="evenodd" clip-rule="evenodd" d="M130.27 149.029C137.312 152.055 140.269 152.938 141.08 153.858C141.411 154.235 141.487 155.898 139.15 156.228C135.796 156.7 128.285 155.686 125.044 153.627C119.545 150.129 126.469 148.781 130.27 149.029Z" fill="#AB6549"/>
<path fill-rule="evenodd" clip-rule="evenodd" d="M130.27 143.029C137.312 146.055 140.269 146.938 141.08 147.858C141.411 148.235 141.487 149.898 139.15 150.228C135.796 150.7 128.285 149.686 125.044 147.627C119.545 144.129 126.469 142.781 130.27 143.029Z" fill="#AB6549"/>
<path fill-rule="evenodd" clip-rule="evenodd" d="M88.6558 13.3423C85.8192 21.4345 81.8738 34.2155 90.7639 41.2563C99.6532 48.2963 105.141 32.025 105.787 23.0186C106.434 14.0129 88.6558 13.3423 88.6558 13.3423Z" fill="#2E2B37"/>
<path fill-rule="evenodd" clip-rule="evenodd" d="M94.7264 39.3227L87.1734 48.6598C85.8387 50.3089 87.1114 55.3166 89.3615 60.0282C91.7291 64.9866 100.846 69.5392 103.853 62.6653C104.449 61.3021 104.993 60.0369 105.533 59.1939L110.57 48.4224L94.7264 39.3227Z" fill="#AB6549"/>
<path fill-rule="evenodd" clip-rule="evenodd" d="M91.0478 43.891C94.3528 55.0471 101.304 60.7717 107.134 55.7703L110.569 48.4224L98.3577 31.4781L91.0478 43.891Z" fill="#8E503D"/>
<path fill-rule="evenodd" clip-rule="evenodd" d="M127.858 28.4423C126.477 34.6761 126.068 45.3403 121.878 50.2736C117.775 55.109 111.675 54.6515 105.471 52.9123C101.746 51.8679 95.995 45.2878 94.6987 37.133C93.9677 32.5366 91.6116 27.5719 92.9194 21.6765C98.1611 -1.96924 133.103 4.79576 127.858 28.4423Z" fill="#AB6549"/>
<path fill-rule="evenodd" clip-rule="evenodd" d="M106.209 16.9759C105.312 16.6954 98.2509 16.9328 96.6926 16.5192C95.9543 16.3233 93.2473 14.6875 92.3515 14.4665C91.1547 19.0332 90.79 19.877 90.635 25.0931C90.6138 26.1539 95.4582 24.3324 95.8245 32.9737C95.8507 33.6201 96.3099 35.8537 96.9602 33.7548C97.1119 33.2667 98.3512 30.2732 99.5953 27.8884C100.376 26.3874 103.34 25.5232 103.856 25.2827C104.787 24.8448 107.023 19.902 106.209 16.9759Z" fill="#2E2B37"/>
<path fill-rule="evenodd" clip-rule="evenodd" d="M123.579 20.5413C120.298 20.3118 118.188 20.9487 111.238 18.0516C104.288 15.1568 101.614 24.8283 101.614 24.8283L92.2732 26.6796C92.0953 26.7148 91.4264 26.2299 90.799 25.8045C90.2149 25.4088 89.7368 25.1895 89.6095 24.891C88.562 22.4835 87.0494 14.7666 88.9071 11.4534C90.9744 7.76658 96.5123 8.27816 96.6991 7.97497C103.409 -2.8788 120.573 -1.50387 130.34 5.25095C139.793 11.7848 142.22 23.4072 127.431 30.7973C127.702 24.8769 126.862 20.7701 123.579 20.5413Z" fill="#2E2B37"/>
<path fill-rule="evenodd" clip-rule="evenodd" d="M97.8299 8.80855C97.0442 9.16188 95.7315 8.06506 94.8961 6.35717C94.0631 4.64927 94.0232 2.97819 94.8088 2.62408C95.5969 2.26996 96.9096 3.36678 97.7426 5.07546C98.5772 6.78336 98.6147 8.45522 97.8299 8.80855Z" fill="#2E2B37"/>
<path fill-rule="evenodd" clip-rule="evenodd" d="M97.4725 9.73301C97.0304 10.4499 95.3016 10.2509 93.6104 9.28958C91.9216 8.32752 90.9108 6.96668 91.3529 6.24983C91.7951 5.53299 93.5247 5.73198 95.2135 6.69248C96.9031 7.65454 97.9155 9.01616 97.4725 9.73301Z" fill="#2E2B37"/>
<path fill-rule="evenodd" clip-rule="evenodd" d="M92.2944 26.0035C94.2793 26.4046 95.8262 29.3112 95.7503 32.4951C95.6744 35.6797 94.0044 37.9353 92.017 37.5357C90.0346 37.1346 88.4861 34.228 88.5636 31.0449C88.6403 27.8595 90.3103 25.6031 92.2944 26.0035Z" fill="#AB6549"/>
<path fill-rule="evenodd" clip-rule="evenodd" d="M91.3154 35.0428C91.7674 33.255 93.1151 33.5574 93.8722 34.3369C94.2793 32.4598 93.4659 29.4592 92.3164 28.6006C90.44 27.2993 88.8288 32.9855 91.3154 35.0428Z" fill="#8E503D"/>
<path fill-rule="evenodd" clip-rule="evenodd" d="M90.7941 29.2164C90.7109 29.3143 90.5648 29.3268 90.471 29.2438C90.3739 29.1615 90.3641 29.0166 90.4498 28.9194C90.8161 28.4932 91.1849 28.2723 91.5455 28.2136C91.9665 28.1446 92.354 28.2974 92.6999 28.6084C93.014 28.8936 93.293 29.3166 93.5231 29.8188C94.1235 31.1311 94.3936 33.02 94.0974 34.3808C94.0721 34.5054 93.9481 34.5868 93.8233 34.5618C93.776 34.5524 93.736 34.5289 93.7042 34.4983C93.4635 34.2492 93.1584 34.0557 92.8484 33.982C92.6942 33.9452 92.5408 33.9389 92.3939 33.9734C92.2512 34.0063 92.1166 34.0784 91.9942 34.1967C91.8049 34.3784 91.6458 34.6683 91.5398 35.0945C91.5063 35.2183 91.3815 35.2959 91.2575 35.2676C91.1351 35.2379 91.0593 35.1141 91.0903 34.9895C91.2224 34.4709 91.428 34.1081 91.6744 33.8684C91.8637 33.6859 92.0742 33.5754 92.2969 33.5245C92.5147 33.4744 92.739 33.4806 92.9609 33.5331C93.2236 33.5958 93.4839 33.7235 93.7131 33.8919C93.8673 32.6682 93.6095 31.1264 93.1029 30.017C92.8973 29.5697 92.6534 29.1968 92.3842 28.9539C92.1427 28.7345 91.88 28.6241 91.6108 28.6687C91.3579 28.7095 91.0862 28.881 90.7941 29.2164Z" fill="#2E2B37"/>
<path fill-rule="evenodd" clip-rule="evenodd" d="M117.597 14.3874C120.092 14.6632 122.808 14.7635 125.736 14.6405C126.067 14.6264 126.4 14.6099 126.737 14.5903C129.138 14.4485 131.294 14.2025 133.223 13.8829C134.614 13.6541 135.888 13.3854 137.056 13.0924C136.436 11.596 135.525 10.1568 134.364 8.81873C133.391 7.69606 132.246 6.64625 130.957 5.69202C119.043 9.4353 110.625 10.4342 101.517 3.07613C100.464 3.7538 99.49 4.5529 98.613 5.47971C101.747 11.2098 112.125 13.781 117.597 14.3874Z" fill="#44424E"/>
<path fill-rule="evenodd" clip-rule="evenodd" d="M111.898 42.5011C111.891 42.2998 112.043 42.1251 112.239 42.1102C113.254 42.346 121.141 43.8588 121.265 43.9427C121.426 44.0516 121.467 44.278 121.358 44.4488C120.059 46.4606 117.779 47.6076 115.517 46.9597C111.973 45.9451 111.898 42.5113 111.898 42.5011Z" fill="white"/>
<path fill-rule="evenodd" clip-rule="evenodd" d="M120.719 38.5667C120.76 38.754 120.951 38.8738 121.145 38.8339C121.341 38.7939 121.465 38.6106 121.424 38.4241C121.37 38.182 121.345 37.8616 121.341 37.5247C121.336 37.126 121.359 36.7123 121.4 36.377C121.425 36.1858 121.283 36.0135 121.085 35.99C120.886 35.9673 120.707 36.1036 120.683 36.2932C120.637 36.6551 120.612 37.1025 120.617 37.5318C120.623 37.9071 120.653 38.2737 120.719 38.5667Z" fill="#F0D4B8"/>
<path fill-rule="evenodd" clip-rule="evenodd" d="M120.457 39.7254C120.007 40.4705 118.971 40.8786 117.888 40.6687C116.812 40.4618 116.022 39.7113 115.889 38.8636C115.727 37.8162 117.092 38.4782 118.31 38.7156C119.508 38.9475 120.991 38.844 120.457 39.7254Z" fill="#8E503D"/>
<path fill-rule="evenodd" clip-rule="evenodd" d="M115.432 24.558C115.803 24.8197 115.882 25.3211 115.608 25.6776C115.336 26.034 114.812 26.1116 114.443 25.8499C114.439 25.846 112.229 24.2337 109.57 25.1785C109.137 25.3321 108.655 25.1198 108.497 24.7045C108.339 24.2885 108.563 23.8247 108.995 23.672C112.506 22.4224 115.425 24.5533 115.432 24.558Z" fill="#2E2B37"/>
<path fill-rule="evenodd" clip-rule="evenodd" d="M109.726 32.9275C110.84 33.1469 111.966 32.2804 112.241 30.9924C112.515 29.7052 111.836 28.4831 110.722 28.2637C109.608 28.0443 108.482 28.91 108.206 30.1988C107.931 31.486 108.612 32.7066 109.726 32.9275Z" fill="#2E2B37"/>
<path fill-rule="evenodd" clip-rule="evenodd" d="M113.173 48.5297C113.282 49.3837 114.067 50.1499 115.148 50.3684C116.222 50.5855 117.259 50.1945 117.726 49.4667C118.306 48.5657 116.778 48.6574 115.563 48.4138C114.365 48.1732 113.043 47.5159 113.173 48.5297Z" fill="#8E503D"/>
<path fill-rule="evenodd" clip-rule="evenodd" d="M109.258 28.3569C109.669 28.4384 109.934 28.8246 109.85 29.2203C109.765 29.6159 109.362 29.8705 108.95 29.7898C108.538 29.7084 108.274 29.3221 108.359 28.9265C108.441 28.5301 108.844 28.2755 109.258 28.3569Z" fill="white"/>
<path fill-rule="evenodd" clip-rule="evenodd" d="M130.208 26.794C130.577 27.0548 130.655 27.557 130.382 27.9127C130.108 28.2684 129.588 28.3467 129.217 28.0859C129.212 28.0812 127.002 26.4688 124.343 27.4137C123.91 27.5672 123.43 27.3549 123.272 26.9397C123.113 26.5237 123.335 26.0607 123.768 25.9071C127.281 24.6575 130.198 26.7885 130.208 26.794Z" fill="#2E2B37"/>
<path fill-rule="evenodd" clip-rule="evenodd" d="M124.499 35.1627C125.614 35.382 126.74 34.5163 127.014 33.2284C127.291 31.9396 126.61 30.719 125.496 30.4989C124.382 30.2803 123.255 31.1452 122.981 32.434C122.707 33.7211 123.386 34.9441 124.499 35.1627Z" fill="#2E2B37"/>
<path fill-rule="evenodd" clip-rule="evenodd" d="M124.031 30.5921C124.443 30.6736 124.707 31.0606 124.626 31.4554C124.541 31.8511 124.138 32.1057 123.726 32.025C123.315 31.9435 123.047 31.5573 123.133 31.1617C123.218 30.766 123.62 30.5114 124.031 30.5921Z" fill="white"/>
</svg>
