<svg width="376" height="361" viewBox="0 0 376 361" fill="none" xmlns="http://www.w3.org/2000/svg">
<path d="M362.808 3.67855L169.6 189.214L178.013 197.293L371.22 11.7571L362.808 3.67855Z" fill="#E5EFEF"/>
<path fill-rule="evenodd" clip-rule="evenodd" d="M169.756 180.811L186.77 197.147C188.74 199.039 188.74 202.135 186.77 204.026L183.187 207.467L159.012 184.251L162.593 180.81C164.563 178.92 167.787 178.92 169.756 180.811Z" fill="#E5EFEF"/>
<path fill-rule="evenodd" clip-rule="evenodd" d="M162.39 184.439L182.991 204.222C186.712 207.795 186.712 213.642 182.991 217.214L175.827 224.093C172.106 227.667 166.018 227.667 162.297 224.093L141.696 204.312C137.977 200.739 137.975 194.892 141.696 191.318L148.86 184.439C152.581 180.867 158.671 180.867 162.39 184.439Z" fill="#E5EFEF"/>
<path d="M150.804 189.993L133.442 206.665L159.85 232.024L177.211 215.352L150.804 189.993Z" fill="#E5EFEF"/>
<path fill-rule="evenodd" clip-rule="evenodd" d="M140.505 210.007L156.363 225.237C164.603 233.148 164.603 246.092 156.363 254.004L52.3202 353.916C44.0819 361.828 30.6019 361.828 22.3636 353.916L6.50383 338.686C-1.73446 330.776 -1.73446 317.83 6.50546 309.919L110.549 210.006C118.787 202.096 132.268 202.098 140.505 210.007Z" fill="#E5EFEF"/>
<path fill-rule="evenodd" clip-rule="evenodd" d="M1.47829 342.409L18.49 358.746C20.4595 360.638 23.6836 360.638 25.6531 358.746L29.2362 355.307L5.0598 332.091L1.47829 335.53C-0.492763 337.422 -0.492763 340.516 1.47829 342.409Z" fill="#E5EFEF"/>
<path fill-rule="evenodd" clip-rule="evenodd" d="M121.053 216.312C122.626 214.8 125.176 214.8 126.749 216.312C128.322 217.822 128.322 220.271 126.749 221.782L19.4601 324.812C17.8863 326.323 15.3352 326.323 13.7623 324.812C12.1893 323.301 12.1893 320.851 13.7623 319.341L121.053 216.312Z" fill="#C2D9D6"/>
<path fill-rule="evenodd" clip-rule="evenodd" d="M132.578 227.379C134.152 225.868 136.701 225.868 138.274 227.379C139.847 228.89 139.847 231.339 138.274 232.85L30.9862 335.879C29.4116 337.391 26.8613 337.391 25.2892 335.879C23.7155 334.369 23.7155 331.918 25.2892 330.409L132.578 227.379Z" fill="#C2D9D6"/>
<path fill-rule="evenodd" clip-rule="evenodd" d="M144.548 238.875C146.121 237.364 148.673 237.364 150.245 238.875C151.818 240.387 151.818 242.836 150.245 244.345L42.9553 347.374C41.3823 348.886 38.832 348.886 37.2591 347.374C35.6862 345.863 35.6862 343.414 37.2591 341.904L144.548 238.875Z" fill="#C2D9D6"/>
<path fill-rule="evenodd" clip-rule="evenodd" d="M363.655 10.9368L367.435 11.3411L371.215 11.7461L373.129 8.36635L375.043 4.98815L372.447 2.49369L369.851 0L366.33 1.83873L362.812 3.67746L363.233 7.30636L363.655 10.9368Z" fill="#E5EFEF"/>
</svg>
