<svg width="204" height="141" viewBox="0 0 204 141" fill="none" xmlns="http://www.w3.org/2000/svg">
<path fill-rule="evenodd" clip-rule="evenodd" d="M133.879 0L101.736 26.1316L101.699 26.0862C87.8809 26.7921 69.966 26.7153 55.108 27.9226C49.3181 28.3942 43.6097 28.8329 38.1819 30.8722C29.5504 34.1117 20.8226 41.0789 12.5795 53.5536C-4.06191 78.3847 -6.66933 106.241 20.0215 86.8004C34.3451 76.3658 41.0961 71.3964 44.2754 69.0304C51.9271 63.3364 80.6901 95.846 70.9287 103.252C67.512 105.843 60.8442 110.948 47.8381 120.994C21.7347 141.156 50.5108 145.471 79.6263 135.974C93.6162 131.507 102.604 125.404 108.049 118.516C111.577 114.055 113.144 109.839 115.051 104.65C120.133 90.8077 124.584 72.9147 128.788 59.6346L203.985 0H133.879Z" fill="#E5EFEF"/>
</svg>
